<?xml version="1.0" encoding="utf-8"?>
<!-- Generator: Adobe Illustrator 16.0.0, SVG Export Plug-In . SVG Version: 6.00 Build 0)  -->
<!DOCTYPE svg PUBLIC "-//W3C//DTD SVG 1.1//EN" "http://www.w3.org/Graphics/SVG/1.1/DTD/svg11.dtd">
<svg version="1.1" id="Layer_1" xmlns="http://www.w3.org/2000/svg" xmlns:xlink="http://www.w3.org/1999/xlink" x="0px" y="0px"
	 width="566.733px" height="82.877px" viewBox="0 0 566.733 82.877" enable-background="new 0 0 566.733 82.877"
	 xml:space="preserve">
<rect x="-0.447" y="0.275" fill="#FAFAFA" stroke="#FAFAFA" stroke-miterlimit="22.9256" width="567" height="83"/>
<g>
	<path fill="#231F20" stroke="#231F20" stroke-width="0.0416" stroke-miterlimit="22.9256" d="M26.658,28.564
		c0-2.194,0-4.069,0-5.617c0-1.543,0-2.843,0.012-3.88c0-1.05,0.012-1.926,0.024-2.621c0-0.685,0.026-1.285,0.032-1.78
		c0.024-0.486,0.048-0.956,0.073-1.393c0.044-1.229,0.267-2.173,0.639-2.822c0.37-0.635,1.021-1.049,1.937-1.213
		c0.402-0.071,0.742-0.131,0.997-0.168c0.267-0.033,0.507-0.046,0.742-0.046c0.137,0,0.267-0.034,0.384-0.104
		c0.099-0.072,0.162-0.177,0.174-0.319c0-0.214-0.093-0.356-0.267-0.449c-0.186-0.083-0.463-0.117-0.848-0.117
		c-0.532,0-1.17,0.013-1.9,0.034c-0.724,0.013-1.443,0.047-2.161,0.071c-0.718,0.025-1.336,0.046-1.844,0.071
		c-0.507,0.024-0.811,0.033-0.916,0.033c-0.105,0-0.408-0.009-0.94-0.033c-0.521-0.025-1.17-0.046-1.951-0.071
		c-0.774-0.024-1.597-0.059-2.47-0.071c-0.865-0.021-1.702-0.034-2.507-0.034c-0.376,0-0.655,0.034-0.841,0.117
		c-0.174,0.093-0.273,0.235-0.273,0.449c0.014,0.143,0.075,0.247,0.18,0.319c0.111,0.07,0.243,0.104,0.378,0.104
		c0.223,0,0.477,0,0.768,0.024c0.303,0.014,0.593,0.034,0.884,0.072c0.285,0.021,0.521,0.07,0.718,0.117
		c0.756,0.151,1.344,0.399,1.765,0.729c0.427,0.319,0.718,0.756,0.904,1.301c0.174,0.529,0.291,1.203,0.321,2.005
		c0.024,0.437,0.05,0.906,0.069,1.393c0.012,0.495,0.037,1.096,0.049,1.78c0,0.695,0.014,1.571,0.014,2.621
		c0.012,1.037,0.012,2.337,0.012,3.88c0,1.548,0,3.423,0,5.617v20.463c0,3.032-0.062,5.697-0.174,7.986
		c-0.129,2.303-0.315,4.309-0.558,6.008c-0.247,1.711-0.544,3.185-0.916,4.449c-0.358,1.252-0.805,2.359-1.288,3.305
		c-0.501,0.955-1.058,1.828-1.682,2.609c-0.626,0.787-1.312,1.566-2.068,2.332c-0.322,0.33-0.706,0.676-1.132,1.039
		c-0.447,0.365-0.874,0.686-1.3,0.945c-0.315,0.201-0.558,0.377-0.718,0.531c-0.174,0.15-0.261,0.328-0.261,0.529
		c0.012,0.143,0.062,0.248,0.167,0.318c0.099,0.072,0.204,0.107,0.322,0.107c0.105,0,0.198-0.023,0.267-0.049
		c0.081-0.02,0.154-0.059,0.223-0.092c0.358-0.189,0.786-0.449,1.275-0.781c0.494-0.33,0.971-0.658,1.436-0.99
		c1.882-1.32,3.479-2.582,4.815-3.787c1.336-1.203,2.444-2.383,3.317-3.553c0.865-1.156,1.553-2.324,2.03-3.49
		c0.415-1.004,0.756-1.996,1.021-3.013c0.267-1.001,0.465-2.075,0.612-3.208c0.149-1.146,0.254-2.407,0.317-3.812
		c0.067-1.391,0.105-2.985,0.124-4.769c0.012-1.782,0.012-3.81,0.012-6.087V28.564L26.658,28.564z"/>
	<path fill="#231F20" stroke="#231F20" stroke-width="0.0416" stroke-miterlimit="22.9256" d="M49.256,42.416
		c0.012,2.254,0.149,4.236,0.42,5.952c0.285,1.727,0.675,3.225,1.17,4.506c0.495,1.281,1.071,2.398,1.732,3.349
		c0.675,0.949,1.393,1.775,2.167,2.501c1.138,1.033,2.345,1.838,3.621,2.438c1.288,0.601,2.537,1.042,3.756,1.321
		c1.233,0.282,2.333,0.455,3.324,0.538c0.978,0.084,1.758,0.115,2.302,0.106c1.257,0.017,2.594-0.084,4.023-0.314
		c1.431-0.216,2.903-0.658,4.419-1.32c1.524-0.662,3.04-1.652,4.562-2.955c1.255-1.105,2.278-2.378,3.044-3.813
		c0.768-1.427,1.356-2.969,1.759-4.599c0.396-1.634,0.667-3.309,0.805-5.023c0.147-1.715,0.21-3.419,0.204-5.106v-6.632
		c0-1.922,0-3.565,0-4.92c0-1.353,0-2.488,0.006-3.398c0-0.92,0.012-1.687,0.024-2.297c0.012-0.597,0.019-1.123,0.031-1.56
		c0.02-0.423,0.044-0.835,0.062-1.219c0.042-1.074,0.241-1.891,0.582-2.438c0.333-0.558,0.922-0.919,1.757-1.096
		c0.366-0.062,0.669-0.114,0.904-0.146c0.242-0.031,0.458-0.04,0.669-0.04c0.142,0,0.253-0.031,0.352-0.093
		c0.106-0.062,0.155-0.155,0.155-0.279c0-0.185-0.087-0.31-0.241-0.393c-0.167-0.071-0.422-0.103-0.768-0.103
		c-0.483,0-1.002,0.01-1.566,0.031c-0.556,0.009-1.108,0.04-1.634,0.062c-0.525,0.02-0.978,0.041-1.354,0.062
		c-0.378,0.019-0.62,0.03-0.75,0.03c-0.105,0-0.364-0.012-0.798-0.03c-0.433-0.021-0.979-0.043-1.622-0.062
		c-0.637-0.021-1.336-0.053-2.08-0.062c-0.736-0.021-1.466-0.031-2.191-0.031c-0.346,0-0.601,0.031-0.767,0.103
		c-0.155,0.083-0.242,0.208-0.242,0.393c0.014,0.124,0.062,0.218,0.155,0.279c0.105,0.062,0.223,0.093,0.346,0.093
		c0.205,0,0.435,0,0.7,0.021c0.273,0.009,0.533,0.031,0.798,0.062c0.261,0.02,0.483,0.062,0.651,0.103
		c0.687,0.136,1.219,0.353,1.603,0.641c0.39,0.278,0.649,0.663,0.817,1.139c0.16,0.464,0.267,1.053,0.297,1.755
		c0.031,0.384,0.049,0.796,0.061,1.219c0.02,0.437,0.032,0.963,0.044,1.56c0,0.61,0.012,1.377,0.012,2.297
		c0.006,0.91,0.006,2.046,0.006,3.398c0,1.354,0,2.998,0,4.92v7.749c0.012,2.13-0.093,4.135-0.303,5.995s-0.582,3.565-1.114,5.104
		c-0.538,1.55-1.288,2.915-2.24,4.095c-0.768,0.896-1.678,1.674-2.731,2.346c-1.051,0.658-2.184,1.177-3.404,1.547
		c-1.225,0.375-2.48,0.569-3.78,0.569c-1.189,0.013-2.321-0.071-3.386-0.246c-1.051-0.177-2.092-0.519-3.095-1.014
		c-1.009-0.498-2.03-1.21-3.051-2.15c-0.681-0.628-1.312-1.362-1.882-2.21c-0.576-0.847-1.07-1.86-1.504-3.048
		c-0.42-1.188-0.754-2.605-0.991-4.259c-0.229-1.644-0.358-3.574-0.358-5.797v-8.681c0-1.922,0-3.565,0-4.92
		c0-1.353,0-2.488,0.012-3.398c0-0.92,0.012-1.687,0.024-2.297c0-0.597,0.018-1.123,0.03-1.56c0.02-0.423,0.038-0.835,0.062-1.219
		c0.043-1.083,0.241-1.912,0.576-2.491c0.34-0.575,0.928-0.929,1.757-1.043c0.372-0.062,0.675-0.114,0.904-0.146
		c0.242-0.031,0.465-0.04,0.675-0.04c0.135,0,0.253-0.031,0.347-0.093c0.105-0.062,0.16-0.155,0.16-0.279
		c0-0.185-0.087-0.31-0.241-0.393c-0.174-0.071-0.422-0.103-0.768-0.103c-0.489,0-1.052,0.01-1.696,0.031
		c-0.643,0.009-1.281,0.04-1.924,0.062c-0.645,0.02-1.201,0.041-1.684,0.062c-0.477,0.019-0.792,0.03-0.946,0.03
		c-0.162,0-0.477-0.012-0.979-0.03c-0.495-0.021-1.096-0.043-1.801-0.062c-0.706-0.021-1.448-0.053-2.228-0.062
		c-0.78-0.021-1.528-0.031-2.254-0.031c-0.346,0-0.601,0.031-0.767,0.103c-0.162,0.083-0.242,0.208-0.242,0.393
		c0.006,0.124,0.062,0.218,0.155,0.279c0.105,0.062,0.223,0.093,0.346,0.093c0.204,0,0.434,0,0.699,0.021
		c0.273,0.009,0.534,0.031,0.799,0.062c0.26,0.02,0.471,0.062,0.65,0.103c0.688,0.136,1.219,0.353,1.603,0.641
		c0.376,0.278,0.649,0.663,0.817,1.139c0.162,0.464,0.267,1.053,0.297,1.755c0.018,0.384,0.037,0.796,0.061,1.219
		c0.014,0.437,0.032,0.963,0.032,1.56c0.012,0.61,0.019,1.377,0.019,2.297c0.012,0.91,0.012,2.046,0.012,3.398
		c0,1.354,0,2.998,0,4.92V42.416L49.256,42.416z"/>
	<path fill="#231F20" stroke="#231F20" stroke-width="0.0416" stroke-miterlimit="22.9256" d="M108.452,44.348
		c0,1.983,0,3.822-0.012,5.527c-0.006,1.693-0.038,3.212-0.081,4.538c-0.044,1.336-0.117,2.435-0.222,3.308
		c-0.075,0.594-0.18,1.139-0.31,1.622c-0.125,0.473-0.303,0.871-0.545,1.172c-0.235,0.306-0.564,0.511-0.984,0.594
		c-0.297,0.062-0.613,0.125-0.946,0.174c-0.34,0.043-0.657,0.075-0.954,0.075c-0.184,0-0.315,0.039-0.39,0.111
		c-0.085,0.071-0.117,0.164-0.117,0.256c0,0.186,0.087,0.31,0.249,0.381c0.166,0.081,0.42,0.111,0.766,0.111
		c0.489-0.01,1.065-0.03,1.722-0.062c0.655-0.041,1.306-0.059,1.949-0.059c0.681-0.031,1.257-0.053,1.72-0.053
		c0.471-0.01,0.744-0.01,0.817-0.01c0.119,0,0.408,0.02,0.885,0.05c0.477,0.04,1.089,0.084,1.838,0.145
		c0.75,0.051,1.591,0.113,2.533,0.174c0.916,0.062,1.88,0.125,2.891,0.174c1.001,0.062,2.016,0.105,3.021,0.145
		c1.015,0.032,1.973,0.054,2.889,0.054c2.692-0.021,5.076-0.258,7.156-0.721c2.091-0.462,3.904-1.057,5.458-1.786
		c1.553-0.729,2.859-1.489,3.948-2.3c1.078-0.813,1.951-1.572,2.626-2.281c0.896-0.913,1.751-1.962,2.567-3.153
		c0.811-1.2,1.541-2.524,2.186-3.983c0.643-1.469,1.15-3.052,1.516-4.766c0.372-1.705,0.564-3.534,0.568-5.475
		c-0.018-2.441-0.314-4.642-0.884-6.601c-0.582-1.963-1.332-3.698-2.26-5.196c-0.916-1.501-1.919-2.785-2.996-3.854
		c-1.522-1.51-3.168-2.72-4.927-3.645c-1.775-0.923-3.588-1.621-5.458-2.104c-1.87-0.474-3.713-0.811-5.533-0.987
		c-1.813-0.173-3.534-0.267-5.15-0.287c-1.615-0.011-3.057-0.011-4.326,0c-0.958,0-1.9,0.012-2.829,0.03
		c-0.928,0.012-1.795,0.043-2.586,0.062c-0.792,0.022-1.467,0.043-2.013,0.062c-0.55,0.021-0.922,0.03-1.12,0.03
		c-0.099,0-0.371-0.009-0.854-0.03c-0.477-0.02-1.071-0.04-1.777-0.062c-0.706-0.019-1.454-0.05-2.246-0.062
		c-0.792-0.019-1.554-0.03-2.278-0.03c-0.352,0-0.606,0.03-0.774,0.104c-0.154,0.08-0.241,0.204-0.241,0.39
		c0.012,0.124,0.062,0.213,0.154,0.275c0.111,0.062,0.224,0.094,0.354,0.094c0.198,0,0.433,0,0.693,0.021
		c0.279,0.01,0.538,0.031,0.805,0.062c0.267,0.019,0.477,0.062,0.655,0.102c0.681,0.134,1.221,0.35,1.603,0.638
		c0.39,0.276,0.657,0.656,0.824,1.13c0.154,0.461,0.259,1.046,0.297,1.746c0.018,0.38,0.037,0.788,0.061,1.209
		c0.012,0.434,0.03,0.956,0.044,1.551c0,0.606,0.006,1.368,0.006,2.281c0.012,0.903,0.012,2.032,0.012,3.379s0,2.978,0,4.887V44.348
		L108.452,44.348z M113.774,32.52c0-1.2,0-2.454,0-3.76c0-1.303,0-2.565,0.006-3.798c0-1.222,0.012-2.333,0.024-3.298
		c0-0.976,0.019-1.733,0.031-2.27c0-0.337,0.05-0.597,0.167-0.779c0.117-0.186,0.303-0.341,0.594-0.452
		c0.136-0.062,0.354-0.124,0.675-0.177c0.315-0.049,0.68-0.093,1.096-0.133c0.415-0.04,0.823-0.071,1.237-0.093
		c0.408-0.019,0.78-0.031,1.108-0.031c1.888-0.009,3.744,0.062,5.583,0.227c1.825,0.167,3.621,0.495,5.359,0.966
		c1.751,0.482,3.441,1.183,5.076,2.107c1.634,0.934,3.199,2.145,4.685,3.664c0.669,0.659,1.344,1.479,2.049,2.445
		c0.706,0.965,1.361,2.095,1.961,3.379c0.613,1.284,1.108,2.729,1.492,4.342c0.378,1.625,0.57,3.41,0.582,5.359
		c0,1.431-0.111,2.848-0.328,4.253c-0.224,1.408-0.539,2.764-0.972,4.057c-0.42,1.303-0.954,2.495-1.584,3.584
		c-0.631,1.1-1.361,2.046-2.186,2.835c-1.255,1.213-2.667,2.249-4.251,3.102c-1.597,0.854-3.293,1.501-5.119,1.952
		c-1.826,0.452-3.726,0.678-5.701,0.678c-1.856,0-3.429-0.074-4.716-0.216c-1.288-0.146-2.345-0.34-3.156-0.576
		c-0.823-0.234-1.461-0.505-1.912-0.789c-0.453-0.301-0.78-0.589-0.979-0.886c-0.174-0.244-0.297-0.638-0.396-1.169
		c-0.093-0.546-0.167-1.129-0.21-1.768c-0.042-0.638-0.075-1.211-0.093-1.745c-0.019-0.298-0.031-0.852-0.043-1.663
		c-0.02-0.813-0.032-1.81-0.044-3.01c-0.006-1.201-0.019-2.535-0.031-4.015c-0.006-1.479-0.006-3.039-0.006-4.683V32.52
		L113.774,32.52z"/>
	<path fill="#231F20" stroke="#231F20" stroke-width="0.0416" stroke-miterlimit="22.9256" d="M177.228,51.72
		c0,0.33,0,0.805-0.012,1.426c0,0.622-0.018,1.334-0.044,2.127c-0.036,0.795-0.079,1.615-0.147,2.47
		c-0.062,0.886-0.267,1.628-0.606,2.219c-0.348,0.592-0.861,0.962-1.555,1.093c-0.321,0.062-0.673,0.12-1.045,0.172
		c-0.372,0.039-0.718,0.069-1.039,0.069c-0.212,0-0.348,0.041-0.434,0.111c-0.093,0.071-0.124,0.161-0.124,0.251
		c0,0.18,0.093,0.301,0.267,0.37c0.186,0.081,0.463,0.113,0.847,0.113c0.545,0,1.17-0.013,1.9-0.032
		c0.718-0.021,1.448-0.04,2.161-0.058c0.718-0.023,1.331-0.041,1.844-0.062c0.508-0.019,0.811-0.03,0.916-0.03
		c0.099,0,0.415,0.012,0.948,0.03c0.532,0.021,1.207,0.039,2.03,0.062c0.811,0.018,1.708,0.036,2.679,0.058
		c0.966,0.02,1.938,0.032,2.903,0.032c0.378,0,0.657-0.041,0.843-0.131c0.172-0.081,0.265-0.201,0.265-0.353
		c0-0.09-0.031-0.18-0.111-0.251c-0.093-0.07-0.235-0.111-0.439-0.111c-0.222,0-0.513-0.01-0.873-0.03
		c-0.372-0.029-0.754-0.06-1.157-0.091c-0.396-0.039-0.768-0.08-1.102-0.12c-0.688-0.081-1.245-0.278-1.641-0.582
		c-0.402-0.291-0.693-0.681-0.878-1.142c-0.186-0.474-0.303-1.006-0.335-1.588c-0.073-0.854-0.117-1.675-0.154-2.47
		c-0.024-0.793-0.044-1.505-0.044-2.127c-0.012-0.621-0.012-1.096-0.012-1.426v-5.178c-0.012-0.662,0.012-1.315,0.032-1.969
		c0.037-0.641,0.13-1.303,0.277-1.968c0.144-0.672,0.396-1.365,0.731-2.086c0.185-0.381,0.526-0.963,1.009-1.749
		c0.488-0.792,1.082-1.704,1.775-2.758c0.7-1.054,1.443-2.178,2.254-3.362c0.811-1.186,1.622-2.368,2.457-3.554
		c0.823-1.173,1.621-2.287,2.377-3.333c0.754-1.042,1.442-1.946,2.03-2.708c0.594-0.773,1.059-1.336,1.393-1.687
		c0.501-0.541,0.94-0.993,1.324-1.364c0.378-0.362,0.762-0.685,1.132-0.953c0.359-0.272,0.78-0.523,1.232-0.756
		c0.569-0.3,1.145-0.511,1.727-0.649c0.583-0.133,1.078-0.192,1.474-0.192c0.277,0,0.501-0.049,0.662-0.13
		c0.162-0.08,0.242-0.201,0.242-0.353c-0.012-0.12-0.093-0.21-0.267-0.269c-0.174-0.062-0.384-0.09-0.637-0.09
		c-0.279,0-0.663,0-1.17,0.018c-0.501,0.01-1.057,0.02-1.658,0.041c-0.596,0.018-1.183,0.04-1.74,0.059
		c-0.57,0.012-1.045,0.031-1.441,0.04c-0.402,0.013-0.651,0.022-0.738,0.022c-0.197,0-0.55-0.022-1.033-0.051
		c-0.501-0.03-1.058-0.062-1.696-0.08c-0.625-0.031-1.25-0.049-1.869-0.049c-0.347,0-0.626,0.027-0.811,0.09
		c-0.198,0.059-0.297,0.148-0.297,0.269c0,0.143,0.099,0.264,0.283,0.344c0.186,0.09,0.446,0.17,0.756,0.26
		c0.42,0.09,0.706,0.291,0.873,0.591c0.172,0.304,0.253,0.662,0.241,1.096c0.012,0.39-0.081,0.843-0.253,1.355
		c-0.174,0.511-0.489,1.083-0.929,1.715c-0.21,0.291-0.544,0.783-1.009,1.476c-0.463,0.682-1.021,1.504-1.658,2.46
		c-0.639,0.954-1.324,1.976-2.043,3.071c-0.73,1.092-1.448,2.188-2.178,3.292c-0.718,1.102-1.405,2.148-2.043,3.142
		c-0.625,0.983-1.183,1.847-1.633,2.591c-0.465,0.742-0.792,1.302-0.991,1.674c-0.186-0.26-0.532-0.762-1.039-1.517
		c-0.514-0.743-1.126-1.644-1.846-2.721c-1.602-2.37-3.212-4.74-4.802-7.124c-0.824-1.226-1.591-2.37-2.309-3.444
		c-0.706-1.061-1.319-1.965-1.807-2.707c-0.501-0.756-0.825-1.257-0.997-1.517c-0.279-0.452-0.501-0.864-0.663-1.244
		c-0.162-0.381-0.248-0.752-0.248-1.105c0-0.241,0.086-0.451,0.248-0.631c0.162-0.183,0.384-0.331,0.663-0.452
		c0.321-0.121,0.562-0.201,0.748-0.272c0.186-0.067,0.291-0.161,0.291-0.27c0.012-0.12-0.042-0.223-0.162-0.303
		c-0.129-0.08-0.37-0.117-0.742-0.117c-0.916,0-1.783,0.018-2.612,0.049c-0.823,0.019-1.528,0.05-2.11,0.08
		c-0.564,0.028-0.946,0.051-1.12,0.051c-0.081,0-0.329-0.01-0.724-0.022c-0.402-0.009-0.892-0.028-1.468-0.04
		c-0.582-0.019-1.188-0.041-1.801-0.059c-0.625-0.021-1.194-0.031-1.702-0.041c-0.525-0.018-0.916-0.018-1.194-0.018
		c-0.315,0-0.55,0.037-0.688,0.117c-0.148,0.08-0.222,0.183-0.222,0.303c0.012,0.148,0.086,0.251,0.222,0.322
		c0.137,0.068,0.291,0.099,0.477,0.099c0.216,0,0.489,0.041,0.823,0.112c0.335,0.08,0.681,0.188,1.065,0.331
		c0.384,0.148,0.754,0.318,1.102,0.52c0.637,0.362,1.367,0.913,2.185,1.668c0.823,0.743,1.664,1.675,2.55,2.789
		c0.359,0.451,0.835,1.086,1.423,1.896c0.582,0.805,1.257,1.718,1.987,2.742c0.73,1.021,1.498,2.086,2.284,3.2
		c0.779,1.104,1.553,2.196,2.297,3.262c0.742,1.064,1.423,2.038,2.042,2.93c0.612,0.895,1.126,1.629,1.504,2.21
		c0.396,0.591,0.631,0.953,0.711,1.104c0.297,0.562,0.576,1.133,0.823,1.696c0.229,0.56,0.428,1.204,0.57,1.925
		c0.135,0.733,0.204,1.628,0.204,2.702V51.72L177.228,51.72z"/>
	<path fill="#231F20" stroke="#231F20" stroke-width="0.0416" stroke-miterlimit="22.9256" d="M283.246,28.626
		c0-2.23,0-4.137,0-5.706s0-2.888,0.012-3.942c0-1.067,0.012-1.956,0.024-2.662c0.014-0.696,0.026-1.306,0.032-1.81
		c0.024-0.493,0.049-0.972,0.075-1.415c0.043-1.247,0.265-2.206,0.637-2.865c0.372-0.646,1.021-1.065,1.937-1.235
		c0.402-0.07,0.744-0.129,0.997-0.167c0.267-0.034,0.508-0.046,0.744-0.046c0.148,0,0.277-0.037,0.383-0.108
		c0.111-0.071,0.174-0.18,0.174-0.325c0-0.214-0.093-0.359-0.267-0.455c-0.184-0.084-0.463-0.12-0.847-0.12
		c-0.532,0-1.17,0.012-1.894,0.036c-0.73,0.014-1.448,0.05-2.167,0.072c-0.718,0.024-1.33,0.049-1.844,0.07
		c-0.501,0.025-0.811,0.037-0.916,0.037c-0.093,0-0.408-0.012-0.928-0.037c-0.52-0.021-1.183-0.046-1.963-0.07
		c-0.772-0.022-1.597-0.059-2.469-0.072c-0.867-0.024-1.702-0.036-2.507-0.036c-0.378,0-0.657,0.036-0.843,0.12
		c-0.172,0.096-0.265,0.241-0.265,0.455c0.006,0.146,0.067,0.254,0.172,0.325c0.111,0.071,0.242,0.108,0.384,0.108
		c0.216,0,0.471,0,0.762,0.021c0.303,0.013,0.594,0.037,0.884,0.074c0.285,0.021,0.533,0.071,0.719,0.117
		c0.754,0.158,1.343,0.408,1.763,0.746c0.428,0.321,0.718,0.765,0.904,1.318c0.173,0.539,0.291,1.222,0.323,2.036
		c0.037,0.443,0.061,0.922,0.073,1.415c0.018,0.504,0.032,1.113,0.044,1.81c0,0.706,0.012,1.595,0.012,2.662
		c0.012,1.055,0.012,2.373,0.012,3.942s0,3.476,0,5.706v1.511c0,0.18-0.051,0.284-0.13,0.347c-0.081,0.06-0.174,0.083-0.291,0.083
		h-29.505c-0.105,0-0.21-0.023-0.291-0.083c-0.081-0.062-0.129-0.167-0.129-0.347v-1.511c0-2.23,0-4.137,0-5.706
		s0-2.888,0.012-3.942c0-1.067,0.012-1.956,0.024-2.662c0-0.696,0.024-1.306,0.037-1.81c0.026-0.493,0.044-0.972,0.069-1.415
		c0.042-1.247,0.267-2.206,0.637-2.865c0.372-0.646,1.022-1.065,1.938-1.235c0.408-0.07,0.742-0.129,0.997-0.167
		c0.265-0.034,0.514-0.046,0.742-0.046c0.149,0,0.279-0.037,0.384-0.108c0.118-0.071,0.172-0.18,0.172-0.325
		c0-0.214-0.091-0.359-0.265-0.455c-0.186-0.084-0.465-0.12-0.847-0.12c-0.533,0-1.17,0.012-1.902,0.036
		c-0.718,0.014-1.441,0.05-2.159,0.072c-0.718,0.024-1.331,0.049-1.844,0.07c-0.508,0.025-0.811,0.037-0.916,0.037
		c-0.107,0-0.404-0.012-0.942-0.037c-0.52-0.021-1.169-0.046-1.943-0.07c-0.78-0.022-1.603-0.059-2.47-0.072
		c-0.872-0.024-1.708-0.036-2.507-0.036c-0.384,0-0.661,0.036-0.847,0.12c-0.174,0.096-0.267,0.241-0.267,0.455
		c0.012,0.146,0.068,0.254,0.174,0.325c0.117,0.071,0.241,0.108,0.384,0.108c0.216,0,0.476,0,0.761,0.021
		c0.303,0.013,0.594,0.037,0.885,0.074c0.291,0.021,0.52,0.071,0.718,0.117c0.756,0.158,1.344,0.408,1.765,0.746
		c0.426,0.321,0.718,0.765,0.903,1.318c0.174,0.539,0.291,1.222,0.328,2.036c0.019,0.443,0.044,0.922,0.069,1.415
		c0.012,0.504,0.03,1.113,0.042,1.81c0,0.706,0.012,1.595,0.012,2.662c0.012,1.055,0.012,2.373,0.012,3.942s0,3.476,0,5.706v12.658
		c0,2.312,0,4.456-0.012,6.446c-0.012,1.978-0.042,3.754-0.093,5.298c-0.043,1.56-0.124,2.841-0.241,3.859
		c-0.081,0.696-0.198,1.33-0.34,1.895c-0.137,0.551-0.335,1.018-0.602,1.368c-0.253,0.358-0.611,0.598-1.076,0.693
		c-0.328,0.073-0.675,0.145-1.045,0.204c-0.372,0.049-0.719,0.082-1.047,0.082c-0.205,0-0.346,0.051-0.427,0.135
		c-0.093,0.083-0.131,0.191-0.131,0.3c0,0.213,0.093,0.358,0.273,0.441c0.186,0.097,0.465,0.135,0.843,0.135
		c0.544,0,1.175-0.013,1.906-0.038c0.718-0.024,1.448-0.046,2.153-0.07c0.718-0.026,1.336-0.051,1.844-0.071
		c0.514-0.024,0.811-0.038,0.917-0.038c0.105,0,0.42,0.014,0.952,0.038c0.52,0.021,1.207,0.045,2.03,0.071
		c0.811,0.024,1.702,0.046,2.681,0.07c0.958,0.025,1.937,0.038,2.897,0.038c0.384,0,0.661-0.051,0.847-0.159
		c0.174-0.096,0.267-0.237,0.267-0.417c0-0.108-0.03-0.217-0.117-0.3c-0.093-0.084-0.23-0.135-0.44-0.135
		c-0.216,0-0.507-0.009-0.866-0.033c-0.372-0.037-0.756-0.075-1.164-0.108c-0.39-0.049-0.76-0.096-1.102-0.145
		c-0.682-0.096-1.219-0.335-1.591-0.693c-0.364-0.351-0.625-0.817-0.786-1.368c-0.16-0.564-0.277-1.198-0.333-1.895
		c-0.118-1.019-0.198-2.3-0.247-3.859c-0.044-1.544-0.081-3.32-0.093-5.298c-0.012-1.99-0.012-4.135-0.012-6.446v-7.552
		c0-0.183,0.048-0.3,0.129-0.35c0.081-0.059,0.186-0.096,0.291-0.084h29.505c0.117,0,0.21,0.038,0.291,0.109
		c0.079,0.07,0.13,0.179,0.13,0.324v7.552c0,2.312,0,4.456-0.012,6.446c-0.012,1.978-0.039,3.754-0.093,5.298
		c-0.05,1.56-0.129,2.841-0.242,3.859c-0.085,0.696-0.197,1.33-0.34,1.895c-0.136,0.551-0.333,1.018-0.601,1.368
		c-0.253,0.358-0.619,0.598-1.083,0.693c-0.321,0.073-0.667,0.145-1.039,0.204c-0.372,0.049-0.718,0.082-1.045,0.082
		c-0.21,0-0.347,0.051-0.428,0.135c-0.093,0.083-0.129,0.191-0.129,0.3c0,0.213,0.093,0.358,0.267,0.441
		c0.186,0.097,0.463,0.135,0.847,0.135c0.544,0,1.17-0.013,1.9-0.038c0.724-0.024,1.455-0.046,2.173-0.07
		c0.706-0.026,1.318-0.051,1.832-0.071c0.507-0.024,0.811-0.038,0.916-0.038c0.105,0,0.415,0.014,0.954,0.038
		c0.532,0.021,1.205,0.045,2.03,0.071c0.823,0.024,1.714,0.046,2.673,0.07c0.966,0.025,1.938,0.038,2.903,0.038
		c0.384,0,0.663-0.051,0.849-0.159c0.172-0.096,0.266-0.237,0.266-0.417c0-0.108-0.037-0.217-0.118-0.3
		c-0.093-0.084-0.229-0.135-0.439-0.135c-0.222,0-0.513-0.009-0.873-0.033c-0.372-0.037-0.748-0.075-1.157-0.108
		c-0.396-0.049-0.768-0.096-1.102-0.145c-0.687-0.096-1.221-0.335-1.591-0.693c-0.36-0.351-0.625-0.817-0.787-1.368
		c-0.161-0.564-0.279-1.198-0.34-1.895c-0.111-1.019-0.192-2.3-0.242-3.859c-0.042-1.544-0.081-3.32-0.093-5.298
		c-0.012-1.99-0.012-4.135-0.012-6.446V28.626L283.246,28.626z"/>
	<path fill="#231F20" stroke="#231F20" stroke-width="0.0416" stroke-miterlimit="22.9256" d="M305.726,55.635
		c-0.39,1.033-0.829,1.952-1.312,2.783c-0.489,0.816-1.083,1.49-1.783,2.004c-0.688,0.521-1.553,0.849-2.574,0.981
		c-0.297,0.031-0.619,0.062-1.002,0.08c-0.384,0.03-0.7,0.04-0.96,0.04c-0.168,0-0.315,0.032-0.427,0.093
		c-0.111,0.062-0.18,0.155-0.18,0.275c0,0.187,0.099,0.31,0.315,0.382c0.204,0.08,0.525,0.11,0.966,0.11
		c0.799,0,1.609-0.009,2.432-0.03c0.811-0.019,1.579-0.041,2.296-0.062c0.724-0.018,1.343-0.039,1.85-0.062
		c0.501-0.018,0.867-0.027,1.059-0.027s0.495,0.01,0.91,0.027c0.402,0.023,0.879,0.045,1.399,0.062
		c0.514,0.021,1.033,0.044,1.553,0.062c0.527,0.021,0.991,0.03,1.405,0.03c0.303,0,0.551-0.03,0.731-0.11
		c0.178-0.072,0.283-0.195,0.283-0.382c0-0.12-0.055-0.213-0.16-0.275c-0.111-0.061-0.279-0.093-0.514-0.093h-0.681
		c-0.39,0-0.787-0.059-1.17-0.182c-0.39-0.134-0.718-0.329-0.977-0.594c-0.272-0.255-0.408-0.592-0.416-1
		c0-0.563,0.074-1.188,0.248-1.895c0.154-0.705,0.39-1.441,0.693-2.219l4.054-10.86c0.068-0.154,0.161-0.275,0.26-0.358
		c0.111-0.093,0.247-0.134,0.421-0.134h14.521c0.167,0,0.297,0.031,0.383,0.093c0.093,0.062,0.162,0.155,0.224,0.276l6.287,15.097
		c0.186,0.489,0.224,0.879,0.099,1.153c-0.111,0.276-0.285,0.44-0.507,0.502c-0.136,0.031-0.247,0.08-0.34,0.143
		c-0.087,0.07-0.129,0.163-0.129,0.288c0,0.172,0.178,0.283,0.525,0.324c0.352,0.053,0.854,0.084,1.498,0.103
		c1.183,0.03,2.339,0.052,3.478,0.074c1.152,0.019,2.209,0.028,3.2,0.028c0.978,0.012,1.813,0.021,2.5,0.021c0.688,0,1.17,0,1.43,0
		c0.384,0,0.699-0.03,0.954-0.11c0.247-0.072,0.384-0.195,0.396-0.382c0-0.15-0.069-0.243-0.18-0.294
		c-0.123-0.052-0.291-0.074-0.495-0.074c-0.352,0-0.754-0.019-1.225-0.07c-0.477-0.05-0.96-0.144-1.48-0.294
		c-0.346-0.084-0.742-0.236-1.156-0.453c-0.428-0.226-0.879-0.571-1.362-1.042c-0.483-0.479-1.003-1.146-1.555-2.006
		c-0.55-0.847-1.126-1.952-1.732-3.312c-0.52-1.177-1.126-2.568-1.813-4.171c-0.699-1.606-1.441-3.347-2.24-5.219
		c-0.798-1.868-1.621-3.812-2.47-5.796c-0.854-1.997-1.69-3.98-2.507-5.942c-0.835-1.952-1.622-3.824-2.376-5.604
		c-0.744-1.77-1.417-3.373-2.03-4.815c-0.608-1.433-1.103-2.627-1.504-3.58c-0.41-0.941-0.669-1.562-0.805-1.869
		c-0.267-0.625-0.483-1.104-0.65-1.424c-0.168-0.315-0.328-0.532-0.453-0.635c-0.124-0.111-0.247-0.164-0.383-0.151
		c-0.137-0.013-0.26,0.05-0.384,0.174c-0.124,0.11-0.279,0.347-0.446,0.696c-0.172,0.347-0.383,0.856-0.655,1.522L305.726,55.635
		L305.726,55.635z M315.189,42.076c-0.105,0-0.185-0.031-0.229-0.105c-0.042-0.059-0.042-0.173,0.024-0.324l5.942-16.566
		c0.341-0.923,0.675-0.923,1.016,0l6.418,16.566c0.043,0.12,0.043,0.222,0.024,0.306c-0.037,0.08-0.124,0.124-0.297,0.124H315.189
		L315.189,42.076z"/>
	<path fill="#231F20" stroke="#231F20" stroke-width="0.0416" stroke-miterlimit="22.9256" d="M361.356,58.829
		c4.773-6.939,9.501-13.881,14.206-20.819c4.698-6.938,9.315-13.877,13.87-20.815c0.124-0.173,0.198-0.312,0.216-0.411
		c0.037-0.094,0.044-0.201,0.037-0.312c0.008-0.183-0.085-0.304-0.271-0.384c-0.192-0.068-0.526-0.1-0.984-0.1h-17.485
		c-0.639,0-1.423,0-2.371,0.01c-0.94,0-2.099-0.01-3.491-0.04c-1.385-0.019-3.069-0.072-5.044-0.151
		c-0.55-0.02-0.991-0.069-1.306-0.14c-0.321-0.062-0.576-0.13-0.774-0.192c-0.185-0.05-0.376-0.09-0.55-0.09
		c-0.18-0.009-0.315,0.081-0.408,0.252c-0.087,0.182-0.155,0.473-0.223,0.894c-0.062,0.375-0.143,0.857-0.248,1.457
		c-0.105,0.604-0.21,1.248-0.322,1.944c-0.117,0.693-0.229,1.355-0.328,2.011c-0.105,0.645-0.186,1.207-0.249,1.678
		c-0.073,0.465-0.105,0.773-0.105,0.935c0,0.241,0.018,0.434,0.075,0.576c0.049,0.139,0.142,0.21,0.303,0.21
		c0.154,0.01,0.291-0.062,0.415-0.201c0.117-0.151,0.21-0.442,0.272-0.885c0.062-0.474,0.229-1.006,0.514-1.601
		c0.273-0.591,0.669-1.166,1.17-1.729c0.507-0.563,1.138-1.046,1.887-1.437c0.693-0.344,1.53-0.594,2.521-0.776
		c1.001-0.17,2.066-0.291,3.192-0.35c1.134-0.062,2.242-0.093,3.311-0.081h13.605c-2.903,4.547-5.88,9.08-8.931,13.618
		c-3.039,4.533-6.121,9.069-9.234,13.594c-3.113,4.525-6.227,9.053-9.352,13.577c-0.366,0.523-0.601,0.904-0.719,1.136
		c-0.118,0.233-0.166,0.424-0.154,0.555c0,0.201,0.093,0.34,0.279,0.402c0.192,0.058,0.471,0.09,0.847,0.081
		c5.472,0.009,10.862,0.058,16.167,0.15c5.311,0.09,10.573,0.141,15.796,0.149c0.469,0.013,0.817-0.02,1.045-0.09
		c0.229-0.06,0.396-0.201,0.501-0.435c0.105-0.219,0.216-0.571,0.335-1.045c0.092-0.381,0.217-0.873,0.352-1.459
		c0.136-0.58,0.273-1.207,0.421-1.868c0.137-0.675,0.248-1.318,0.333-1.953c0.093-0.622,0.144-1.185,0.144-1.658
		c0-0.563-0.032-0.935-0.099-1.127c-0.087-0.191-0.21-0.272-0.402-0.26c-0.156,0-0.267,0.09-0.354,0.26
		c-0.081,0.16-0.148,0.402-0.21,0.706c-0.037,0.29-0.124,0.643-0.247,1.045c-0.123,0.402-0.285,0.806-0.452,1.208
		c-0.172,0.402-0.364,0.732-0.55,1.005c-0.315,0.453-0.711,0.864-1.183,1.226c-0.458,0.362-1.065,0.675-1.795,0.936
		c-0.73,0.25-1.666,0.451-2.792,0.586c-1.114,0.139-2.495,0.21-4.134,0.21H361.356L361.356,58.829z"/>
	<path fill="#231F20" stroke="#231F20" stroke-width="0.0416" stroke-miterlimit="22.9256" d="M408.564,44.014
		c0,1.959,0,3.776-0.012,5.45c-0.014,1.686-0.044,3.187-0.087,4.496c-0.044,1.321-0.125,2.408-0.236,3.269
		c-0.075,0.59-0.186,1.13-0.315,1.598c-0.129,0.476-0.315,0.859-0.57,1.166c-0.241,0.303-0.581,0.507-1.015,0.588
		c-0.309,0.062-0.637,0.12-0.984,0.174c-0.352,0.039-0.68,0.07-0.989,0.07c-0.198,0-0.329,0.041-0.402,0.112
		c-0.087,0.07-0.125,0.16-0.125,0.253c0,0.183,0.093,0.304,0.254,0.375c0.174,0.081,0.439,0.111,0.799,0.111
		c0.507-0.01,1.108-0.03,1.789-0.06c0.674-0.043,1.355-0.061,2.024-0.061c0.7-0.032,1.3-0.054,1.783-0.054
		c0.482-0.009,0.767-0.009,0.841-0.009c0.099,0,0.34,0.009,0.736,0.021c0.39,0.01,0.873,0.032,1.443,0.06
		c0.582,0.03,1.181,0.062,1.832,0.103c0.643,0.021,1.282,0.039,1.913,0.071c0.625,0.03,1.195,0.052,1.69,0.079
		c0.501,0.023,0.872,0.032,1.126,0.032c2.24-0.009,4.271-0.264,6.053-0.75c1.795-0.498,3.362-1.179,4.698-2.051
		c1.338-0.864,2.452-1.857,3.336-2.984c0.885-1.129,1.554-2.336,1.993-3.605c0.453-1.277,0.669-2.577,0.669-3.887
		c-0.012-1.423-0.254-2.742-0.712-3.939c-0.471-1.197-1.096-2.284-1.882-3.259c-0.798-0.975-1.69-1.838-2.673-2.578
		c-0.984-0.743-2-1.37-3.046-1.887c-1.045-0.509-2.066-0.905-3.051-1.189c0.78-0.739,1.535-1.501,2.265-2.273
		c0.738-0.771,1.393-1.585,1.981-2.458c0.582-0.86,1.052-1.807,1.405-2.832c0.34-1.023,0.513-2.163,0.525-3.401
		c0.006-0.618-0.099-1.327-0.328-2.119c-0.234-0.793-0.625-1.594-1.194-2.417c-0.557-0.811-1.349-1.562-2.333-2.266
		c-0.997-0.687-2.254-1.247-3.776-1.674c-1.522-0.424-3.36-0.65-5.509-0.659c-1.522,0.009-2.889,0.04-4.116,0.093
		c-1.225,0.049-2.247,0.08-3.045,0.09c-0.099,0-0.384-0.01-0.885-0.031c-0.495-0.019-1.108-0.04-1.838-0.059
		c-0.736-0.021-1.51-0.053-2.333-0.062c-0.824-0.022-1.611-0.031-2.365-0.031c-0.358,0-0.625,0.031-0.799,0.102
		c-0.167,0.081-0.253,0.201-0.253,0.387c0.012,0.121,0.067,0.211,0.166,0.273c0.105,0.062,0.23,0.092,0.36,0.092
		c0.21,0,0.451,0,0.724,0.02c0.285,0.009,0.556,0.03,0.829,0.062c0.273,0.019,0.495,0.062,0.681,0.102
		c0.711,0.13,1.27,0.344,1.666,0.629c0.402,0.275,0.674,0.649,0.854,1.117c0.162,0.467,0.272,1.033,0.303,1.724
		c0.024,0.378,0.044,0.783,0.068,1.21c0.012,0.415,0.031,0.935,0.043,1.522c0,0.598,0.014,1.349,0.014,2.253
		c0.012,0.895,0.012,2.011,0.012,3.339c0,1.331,0,2.947,0,4.834V44.014L408.564,44.014z M413.818,18.309
		c0-0.183,0.049-0.325,0.174-0.427c0.118-0.1,0.315-0.183,0.613-0.242c0.358-0.083,0.73-0.142,1.126-0.194
		c0.396-0.04,0.768-0.071,1.114-0.09c0.366-0.013,0.663-0.021,0.91-0.021c1.609,0.009,2.978,0.325,4.11,0.926
		c1.126,0.597,2.036,1.411,2.749,2.413c0.698,1.006,1.213,2.132,1.528,3.37c0.328,1.229,0.495,2.488,0.483,3.767
		c-0.014,1.26-0.23,2.417-0.669,3.463c-0.427,1.056-0.997,1.95-1.696,2.689c-0.34,0.365-0.669,0.65-0.997,0.863
		c-0.328,0.214-0.712,0.374-1.126,0.477c-0.426,0.102-0.941,0.174-1.566,0.205c-0.613,0.03-1.379,0.039-2.289,0.039
		c-1.201-0.009-2.125-0.039-2.768-0.102c-0.637-0.062-1.053-0.103-1.239-0.143c-0.166-0.049-0.284-0.133-0.352-0.223
		c-0.075-0.09-0.105-0.245-0.105-0.445V18.309L413.818,18.309z M413.818,37.617c0-0.152,0.031-0.264,0.093-0.325
		c0.068-0.071,0.167-0.103,0.297-0.103c0.267,0,0.625,0,1.096,0c0.47,0,0.979,0.013,1.522,0.013c0.538,0.009,1.027,0.019,1.492,0.04
		c0.445,0.019,0.787,0.04,1.015,0.071c0.526,0.05,1.065,0.13,1.622,0.223c0.558,0.103,1.15,0.263,1.771,0.498
		c0.637,0.232,1.318,0.589,2.06,1.043c1.257,0.814,2.297,1.736,3.132,2.751c0.831,1.016,1.479,2.083,1.951,3.179
		c0.477,1.108,0.804,2.194,1.002,3.259c0.198,1.077,0.297,2.07,0.285,2.995c-0.008,1.368-0.216,2.548-0.619,3.542
		c-0.41,0.986-0.948,1.819-1.617,2.478c-0.673,0.66-1.417,1.177-2.228,1.564c-0.823,0.387-1.646,0.658-2.477,0.832
		c-0.823,0.164-1.595,0.231-2.321,0.231c-0.408,0-0.952-0.019-1.633-0.059c-0.675-0.041-1.373-0.134-2.123-0.264
		c-0.744-0.132-1.411-0.327-2.023-0.591c-0.669-0.294-1.152-0.619-1.443-0.976c-0.297-0.352-0.481-0.832-0.568-1.42
		c-0.099-0.587-0.167-1.37-0.223-2.354c-0.014-0.192-0.02-0.619-0.032-1.27c-0.012-0.649-0.012-1.451-0.024-2.405
		c0-0.955,0-1.979-0.006-3.088c0-1.104,0-2.213,0-3.317c0-1.096,0-2.123,0-3.076V37.617L413.818,37.617z"/>
	<path fill="#231F20" stroke="#231F20" stroke-width="0.0416" stroke-miterlimit="22.9256" d="M513.715,24.171
		c0.514,0.562,1.3,1.432,2.371,2.611c1.065,1.167,2.339,2.55,3.807,4.155c1.466,1.598,3.069,3.331,4.795,5.185
		c1.716,1.851,3.491,3.744,5.312,5.682c1.342,1.414,2.723,2.866,4.171,4.364c1.435,1.494,2.846,2.937,4.221,4.339
		c1.375,1.414,2.63,2.683,3.776,3.84c1.132,1.147,2.066,2.08,2.79,2.808c0.731,0.727,1.177,1.167,1.326,1.3
		c1.088,1.077,1.931,1.895,2.538,2.469c0.612,0.573,1.058,0.963,1.349,1.167s0.507,0.307,0.669,0.298
		c0.111,0.009,0.192-0.031,0.267-0.114c0.073-0.081,0.136-0.268,0.178-0.551c0.038-0.278,0.075-0.719,0.094-1.305
		c0.011-0.589,0.017-1.391,0.017-2.394l0.125-36.005c-0.006-1.22,0.042-2.213,0.147-2.959c0.105-0.758,0.322-1.331,0.657-1.72
		c0.322-0.391,0.829-0.657,1.504-0.79c0.378-0.093,0.681-0.143,0.916-0.164c0.241-0.019,0.427-0.03,0.583-0.019
		c0.222,0,0.384-0.043,0.513-0.123c0.111-0.084,0.172-0.187,0.172-0.307c0-0.186-0.104-0.297-0.302-0.359
		c-0.198-0.053-0.477-0.083-0.818-0.071c-0.853,0-1.646,0.019-2.363,0.05c-0.706,0.021-1.318,0.053-1.826,0.084
		c-0.514,0.03-0.873,0.049-1.114,0.049c-0.242,0-0.699-0.019-1.362-0.049c-0.669-0.031-1.447-0.062-2.353-0.084
		c-0.89-0.031-1.819-0.05-2.772-0.05c-0.378-0.012-0.675,0.019-0.904,0.071c-0.222,0.062-0.333,0.174-0.347,0.359
		c0,0.12,0.02,0.223,0.087,0.307c0.068,0.08,0.204,0.123,0.415,0.123c0.173,0,0.428,0.01,0.768,0.019
		c0.334,0.021,0.706,0.053,1.114,0.093c0.402,0.053,0.792,0.112,1.176,0.195c0.643,0.154,1.132,0.431,1.474,0.839
		c0.352,0.411,0.593,1.015,0.73,1.813c0.142,0.798,0.216,1.862,0.229,3.184l0.688,31.211c-0.514-0.52-1.282-1.34-2.309-2.444
		c-1.033-1.108-2.234-2.408-3.608-3.894c-1.373-1.485-2.84-3.061-4.389-4.731c-1.547-1.668-3.107-3.318-4.666-4.965
		c-1.937-2.039-3.819-4.035-5.67-5.981c-1.838-1.956-3.576-3.788-5.199-5.518c-1.622-1.722-3.075-3.269-4.357-4.631
		c-1.274-1.36-2.314-2.466-3.119-3.326c-0.798-0.86-1.3-1.402-1.498-1.618c-0.216-0.214-0.451-0.48-0.724-0.79
		c-0.279-0.297-0.538-0.572-0.811-0.808c-0.26-0.235-0.471-0.358-0.645-0.368c-0.166-0.012-0.302,0.08-0.395,0.267
		c-0.105,0.183-0.18,0.492-0.218,0.94c-0.055,0.452-0.073,1.077-0.073,1.863l-0.062,35.206c0.006,1.853-0.044,3.317-0.137,4.416
		c-0.105,1.096-0.277,1.895-0.562,2.414c-0.267,0.522-0.655,0.851-1.176,0.976c-0.489,0.15-0.964,0.243-1.441,0.296
		c-0.477,0.05-0.841,0.071-1.114,0.071c-0.155,0-0.279,0.032-0.366,0.093c-0.093,0.06-0.129,0.152-0.129,0.275
		c0,0.205,0.093,0.347,0.265,0.409c0.167,0.062,0.416,0.093,0.731,0.084c0.946,0,1.838-0.021,2.667-0.054
		c0.849-0.03,1.554-0.049,2.148-0.081c0.582-0.03,0.971-0.052,1.169-0.052c0.198,0,0.582,0.021,1.176,0.052
		c0.594,0.032,1.344,0.051,2.266,0.081c0.928,0.032,1.985,0.054,3.174,0.054c0.372,0,0.657-0.031,0.842-0.115
		c0.186-0.071,0.279-0.194,0.279-0.378c0-0.123-0.044-0.216-0.137-0.275c-0.081-0.061-0.204-0.093-0.358-0.093
		c-0.198,0-0.458-0.013-0.792-0.03c-0.347-0.01-0.717-0.054-1.127-0.103c-0.401-0.054-0.798-0.133-1.201-0.234
		c-0.562-0.155-1.009-0.462-1.355-0.945c-0.34-0.479-0.6-1.219-0.768-2.21c-0.166-0.984-0.271-2.305-0.315-3.974L513.715,24.171
		L513.715,24.171z"/>
	<path fill="#231F20" stroke="#231F20" stroke-width="0.0416" stroke-miterlimit="22.9256" d="M452,41.934
		c0.014,2.173,0.155,4.085,0.428,5.738c0.29,1.664,0.686,3.106,1.187,4.345c0.501,1.234,1.09,2.31,1.765,3.225
		c0.681,0.919,1.405,1.715,2.197,2.411c1.151,0.997,2.377,1.774,3.671,2.352c1.304,0.579,2.574,1.006,3.811,1.275
		c1.251,0.27,2.371,0.439,3.374,0.517c0.991,0.081,1.783,0.111,2.339,0.103c1.27,0.018,2.625-0.081,4.08-0.301
		c1.447-0.21,2.945-0.637,4.481-1.275c1.547-0.637,3.087-1.592,4.636-2.847c1.268-1.068,2.302-2.293,3.083-3.677
		c0.779-1.374,1.379-2.859,1.782-4.435c0.408-1.571,0.687-3.187,0.823-4.84c0.149-1.653,0.212-3.296,0.206-4.921v-6.396
		c0-1.851,0-3.436,0-4.741c0-1.307,0-2.402,0.006-3.277c0-0.886,0.012-1.625,0.024-2.213c0.012-0.576,0.019-1.083,0.031-1.504
		c0.024-0.408,0.044-0.805,0.062-1.174c0.042-1.036,0.247-1.822,0.588-2.351c0.346-0.539,0.94-0.889,1.781-1.057
		c0.378-0.062,0.687-0.111,0.922-0.139c0.242-0.031,0.471-0.04,0.681-0.04c0.143,0,0.254-0.031,0.354-0.09
		c0.105-0.059,0.16-0.148,0.16-0.269c0-0.181-0.085-0.301-0.247-0.378c-0.167-0.071-0.427-0.103-0.78-0.103
		c-0.489,0-1.015,0.012-1.591,0.031c-0.562,0.009-1.12,0.04-1.652,0.059c-0.532,0.021-0.99,0.04-1.381,0.062
		c-0.384,0.02-0.625,0.028-0.754,0.028c-0.105,0-0.372-0.009-0.811-0.028c-0.44-0.021-0.998-0.04-1.647-0.062
		c-0.649-0.019-1.355-0.05-2.111-0.059c-0.748-0.02-1.486-0.031-2.222-0.031c-0.354,0-0.606,0.031-0.78,0.103
		c-0.16,0.077-0.247,0.197-0.247,0.378c0.012,0.12,0.067,0.21,0.16,0.269c0.111,0.059,0.224,0.09,0.354,0.09
		c0.205,0,0.439,0,0.706,0.019c0.279,0.01,0.544,0.031,0.811,0.062c0.267,0.018,0.489,0.059,0.663,0.098
		c0.693,0.131,1.237,0.338,1.622,0.617c0.396,0.269,0.661,0.638,0.835,1.095c0.162,0.449,0.267,1.019,0.297,1.695
		c0.03,0.369,0.056,0.766,0.062,1.174c0.024,0.421,0.036,0.928,0.042,1.504c0,0.588,0.012,1.327,0.012,2.213
		c0.012,0.875,0.012,1.971,0.012,3.277c0,1.306,0,2.891,0,4.741v7.47c0.006,2.055-0.099,3.986-0.31,5.778
		c-0.216,1.795-0.588,3.438-1.132,4.924c-0.544,1.492-1.306,2.807-2.272,3.943c-0.78,0.865-1.702,1.615-2.766,2.262
		c-1.071,0.637-2.222,1.137-3.46,1.495c-1.238,0.359-2.519,0.549-3.831,0.549c-1.207,0.009-2.357-0.072-3.441-0.239
		c-1.065-0.171-2.123-0.499-3.138-0.979c-1.022-0.476-2.062-1.163-3.095-2.07c-0.693-0.609-1.338-1.314-1.912-2.132
		c-0.588-0.817-1.09-1.795-1.522-2.941c-0.428-1.144-0.774-2.51-1.01-4.103c-0.229-1.585-0.358-3.448-0.358-5.59v-8.367
		c0-1.851,0-3.436,0-4.741c0-1.307,0-2.402,0.012-3.277c0-0.886,0.006-1.625,0.019-2.213c0-0.576,0.018-1.083,0.032-1.504
		c0.024-0.408,0.043-0.805,0.067-1.174c0.038-1.046,0.241-1.844,0.582-2.4c0.346-0.557,0.94-0.897,1.783-1.007
		c0.378-0.062,0.688-0.111,0.922-0.139c0.241-0.031,0.471-0.04,0.681-0.04c0.142,0,0.259-0.031,0.352-0.09
		c0.105-0.059,0.162-0.148,0.162-0.269c0-0.181-0.087-0.301-0.249-0.378c-0.166-0.071-0.426-0.103-0.778-0.103
		c-0.489,0-1.065,0.012-1.714,0.031c-0.657,0.009-1.306,0.04-1.957,0.059c-0.649,0.021-1.219,0.04-1.708,0.062
		c-0.483,0.02-0.798,0.028-0.96,0.028c-0.16,0-0.481-0.009-0.995-0.028c-0.501-0.021-1.109-0.04-1.827-0.062
		c-0.711-0.019-1.472-0.05-2.258-0.059c-0.792-0.02-1.548-0.031-2.284-0.031c-0.352,0-0.613,0.031-0.78,0.103
		c-0.16,0.077-0.247,0.197-0.247,0.378c0.012,0.12,0.061,0.21,0.16,0.269c0.105,0.059,0.224,0.09,0.354,0.09
		c0.204,0,0.439,0,0.706,0.019c0.279,0.01,0.544,0.031,0.811,0.062c0.267,0.018,0.477,0.059,0.663,0.098
		c0.693,0.131,1.237,0.338,1.621,0.617c0.383,0.269,0.662,0.638,0.829,1.095c0.162,0.449,0.273,1.019,0.303,1.695
		c0.019,0.369,0.044,0.766,0.062,1.174c0.012,0.421,0.031,0.928,0.031,1.504c0.012,0.588,0.024,1.327,0.024,2.213
		C452,26.063,452,27.159,452,28.466c0,1.306,0,2.891,0,4.741V41.934L452,41.934z"/>
	
		<path fill-rule="evenodd" clip-rule="evenodd" fill="#231F20" stroke="#231F20" stroke-width="0.0416" stroke-miterlimit="22.9256" d="
		M467.629,9.411L478.931,2l2.871,4.75C481.802,6.75,476.022,5.939,467.629,9.411L467.629,9.411z"/>
</g>
</svg>
