<?xml version="1.0" encoding="utf-8"?>
<!-- Generator: Adobe Illustrator 16.0.0, SVG Export Plug-In . SVG Version: 6.00 Build 0)  -->
<!DOCTYPE svg PUBLIC "-//W3C//DTD SVG 1.1//EN" "http://www.w3.org/Graphics/SVG/1.1/DTD/svg11.dtd">
<svg version="1.1" id="Layer_1" xmlns="http://www.w3.org/2000/svg" xmlns:xlink="http://www.w3.org/1999/xlink" x="0px" y="0px"
	 width="566.733px" height="82.877px" viewBox="0 0 566.733 82.877" enable-background="new 0 0 566.733 82.877"
	 xml:space="preserve">
<g>
	<g>
		<path fill="#111111" d="M134.62,12.923c0.129-1.865,0.785-3.911,1.413-5.039c0.305,0.609,1.028,1.413,1.057,2.091l0,0
			c0.418-0.34,2.912-0.371,3.468-0.079l0,0c-0.014-0.828,0.642-1.677,0.885-2.234c0.556,0.357,1.385,2.891,1.213,6.802
			c-0.057,1.295-1.256,4.168-2.503,4.997c-0.692,0.459-1.561-0.533-2.398-0.686c-0.343-0.076-1.473-0.621-1.815-0.735
			C135.674,17.965,134.449,15.393,134.62,12.923z"/>
	</g>
	<g>
		<path fill="#FFFFFF" d="M136.861,11.401c-0.104-0.057-0.324,0.057-0.438,0.114c-0.247,0.124-0.438,0.352-0.59,0.581
			c-0.295,0.447-0.399,0.875-0.267,1.38c0.105,0.428,0.409,0.856,0.847,0.961c0.542,0.124,1.113-0.229,1.456-0.628
			c0.342-0.409,0.2-1.094,0.038-1.542c-0.086-0.248-0.257-0.438-0.457-0.6c-0.181-0.162-0.323-0.244-0.533-0.282"/>
	</g>
	<g>
		<path fill="#FFFFFF" d="M139.925,11.515c-0.209-0.066-0.666,0.162-0.818,0.295c-0.228,0.19-0.325,0.381-0.477,0.638
			c-0.276,0.457-0.113,1.228,0.201,1.637c0.305,0.4,0.847,0.466,1.275,0.267c0.542-0.238,0.904-0.638,0.952-1.256
			c0.019-0.342-0.114-0.856-0.324-1.132c-0.143-0.181-0.497-0.48-0.961-0.476"/>
	</g>
	<ellipse cx="139.488" cy="12.995" rx="0.2" ry="0.214"/>
	<ellipse cx="137.204" cy="12.995" rx="0.2" ry="0.214"/>
</g>
<g>
	<g>
		<path fill="#111111" d="M175.028,27.725c0.695-1.736,1.946-3.482,2.889-4.363c0.104,0.673,0.545,1.66,0.365,2.314l0,0
			c0.502-0.195,2.885,0.539,3.325,0.988l0,0c0.24-0.792,1.125-1.4,1.527-1.855c0.42,0.51,0.432,3.176-0.929,6.847
			c-0.451,1.215-2.473,3.583-3.914,3.989c-0.8,0.225-1.323-0.986-2.073-1.388c-0.303-0.177-1.211-1.042-1.503-1.256
			C174.486,32.847,174.108,30.023,175.028,27.725z"/>
	</g>
	<g>
		<path fill="#FFFFFF" d="M177.628,26.962c-0.082-0.086-0.326-0.045-0.452-0.026c-0.273,0.042-0.524,0.201-0.739,0.372
			c-0.417,0.335-0.648,0.711-0.677,1.232c-0.031,0.439,0.127,0.94,0.512,1.174c0.479,0.284,1.13,0.124,1.579-0.152
			c0.451-0.284,0.525-0.98,0.508-1.456c-0.006-0.262-0.11-0.496-0.251-0.711c-0.123-0.209-0.233-0.331-0.421-0.432"/>
	</g>
	<g>
		<path fill="#FFFFFF" d="M180.509,28.01c-0.178-0.127-0.683-0.05-0.869,0.03c-0.275,0.111-0.426,0.263-0.649,0.461
			c-0.403,0.35-0.484,1.134-0.311,1.619c0.167,0.474,0.664,0.704,1.132,0.645c0.589-0.061,1.056-0.33,1.291-0.904
			c0.123-0.32,0.154-0.851,0.039-1.177c-0.081-0.216-0.326-0.61-0.769-0.747"/>
	</g>
	<ellipse transform="matrix(0.9522 0.3056 -0.3056 0.9522 17.5411 -53.4924)" cx="179.639" cy="29.285" rx="0.2" ry="0.214"/>
	<ellipse transform="matrix(0.9519 0.3063 -0.3063 0.9519 17.2875 -52.988)" cx="177.465" cy="28.585" rx="0.2" ry="0.214"/>
</g>
<g>
	<g>
		<path fill="#111111" d="M340.028,51.725c0.695-1.736,1.946-3.482,2.889-4.363c0.104,0.673,0.545,1.66,0.365,2.314l0,0
			c0.502-0.195,2.885,0.539,3.325,0.988l0,0c0.24-0.792,1.125-1.4,1.527-1.855c0.42,0.51,0.432,3.176-0.929,6.847
			c-0.451,1.215-2.473,3.583-3.914,3.989c-0.8,0.225-1.323-0.986-2.073-1.388c-0.303-0.177-1.211-1.042-1.503-1.256
			C339.486,56.847,339.108,54.023,340.028,51.725z"/>
	</g>
	<g>
		<path fill="#FFFFFF" d="M342.628,50.962c-0.082-0.086-0.326-0.045-0.452-0.026c-0.273,0.042-0.524,0.201-0.739,0.372
			c-0.417,0.335-0.648,0.711-0.677,1.232c-0.031,0.439,0.127,0.94,0.512,1.174c0.479,0.284,1.13,0.124,1.579-0.152
			c0.451-0.284,0.525-0.98,0.508-1.456c-0.006-0.262-0.11-0.496-0.251-0.711c-0.123-0.209-0.233-0.331-0.421-0.432"/>
	</g>
	<g>
		<path fill="#FFFFFF" d="M345.509,52.01c-0.178-0.127-0.683-0.05-0.869,0.03c-0.275,0.111-0.426,0.263-0.649,0.461
			c-0.403,0.35-0.484,1.134-0.311,1.619c0.167,0.474,0.664,0.704,1.132,0.645c0.589-0.061,1.056-0.33,1.291-0.904
			c0.123-0.32,0.154-0.851,0.039-1.177c-0.081-0.216-0.326-0.61-0.769-0.747"/>
	</g>
	<ellipse transform="matrix(0.9522 0.3056 -0.3056 0.9522 32.7671 -102.7641)" cx="344.639" cy="53.285" rx="0.2" ry="0.214"/>
	<ellipse transform="matrix(0.9519 0.3063 -0.3063 0.9519 32.5714 -102.3779)" cx="342.465" cy="52.585" rx="0.2" ry="0.214"/>
</g>
<g>
	<g>
		<path fill="#111111" d="M459.028,48.725c0.695-1.736,1.946-3.482,2.889-4.363c0.104,0.673,0.545,1.66,0.365,2.314l0,0
			c0.502-0.195,2.885,0.539,3.325,0.988l0,0c0.24-0.792,1.125-1.4,1.527-1.855c0.42,0.51,0.432,3.176-0.929,6.847
			c-0.451,1.215-2.473,3.583-3.914,3.989c-0.8,0.225-1.323-0.986-2.073-1.388c-0.303-0.177-1.211-1.042-1.503-1.256
			C458.486,53.847,458.108,51.023,459.028,48.725z"/>
	</g>
	<g>
		<path fill="#FFFFFF" d="M461.628,47.962c-0.082-0.086-0.326-0.045-0.452-0.026c-0.273,0.042-0.524,0.201-0.739,0.372
			c-0.417,0.335-0.648,0.711-0.677,1.232c-0.031,0.439,0.127,0.94,0.512,1.174c0.479,0.284,1.13,0.124,1.579-0.152
			c0.451-0.284,0.525-0.98,0.508-1.456c-0.006-0.262-0.11-0.496-0.251-0.711c-0.123-0.209-0.233-0.331-0.421-0.432"/>
	</g>
	<g>
		<path fill="#FFFFFF" d="M464.509,49.01c-0.178-0.127-0.683-0.05-0.869,0.03c-0.275,0.111-0.426,0.263-0.649,0.461
			c-0.403,0.35-0.484,1.134-0.311,1.619c0.167,0.474,0.664,0.704,1.132,0.645c0.589-0.061,1.056-0.33,1.291-0.904
			c0.123-0.32,0.154-0.851,0.039-1.177c-0.081-0.216-0.326-0.61-0.769-0.747"/>
	</g>
	<ellipse transform="matrix(0.9522 0.3056 -0.3056 0.9522 37.5423 -139.2709)" cx="463.639" cy="50.285" rx="0.2" ry="0.214"/>
	<ellipse transform="matrix(0.9519 0.3063 -0.3063 0.9519 37.3731 -138.9748)" cx="461.465" cy="49.585" rx="0.2" ry="0.214"/>
</g>
<g>
	<g>
		<path fill="#111111" d="M415.562,31.476c-0.125-1.866,0.248-3.982,0.716-5.184c0.385,0.562,1.21,1.261,1.331,1.929l0,0
			c0.368-0.394,2.834-0.763,3.425-0.548l0,0c-0.126-0.818,0.409-1.749,0.574-2.334c0.6,0.278,1.764,2.677,2.125,6.575
			c0.12,1.291-0.68,4.3-1.802,5.29c-0.624,0.549-1.619-0.316-2.469-0.354c-0.35-0.029-1.543-0.416-1.899-0.482
			C417.291,36.328,415.728,33.946,415.562,31.476z"/>
	</g>
	<g>
		<path fill="#FFFFFF" d="M417.577,29.663c-0.111-0.042-0.313,0.101-0.419,0.172c-0.228,0.156-0.385,0.408-0.505,0.655
			c-0.231,0.483-0.277,0.922-0.077,1.404c0.162,0.41,0.522,0.792,0.97,0.837c0.554,0.049,1.072-0.377,1.357-0.82
			c0.284-0.451,0.049-1.111-0.172-1.532c-0.119-0.233-0.314-0.399-0.534-0.533c-0.201-0.135-0.354-0.197-0.566-0.207"/>
	</g>
	<g>
		<path fill="#FFFFFF" d="M420.627,29.361c-0.216-0.038-0.638,0.25-0.771,0.403c-0.2,0.219-0.27,0.421-0.386,0.696
			c-0.212,0.49,0.054,1.231,0.421,1.594c0.356,0.355,0.903,0.347,1.3,0.092c0.505-0.31,0.809-0.754,0.772-1.374
			c-0.028-0.342-0.229-0.833-0.475-1.079c-0.166-0.16-0.557-0.409-1.017-0.34"/>
	</g>
	<ellipse transform="matrix(0.9906 -0.137 0.137 0.9906 -0.2684 57.8719)" cx="420.395" cy="30.886" rx="0.2" ry="0.214"/>
	<ellipse transform="matrix(0.9908 -0.1356 0.1356 0.9908 -0.3681 56.9885)" cx="418.132" cy="31.196" rx="0.2" ry="0.214"/>
</g>
<g>
	<g>
		<path fill="#111111" d="M536.867,39.069c0.53-1.793,1.614-3.648,2.471-4.613c0.166,0.661,0.697,1.603,0.579,2.271l0,0
			c0.481-0.242,2.922,0.268,3.402,0.675l0,0c0.166-0.812,0.99-1.499,1.348-1.99c0.466,0.469,0.726,3.123-0.289,6.904
			c-0.336,1.252-2.13,3.796-3.526,4.335c-0.776,0.299-1.409-0.858-2.192-1.189c-0.318-0.148-1.303-0.926-1.613-1.111
			C536.804,44.219,536.165,41.443,536.867,39.069z"/>
	</g>
	<g>
		<path fill="#FFFFFF" d="M539.385,38.068c-0.09-0.078-0.328-0.014-0.453,0.016c-0.268,0.068-0.503,0.25-0.702,0.439
			c-0.384,0.373-0.579,0.769-0.56,1.29c0.01,0.44,0.215,0.924,0.62,1.122c0.503,0.238,1.136,0.018,1.558-0.298
			c0.423-0.325,0.432-1.025,0.371-1.496c-0.03-0.26-0.156-0.484-0.315-0.685c-0.142-0.197-0.263-0.308-0.459-0.391"/>
	</g>
	<g>
		<path fill="#FFFFFF" d="M542.351,38.843c-0.189-0.11-0.685,0.013-0.862,0.111c-0.264,0.136-0.399,0.301-0.604,0.519
			c-0.369,0.386-0.376,1.174-0.158,1.641c0.211,0.457,0.726,0.639,1.187,0.537c0.582-0.115,1.021-0.427,1.201-1.02
			c0.093-0.331,0.074-0.861-0.071-1.176c-0.1-0.208-0.381-0.577-0.835-0.672"/>
	</g>
	<ellipse transform="matrix(0.9766 0.2151 -0.2151 0.9766 21.3263 -115.5679)" cx="541.604" cy="40.193" rx="0.2" ry="0.214"/>
	<ellipse transform="matrix(0.9763 0.2163 -0.2163 0.9763 21.3528 -115.7181)" cx="539.374" cy="39.698" rx="0.2" ry="0.214"/>
</g>
<g>
	<g>
		<path fill="#111111" d="M121.664,54.923c-0.129-1.865-0.785-3.911-1.413-5.039c-0.305,0.609-1.028,1.413-1.057,2.091l0,0
			c-0.418-0.34-2.912-0.371-3.468-0.079l0,0c0.014-0.828-0.642-1.677-0.885-2.234c-0.556,0.357-1.385,2.891-1.213,6.802
			c0.057,1.295,1.256,4.168,2.503,4.997c0.692,0.459,1.561-0.533,2.398-0.686c0.343-0.076,1.473-0.621,1.815-0.735
			C120.61,59.965,121.835,57.393,121.664,54.923z"/>
	</g>
	<g>
		<path fill="#FFFFFF" d="M119.423,53.401c0.104-0.057,0.324,0.057,0.438,0.114c0.247,0.124,0.438,0.352,0.59,0.581
			c0.295,0.447,0.399,0.875,0.267,1.38c-0.105,0.428-0.409,0.856-0.847,0.961c-0.542,0.124-1.113-0.229-1.456-0.628
			c-0.342-0.409-0.2-1.094-0.038-1.542c0.086-0.248,0.257-0.438,0.457-0.6c0.181-0.162,0.323-0.244,0.533-0.282"/>
	</g>
	<g>
		<path fill="#FFFFFF" d="M116.359,53.515c0.209-0.066,0.666,0.162,0.818,0.295c0.228,0.19,0.325,0.381,0.477,0.638
			c0.276,0.457,0.113,1.228-0.201,1.637c-0.305,0.4-0.847,0.466-1.275,0.267c-0.542-0.238-0.904-0.638-0.952-1.256
			c-0.019-0.342,0.114-0.856,0.324-1.132c0.143-0.181,0.497-0.48,0.961-0.476"/>
	</g>
	<ellipse cx="116.796" cy="54.995" rx="0.2" ry="0.214"/>
	<ellipse cx="119.08" cy="54.995" rx="0.2" ry="0.214"/>
</g>
<g>
	<path stroke="#231F20" stroke-width="0.0416" stroke-miterlimit="22.9256" d="M26.658,28.564c0-2.194,0-4.069,0-5.617
		c0-1.543,0-2.843,0.012-3.88c0-1.05,0.012-1.926,0.024-2.621c0-0.685,0.026-1.285,0.032-1.78c0.024-0.486,0.048-0.956,0.073-1.393
		c0.044-1.229,0.267-2.173,0.639-2.822c0.37-0.635,1.021-1.049,1.937-1.213c0.402-0.071,0.742-0.131,0.997-0.168
		c0.267-0.033,0.507-0.046,0.742-0.046c0.137,0,0.267-0.034,0.384-0.104c0.099-0.072,0.162-0.177,0.174-0.319
		c0-0.214-0.093-0.356-0.267-0.449c-0.186-0.083-0.463-0.117-0.848-0.117c-0.532,0-1.17,0.013-1.9,0.034
		c-0.724,0.013-1.443,0.047-2.161,0.071c-0.718,0.025-1.336,0.046-1.844,0.071c-0.507,0.024-0.811,0.033-0.916,0.033
		c-0.105,0-0.408-0.009-0.94-0.033c-0.521-0.025-1.17-0.046-1.951-0.071c-0.774-0.024-1.597-0.059-2.47-0.071
		c-0.865-0.021-1.702-0.034-2.507-0.034c-0.376,0-0.655,0.034-0.841,0.117c-0.174,0.093-0.273,0.235-0.273,0.449
		c0.014,0.143,0.075,0.247,0.18,0.319c0.111,0.07,0.243,0.104,0.378,0.104c0.223,0,0.477,0,0.768,0.024
		c0.303,0.014,0.593,0.034,0.884,0.072c0.285,0.021,0.521,0.07,0.718,0.117c0.756,0.151,1.344,0.399,1.765,0.729
		c0.427,0.319,0.718,0.756,0.904,1.301c0.174,0.529,0.291,1.203,0.321,2.005c0.024,0.437,0.05,0.906,0.069,1.393
		c0.012,0.495,0.037,1.096,0.049,1.78c0,0.695,0.014,1.571,0.014,2.621c0.012,1.037,0.012,2.337,0.012,3.88c0,1.548,0,3.423,0,5.617
		v20.463c0,3.032-0.062,5.697-0.174,7.986c-0.129,2.303-0.315,4.309-0.558,6.008c-0.247,1.711-0.544,3.185-0.916,4.449
		c-0.358,1.252-0.805,2.359-1.288,3.305c-0.501,0.955-1.058,1.828-1.682,2.609c-0.626,0.787-1.312,1.566-2.068,2.332
		c-0.322,0.33-0.706,0.676-1.132,1.039c-0.447,0.365-0.874,0.686-1.3,0.945c-0.315,0.201-0.558,0.377-0.718,0.531
		c-0.174,0.15-0.261,0.328-0.261,0.529c0.012,0.143,0.062,0.248,0.167,0.318c0.099,0.072,0.204,0.107,0.322,0.107
		c0.105,0,0.198-0.023,0.267-0.049c0.081-0.02,0.154-0.059,0.223-0.092c0.358-0.189,0.786-0.449,1.275-0.781
		c0.494-0.33,0.971-0.658,1.436-0.99c1.882-1.32,3.479-2.582,4.815-3.787c1.336-1.203,2.444-2.383,3.317-3.553
		c0.865-1.156,1.553-2.324,2.03-3.49c0.415-1.004,0.756-1.996,1.021-3.013c0.267-1.001,0.465-2.075,0.612-3.208
		c0.149-1.146,0.254-2.407,0.317-3.812c0.067-1.391,0.105-2.985,0.124-4.769c0.012-1.782,0.012-3.81,0.012-6.087V28.564
		L26.658,28.564z"/>
	<path stroke="#231F20" stroke-width="0.0416" stroke-miterlimit="22.9256" d="M49.256,42.416c0.012,2.254,0.149,4.236,0.42,5.952
		c0.285,1.727,0.675,3.225,1.17,4.506c0.495,1.281,1.071,2.398,1.732,3.349c0.675,0.949,1.393,1.775,2.167,2.501
		c1.138,1.033,2.345,1.838,3.621,2.438c1.288,0.601,2.537,1.042,3.756,1.321c1.233,0.282,2.333,0.455,3.324,0.538
		c0.978,0.084,1.758,0.115,2.302,0.106c1.257,0.017,2.594-0.084,4.023-0.314c1.431-0.216,2.903-0.658,4.419-1.32
		c1.524-0.662,3.04-1.652,4.562-2.955c1.255-1.105,2.278-2.378,3.044-3.813c0.768-1.427,1.356-2.969,1.759-4.599
		c0.396-1.634,0.667-3.309,0.805-5.023c0.147-1.715,0.21-3.419,0.204-5.106v-6.632c0-1.922,0-3.565,0-4.92
		c0-1.353,0-2.488,0.006-3.398c0-0.92,0.012-1.687,0.024-2.297c0.012-0.597,0.019-1.123,0.031-1.56
		c0.02-0.423,0.044-0.835,0.062-1.219c0.042-1.074,0.241-1.891,0.582-2.438c0.333-0.558,0.922-0.919,1.757-1.096
		c0.366-0.062,0.669-0.114,0.904-0.146c0.242-0.031,0.458-0.04,0.669-0.04c0.142,0,0.253-0.031,0.352-0.093
		c0.106-0.062,0.155-0.155,0.155-0.279c0-0.185-0.087-0.31-0.241-0.393c-0.167-0.071-0.422-0.103-0.768-0.103
		c-0.483,0-1.002,0.01-1.566,0.031c-0.556,0.009-1.108,0.04-1.634,0.062c-0.525,0.02-0.978,0.041-1.354,0.062
		c-0.378,0.019-0.62,0.03-0.75,0.03c-0.105,0-0.364-0.012-0.798-0.03c-0.433-0.021-0.979-0.043-1.622-0.062
		c-0.637-0.021-1.336-0.053-2.08-0.062c-0.736-0.021-1.466-0.031-2.191-0.031c-0.346,0-0.601,0.031-0.767,0.103
		c-0.155,0.083-0.242,0.208-0.242,0.393c0.014,0.124,0.062,0.218,0.155,0.279c0.105,0.062,0.223,0.093,0.346,0.093
		c0.205,0,0.435,0,0.7,0.021c0.273,0.009,0.533,0.031,0.798,0.062c0.261,0.02,0.483,0.062,0.651,0.103
		c0.687,0.136,1.219,0.353,1.603,0.641c0.39,0.278,0.649,0.663,0.817,1.139c0.16,0.464,0.267,1.053,0.297,1.755
		c0.031,0.384,0.049,0.796,0.061,1.219c0.02,0.437,0.032,0.963,0.044,1.56c0,0.61,0.012,1.377,0.012,2.297
		c0.006,0.91,0.006,2.046,0.006,3.398c0,1.354,0,2.998,0,4.92v7.749c0.012,2.13-0.093,4.135-0.303,5.995s-0.582,3.565-1.114,5.104
		c-0.538,1.55-1.288,2.915-2.24,4.095c-0.768,0.896-1.678,1.674-2.731,2.346c-1.051,0.658-2.184,1.177-3.404,1.547
		c-1.225,0.375-2.48,0.569-3.78,0.569c-1.189,0.013-2.321-0.071-3.386-0.246c-1.051-0.177-2.092-0.519-3.095-1.014
		c-1.009-0.498-2.03-1.21-3.051-2.15c-0.681-0.628-1.312-1.362-1.882-2.21c-0.576-0.847-1.07-1.86-1.504-3.048
		c-0.42-1.188-0.754-2.605-0.991-4.259c-0.229-1.644-0.358-3.574-0.358-5.797v-8.681c0-1.922,0-3.565,0-4.92
		c0-1.353,0-2.488,0.012-3.398c0-0.92,0.012-1.687,0.024-2.297c0-0.597,0.018-1.123,0.03-1.56c0.02-0.423,0.038-0.835,0.062-1.219
		c0.043-1.083,0.241-1.912,0.576-2.491c0.34-0.575,0.928-0.929,1.757-1.043c0.372-0.062,0.675-0.114,0.904-0.146
		c0.242-0.031,0.465-0.04,0.675-0.04c0.135,0,0.253-0.031,0.347-0.093c0.105-0.062,0.16-0.155,0.16-0.279
		c0-0.185-0.087-0.31-0.241-0.393c-0.174-0.071-0.422-0.103-0.768-0.103c-0.489,0-1.052,0.01-1.696,0.031
		c-0.643,0.009-1.281,0.04-1.924,0.062c-0.645,0.02-1.201,0.041-1.684,0.062c-0.477,0.019-0.792,0.03-0.946,0.03
		c-0.162,0-0.477-0.012-0.979-0.03c-0.495-0.021-1.096-0.043-1.801-0.062c-0.706-0.021-1.448-0.053-2.228-0.062
		c-0.78-0.021-1.528-0.031-2.254-0.031c-0.346,0-0.601,0.031-0.767,0.103c-0.162,0.083-0.242,0.208-0.242,0.393
		c0.006,0.124,0.062,0.218,0.155,0.279c0.105,0.062,0.223,0.093,0.346,0.093c0.204,0,0.434,0,0.699,0.021
		c0.273,0.009,0.534,0.031,0.799,0.062c0.26,0.02,0.471,0.062,0.65,0.103c0.688,0.136,1.219,0.353,1.603,0.641
		c0.376,0.278,0.649,0.663,0.817,1.139c0.162,0.464,0.267,1.053,0.297,1.755c0.018,0.384,0.037,0.796,0.061,1.219
		c0.014,0.437,0.032,0.963,0.032,1.56c0.012,0.61,0.019,1.377,0.019,2.297c0.012,0.91,0.012,2.046,0.012,3.398
		c0,1.354,0,2.998,0,4.92V42.416L49.256,42.416z"/>
	<path stroke="#231F20" stroke-width="0.0416" stroke-miterlimit="22.9256" d="M108.452,44.348c0,1.983,0,3.822-0.012,5.527
		c-0.006,1.693-0.038,3.212-0.081,4.538c-0.044,1.336-0.117,2.435-0.222,3.308c-0.075,0.594-0.18,1.139-0.31,1.622
		c-0.125,0.473-0.303,0.871-0.545,1.172c-0.235,0.306-0.564,0.511-0.984,0.594c-0.297,0.062-0.613,0.125-0.946,0.174
		c-0.34,0.043-0.657,0.075-0.954,0.075c-0.184,0-0.315,0.039-0.39,0.111c-0.085,0.071-0.117,0.164-0.117,0.256
		c0,0.186,0.087,0.31,0.249,0.381c0.166,0.081,0.42,0.111,0.766,0.111c0.489-0.01,1.065-0.03,1.722-0.062
		c0.655-0.041,1.306-0.059,1.949-0.059c0.681-0.031,1.257-0.053,1.72-0.053c0.471-0.01,0.744-0.01,0.817-0.01
		c0.119,0,0.408,0.02,0.885,0.05c0.477,0.04,1.089,0.084,1.838,0.145c0.75,0.051,1.591,0.113,2.533,0.174
		c0.916,0.062,1.88,0.125,2.891,0.174c1.001,0.062,2.016,0.105,3.021,0.145c1.015,0.032,1.973,0.054,2.889,0.054
		c2.692-0.021,5.076-0.258,7.156-0.721c2.091-0.462,3.904-1.057,5.458-1.786c1.553-0.729,2.859-1.489,3.948-2.3
		c1.078-0.813,1.951-1.572,2.626-2.281c0.896-0.913,1.751-1.962,2.567-3.153c0.811-1.2,1.541-2.524,2.186-3.983
		c0.643-1.469,1.15-3.052,1.516-4.766c0.372-1.705,0.564-3.534,0.568-5.475c-0.018-2.441-0.314-4.642-0.884-6.601
		c-0.582-1.963-1.332-3.698-2.26-5.196c-0.916-1.501-1.919-2.785-2.996-3.854c-1.522-1.51-3.168-2.72-4.927-3.645
		c-1.775-0.923-3.588-1.621-5.458-2.104c-1.87-0.474-3.713-0.811-5.533-0.987c-1.813-0.173-3.534-0.267-5.15-0.287
		c-1.615-0.011-3.057-0.011-4.326,0c-0.958,0-1.9,0.012-2.829,0.03c-0.928,0.012-1.795,0.043-2.586,0.062
		c-0.792,0.022-1.467,0.043-2.013,0.062c-0.55,0.021-0.922,0.03-1.12,0.03c-0.099,0-0.371-0.009-0.854-0.03
		c-0.477-0.02-1.071-0.04-1.777-0.062c-0.706-0.019-1.454-0.05-2.246-0.062c-0.792-0.019-1.554-0.03-2.278-0.03
		c-0.352,0-0.606,0.03-0.774,0.104c-0.154,0.08-0.241,0.204-0.241,0.39c0.012,0.124,0.062,0.213,0.154,0.275
		c0.111,0.062,0.224,0.094,0.354,0.094c0.198,0,0.433,0,0.693,0.021c0.279,0.01,0.538,0.031,0.805,0.062
		c0.267,0.019,0.477,0.062,0.655,0.102c0.681,0.134,1.221,0.35,1.603,0.638c0.39,0.276,0.657,0.656,0.824,1.13
		c0.154,0.461,0.259,1.046,0.297,1.746c0.018,0.38,0.037,0.788,0.061,1.209c0.012,0.434,0.03,0.956,0.044,1.551
		c0,0.606,0.006,1.368,0.006,2.281c0.012,0.903,0.012,2.032,0.012,3.379s0,2.978,0,4.887V44.348L108.452,44.348z M113.774,32.52
		c0-1.2,0-2.454,0-3.76c0-1.303,0-2.565,0.006-3.798c0-1.222,0.012-2.333,0.024-3.298c0-0.976,0.019-1.733,0.031-2.27
		c0-0.337,0.05-0.597,0.167-0.779c0.117-0.186,0.303-0.341,0.594-0.452c0.136-0.062,0.354-0.124,0.675-0.177
		c0.315-0.049,0.68-0.093,1.096-0.133c0.415-0.04,0.823-0.071,1.237-0.093c0.408-0.019,0.78-0.031,1.108-0.031
		c1.888-0.009,3.744,0.062,5.583,0.227c1.825,0.167,3.621,0.495,5.359,0.966c1.751,0.482,3.441,1.183,5.076,2.107
		c1.634,0.934,3.199,2.145,4.685,3.664c0.669,0.659,1.344,1.479,2.049,2.445c0.706,0.965,1.361,2.095,1.961,3.379
		c0.613,1.284,1.108,2.729,1.492,4.342c0.378,1.625,0.57,3.41,0.582,5.359c0,1.431-0.111,2.848-0.328,4.253
		c-0.224,1.408-0.539,2.764-0.972,4.057c-0.42,1.303-0.954,2.495-1.584,3.584c-0.631,1.1-1.361,2.046-2.186,2.835
		c-1.255,1.213-2.667,2.249-4.251,3.102c-1.597,0.854-3.293,1.501-5.119,1.952c-1.826,0.452-3.726,0.678-5.701,0.678
		c-1.856,0-3.429-0.074-4.716-0.216c-1.288-0.146-2.345-0.34-3.156-0.576c-0.823-0.234-1.461-0.505-1.912-0.789
		c-0.453-0.301-0.78-0.589-0.979-0.886c-0.174-0.244-0.297-0.638-0.396-1.169c-0.093-0.546-0.167-1.129-0.21-1.768
		c-0.042-0.638-0.075-1.211-0.093-1.745c-0.019-0.298-0.031-0.852-0.043-1.663c-0.02-0.813-0.032-1.81-0.044-3.01
		c-0.006-1.201-0.019-2.535-0.031-4.015c-0.006-1.479-0.006-3.039-0.006-4.683V32.52L113.774,32.52z"/>
	<path stroke="#231F20" stroke-width="0.0416" stroke-miterlimit="22.9256" d="M177.228,51.72c0,0.33,0,0.805-0.012,1.426
		c0,0.622-0.018,1.334-0.044,2.127c-0.036,0.795-0.079,1.615-0.147,2.47c-0.062,0.886-0.267,1.628-0.606,2.219
		c-0.348,0.592-0.861,0.962-1.555,1.093c-0.321,0.062-0.673,0.12-1.045,0.172c-0.372,0.039-0.718,0.069-1.039,0.069
		c-0.212,0-0.348,0.041-0.434,0.111c-0.093,0.071-0.124,0.161-0.124,0.251c0,0.18,0.093,0.301,0.267,0.37
		c0.186,0.081,0.463,0.113,0.847,0.113c0.545,0,1.17-0.013,1.9-0.032c0.718-0.021,1.448-0.04,2.161-0.058
		c0.718-0.023,1.331-0.041,1.844-0.062c0.508-0.019,0.811-0.03,0.916-0.03c0.099,0,0.415,0.012,0.948,0.03
		c0.532,0.021,1.207,0.039,2.03,0.062c0.811,0.018,1.708,0.036,2.679,0.058c0.966,0.02,1.938,0.032,2.903,0.032
		c0.378,0,0.657-0.041,0.843-0.131c0.172-0.081,0.265-0.201,0.265-0.353c0-0.09-0.031-0.18-0.111-0.251
		c-0.093-0.07-0.235-0.111-0.439-0.111c-0.222,0-0.513-0.01-0.873-0.03c-0.372-0.029-0.754-0.06-1.157-0.091
		c-0.396-0.039-0.768-0.08-1.102-0.12c-0.688-0.081-1.245-0.278-1.641-0.582c-0.402-0.291-0.693-0.681-0.878-1.142
		c-0.186-0.474-0.303-1.006-0.335-1.588c-0.073-0.854-0.117-1.675-0.154-2.47c-0.024-0.793-0.044-1.505-0.044-2.127
		c-0.012-0.621-0.012-1.096-0.012-1.426v-5.178c-0.012-0.662,0.012-1.315,0.032-1.969c0.037-0.641,0.13-1.303,0.277-1.968
		c0.144-0.672,0.396-1.365,0.731-2.086c0.185-0.381,0.526-0.963,1.009-1.749c0.488-0.792,1.082-1.704,1.775-2.758
		c0.7-1.054,1.443-2.178,2.254-3.362c0.811-1.186,1.622-2.368,2.457-3.554c0.823-1.173,1.621-2.287,2.377-3.333
		c0.754-1.042,1.442-1.946,2.03-2.708c0.594-0.773,1.059-1.336,1.393-1.687c0.501-0.541,0.94-0.993,1.324-1.364
		c0.378-0.362,0.762-0.685,1.132-0.953c0.359-0.272,0.78-0.523,1.232-0.756c0.569-0.3,1.145-0.511,1.727-0.649
		c0.583-0.133,1.078-0.192,1.474-0.192c0.277,0,0.501-0.049,0.662-0.13c0.162-0.08,0.242-0.201,0.242-0.353
		c-0.012-0.12-0.093-0.21-0.267-0.269c-0.174-0.062-0.384-0.09-0.637-0.09c-0.279,0-0.663,0-1.17,0.018
		c-0.501,0.01-1.057,0.02-1.658,0.041c-0.596,0.018-1.183,0.04-1.74,0.059c-0.57,0.012-1.045,0.031-1.441,0.04
		c-0.402,0.013-0.651,0.022-0.738,0.022c-0.197,0-0.55-0.022-1.033-0.051c-0.501-0.03-1.058-0.062-1.696-0.08
		c-0.625-0.031-1.25-0.049-1.869-0.049c-0.347,0-0.626,0.027-0.811,0.09c-0.198,0.059-0.297,0.148-0.297,0.269
		c0,0.143,0.099,0.264,0.283,0.344c0.186,0.09,0.446,0.17,0.756,0.26c0.42,0.09,0.706,0.291,0.873,0.591
		c0.172,0.304,0.253,0.662,0.241,1.096c0.012,0.39-0.081,0.843-0.253,1.355c-0.174,0.511-0.489,1.083-0.929,1.715
		c-0.21,0.291-0.544,0.783-1.009,1.476c-0.463,0.682-1.021,1.504-1.658,2.46c-0.639,0.954-1.324,1.976-2.043,3.071
		c-0.73,1.092-1.448,2.188-2.178,3.292c-0.718,1.102-1.405,2.148-2.043,3.142c-0.625,0.983-1.183,1.847-1.633,2.591
		c-0.465,0.742-0.792,1.302-0.991,1.674c-0.186-0.26-0.532-0.762-1.039-1.517c-0.514-0.743-1.126-1.644-1.846-2.721
		c-1.602-2.37-3.212-4.74-4.802-7.124c-0.824-1.226-1.591-2.37-2.309-3.444c-0.706-1.061-1.319-1.965-1.807-2.707
		c-0.501-0.756-0.825-1.257-0.997-1.517c-0.279-0.452-0.501-0.864-0.663-1.244c-0.162-0.381-0.248-0.752-0.248-1.105
		c0-0.241,0.086-0.451,0.248-0.631c0.162-0.183,0.384-0.331,0.663-0.452c0.321-0.121,0.562-0.201,0.748-0.272
		c0.186-0.067,0.291-0.161,0.291-0.27c0.012-0.12-0.042-0.223-0.162-0.303c-0.129-0.08-0.37-0.117-0.742-0.117
		c-0.916,0-1.783,0.018-2.612,0.049c-0.823,0.019-1.528,0.05-2.11,0.08c-0.564,0.028-0.946,0.051-1.12,0.051
		c-0.081,0-0.329-0.01-0.724-0.022c-0.402-0.009-0.892-0.028-1.468-0.04c-0.582-0.019-1.188-0.041-1.801-0.059
		c-0.625-0.021-1.194-0.031-1.702-0.041c-0.525-0.018-0.916-0.018-1.194-0.018c-0.315,0-0.55,0.037-0.688,0.117
		c-0.148,0.08-0.222,0.183-0.222,0.303c0.012,0.148,0.086,0.251,0.222,0.322c0.137,0.068,0.291,0.099,0.477,0.099
		c0.216,0,0.489,0.041,0.823,0.112c0.335,0.08,0.681,0.188,1.065,0.331c0.384,0.148,0.754,0.318,1.102,0.52
		c0.637,0.362,1.367,0.913,2.185,1.668c0.823,0.743,1.664,1.675,2.55,2.789c0.359,0.451,0.835,1.086,1.423,1.896
		c0.582,0.805,1.257,1.718,1.987,2.742c0.73,1.021,1.498,2.086,2.284,3.2c0.779,1.104,1.553,2.196,2.297,3.262
		c0.742,1.064,1.423,2.038,2.042,2.93c0.612,0.895,1.126,1.629,1.504,2.21c0.396,0.591,0.631,0.953,0.711,1.104
		c0.297,0.562,0.576,1.133,0.823,1.696c0.229,0.56,0.428,1.204,0.57,1.925c0.135,0.733,0.204,1.628,0.204,2.702V51.72L177.228,51.72
		z"/>
	<path stroke="#231F20" stroke-width="0.0416" stroke-miterlimit="22.9256" d="M283.246,28.626c0-2.23,0-4.137,0-5.706
		s0-2.888,0.012-3.942c0-1.067,0.012-1.956,0.024-2.662c0.014-0.696,0.026-1.306,0.032-1.81c0.024-0.493,0.049-0.972,0.075-1.415
		c0.043-1.247,0.265-2.206,0.637-2.865c0.372-0.646,1.021-1.065,1.937-1.235c0.402-0.07,0.744-0.129,0.997-0.167
		c0.267-0.034,0.508-0.046,0.744-0.046c0.148,0,0.277-0.037,0.383-0.108c0.111-0.071,0.174-0.18,0.174-0.325
		c0-0.214-0.093-0.359-0.267-0.455c-0.184-0.084-0.463-0.12-0.847-0.12c-0.532,0-1.17,0.012-1.894,0.036
		c-0.73,0.014-1.448,0.05-2.167,0.072c-0.718,0.024-1.33,0.049-1.844,0.07c-0.501,0.025-0.811,0.037-0.916,0.037
		c-0.093,0-0.408-0.012-0.928-0.037c-0.52-0.021-1.183-0.046-1.963-0.07c-0.772-0.022-1.597-0.059-2.469-0.072
		c-0.867-0.024-1.702-0.036-2.507-0.036c-0.378,0-0.657,0.036-0.843,0.12c-0.172,0.096-0.265,0.241-0.265,0.455
		c0.006,0.146,0.067,0.254,0.172,0.325c0.111,0.071,0.242,0.108,0.384,0.108c0.216,0,0.471,0,0.762,0.021
		c0.303,0.013,0.594,0.037,0.884,0.074c0.285,0.021,0.533,0.071,0.719,0.117c0.754,0.158,1.343,0.408,1.763,0.746
		c0.428,0.321,0.718,0.765,0.904,1.318c0.173,0.539,0.291,1.222,0.323,2.036c0.037,0.443,0.061,0.922,0.073,1.415
		c0.018,0.504,0.032,1.113,0.044,1.81c0,0.706,0.012,1.595,0.012,2.662c0.012,1.055,0.012,2.373,0.012,3.942s0,3.476,0,5.706v1.511
		c0,0.18-0.051,0.284-0.13,0.347c-0.081,0.06-0.174,0.083-0.291,0.083h-29.505c-0.105,0-0.21-0.023-0.291-0.083
		c-0.081-0.062-0.129-0.167-0.129-0.347v-1.511c0-2.23,0-4.137,0-5.706s0-2.888,0.012-3.942c0-1.067,0.012-1.956,0.024-2.662
		c0-0.696,0.024-1.306,0.037-1.81c0.026-0.493,0.044-0.972,0.069-1.415c0.042-1.247,0.267-2.206,0.637-2.865
		c0.372-0.646,1.022-1.065,1.938-1.235c0.408-0.07,0.742-0.129,0.997-0.167c0.265-0.034,0.514-0.046,0.742-0.046
		c0.149,0,0.279-0.037,0.384-0.108c0.118-0.071,0.172-0.18,0.172-0.325c0-0.214-0.091-0.359-0.265-0.455
		c-0.186-0.084-0.465-0.12-0.847-0.12c-0.533,0-1.17,0.012-1.902,0.036c-0.718,0.014-1.441,0.05-2.159,0.072
		c-0.718,0.024-1.331,0.049-1.844,0.07c-0.508,0.025-0.811,0.037-0.916,0.037c-0.107,0-0.404-0.012-0.942-0.037
		c-0.52-0.021-1.169-0.046-1.943-0.07c-0.78-0.022-1.603-0.059-2.47-0.072c-0.872-0.024-1.708-0.036-2.507-0.036
		c-0.384,0-0.661,0.036-0.847,0.12c-0.174,0.096-0.267,0.241-0.267,0.455c0.012,0.146,0.068,0.254,0.174,0.325
		c0.117,0.071,0.241,0.108,0.384,0.108c0.216,0,0.476,0,0.761,0.021c0.303,0.013,0.594,0.037,0.885,0.074
		c0.291,0.021,0.52,0.071,0.718,0.117c0.756,0.158,1.344,0.408,1.765,0.746c0.426,0.321,0.718,0.765,0.903,1.318
		c0.174,0.539,0.291,1.222,0.328,2.036c0.019,0.443,0.044,0.922,0.069,1.415c0.012,0.504,0.03,1.113,0.042,1.81
		c0,0.706,0.012,1.595,0.012,2.662c0.012,1.055,0.012,2.373,0.012,3.942s0,3.476,0,5.706v12.658c0,2.312,0,4.456-0.012,6.446
		c-0.012,1.978-0.042,3.754-0.093,5.298c-0.043,1.56-0.124,2.841-0.241,3.859c-0.081,0.696-0.198,1.33-0.34,1.895
		c-0.137,0.551-0.335,1.018-0.602,1.368c-0.253,0.358-0.611,0.598-1.076,0.693c-0.328,0.073-0.675,0.145-1.045,0.204
		c-0.372,0.049-0.719,0.082-1.047,0.082c-0.205,0-0.346,0.051-0.427,0.135c-0.093,0.083-0.131,0.191-0.131,0.3
		c0,0.213,0.093,0.358,0.273,0.441c0.186,0.097,0.465,0.135,0.843,0.135c0.544,0,1.175-0.013,1.906-0.038
		c0.718-0.024,1.448-0.046,2.153-0.07c0.718-0.026,1.336-0.051,1.844-0.071c0.514-0.024,0.811-0.038,0.917-0.038
		c0.105,0,0.42,0.014,0.952,0.038c0.52,0.021,1.207,0.045,2.03,0.071c0.811,0.024,1.702,0.046,2.681,0.07
		c0.958,0.025,1.937,0.038,2.897,0.038c0.384,0,0.661-0.051,0.847-0.159c0.174-0.096,0.267-0.237,0.267-0.417
		c0-0.108-0.03-0.217-0.117-0.3c-0.093-0.084-0.23-0.135-0.44-0.135c-0.216,0-0.507-0.009-0.866-0.033
		c-0.372-0.037-0.756-0.075-1.164-0.108c-0.39-0.049-0.76-0.096-1.102-0.145c-0.682-0.096-1.219-0.335-1.591-0.693
		c-0.364-0.351-0.625-0.817-0.786-1.368c-0.16-0.564-0.277-1.198-0.333-1.895c-0.118-1.019-0.198-2.3-0.247-3.859
		c-0.044-1.544-0.081-3.32-0.093-5.298c-0.012-1.99-0.012-4.135-0.012-6.446v-7.552c0-0.183,0.048-0.3,0.129-0.35
		c0.081-0.059,0.186-0.096,0.291-0.084h29.505c0.117,0,0.21,0.038,0.291,0.109c0.079,0.07,0.13,0.179,0.13,0.324v7.552
		c0,2.312,0,4.456-0.012,6.446c-0.012,1.978-0.039,3.754-0.093,5.298c-0.05,1.56-0.129,2.841-0.242,3.859
		c-0.085,0.696-0.197,1.33-0.34,1.895c-0.136,0.551-0.333,1.018-0.601,1.368c-0.253,0.358-0.619,0.598-1.083,0.693
		c-0.321,0.073-0.667,0.145-1.039,0.204c-0.372,0.049-0.718,0.082-1.045,0.082c-0.21,0-0.347,0.051-0.428,0.135
		c-0.093,0.083-0.129,0.191-0.129,0.3c0,0.213,0.093,0.358,0.267,0.441c0.186,0.097,0.463,0.135,0.847,0.135
		c0.544,0,1.17-0.013,1.9-0.038c0.724-0.024,1.455-0.046,2.173-0.07c0.706-0.026,1.318-0.051,1.832-0.071
		c0.507-0.024,0.811-0.038,0.916-0.038c0.105,0,0.415,0.014,0.954,0.038c0.532,0.021,1.205,0.045,2.03,0.071
		c0.823,0.024,1.714,0.046,2.673,0.07c0.966,0.025,1.938,0.038,2.903,0.038c0.384,0,0.663-0.051,0.849-0.159
		c0.172-0.096,0.266-0.237,0.266-0.417c0-0.108-0.037-0.217-0.118-0.3c-0.093-0.084-0.229-0.135-0.439-0.135
		c-0.222,0-0.513-0.009-0.873-0.033c-0.372-0.037-0.748-0.075-1.157-0.108c-0.396-0.049-0.768-0.096-1.102-0.145
		c-0.687-0.096-1.221-0.335-1.591-0.693c-0.36-0.351-0.625-0.817-0.787-1.368c-0.161-0.564-0.279-1.198-0.34-1.895
		c-0.111-1.019-0.192-2.3-0.242-3.859c-0.042-1.544-0.081-3.32-0.093-5.298c-0.012-1.99-0.012-4.135-0.012-6.446V28.626
		L283.246,28.626z"/>
	<path stroke="#231F20" stroke-width="0.0416" stroke-miterlimit="22.9256" d="M305.726,55.635c-0.39,1.033-0.829,1.952-1.312,2.783
		c-0.489,0.816-1.083,1.49-1.783,2.004c-0.688,0.521-1.553,0.849-2.574,0.981c-0.297,0.031-0.619,0.062-1.002,0.08
		c-0.384,0.03-0.7,0.04-0.96,0.04c-0.168,0-0.315,0.032-0.427,0.093c-0.111,0.062-0.18,0.155-0.18,0.275
		c0,0.187,0.099,0.31,0.315,0.382c0.204,0.08,0.525,0.11,0.966,0.11c0.799,0,1.609-0.009,2.432-0.03
		c0.811-0.019,1.579-0.041,2.296-0.062c0.724-0.018,1.343-0.039,1.85-0.062c0.501-0.018,0.867-0.027,1.059-0.027
		s0.495,0.01,0.91,0.027c0.402,0.023,0.879,0.045,1.399,0.062c0.514,0.021,1.033,0.044,1.553,0.062
		c0.527,0.021,0.991,0.03,1.405,0.03c0.303,0,0.551-0.03,0.731-0.11c0.178-0.072,0.283-0.195,0.283-0.382
		c0-0.12-0.055-0.213-0.16-0.275c-0.111-0.061-0.279-0.093-0.514-0.093h-0.681c-0.39,0-0.787-0.059-1.17-0.182
		c-0.39-0.134-0.718-0.329-0.977-0.594c-0.272-0.255-0.408-0.592-0.416-1c0-0.563,0.074-1.188,0.248-1.895
		c0.154-0.705,0.39-1.441,0.693-2.219l4.054-10.86c0.068-0.154,0.161-0.275,0.26-0.358c0.111-0.093,0.247-0.134,0.421-0.134h14.521
		c0.167,0,0.297,0.031,0.383,0.093c0.093,0.062,0.162,0.155,0.224,0.276l6.287,15.097c0.186,0.489,0.224,0.879,0.099,1.153
		c-0.111,0.276-0.285,0.44-0.507,0.502c-0.136,0.031-0.247,0.08-0.34,0.143c-0.087,0.07-0.129,0.163-0.129,0.288
		c0,0.172,0.178,0.283,0.525,0.324c0.352,0.053,0.854,0.084,1.498,0.103c1.183,0.03,2.339,0.052,3.478,0.074
		c1.152,0.019,2.209,0.028,3.2,0.028c0.978,0.012,1.813,0.021,2.5,0.021c0.688,0,1.17,0,1.43,0c0.384,0,0.699-0.03,0.954-0.11
		c0.247-0.072,0.384-0.195,0.396-0.382c0-0.15-0.069-0.243-0.18-0.294c-0.123-0.052-0.291-0.074-0.495-0.074
		c-0.352,0-0.754-0.019-1.225-0.07c-0.477-0.05-0.96-0.144-1.48-0.294c-0.346-0.084-0.742-0.236-1.156-0.453
		c-0.428-0.226-0.879-0.571-1.362-1.042c-0.483-0.479-1.003-1.146-1.555-2.006c-0.55-0.847-1.126-1.952-1.732-3.312
		c-0.52-1.177-1.126-2.568-1.813-4.171c-0.699-1.606-1.441-3.347-2.24-5.219c-0.798-1.868-1.621-3.812-2.47-5.796
		c-0.854-1.997-1.69-3.98-2.507-5.942c-0.835-1.952-1.622-3.824-2.376-5.604c-0.744-1.77-1.417-3.373-2.03-4.815
		c-0.608-1.433-1.103-2.627-1.504-3.58c-0.41-0.941-0.669-1.562-0.805-1.869c-0.267-0.625-0.483-1.104-0.65-1.424
		c-0.168-0.315-0.328-0.532-0.453-0.635c-0.124-0.111-0.247-0.164-0.383-0.151c-0.137-0.013-0.26,0.05-0.384,0.174
		c-0.124,0.11-0.279,0.347-0.446,0.696c-0.172,0.347-0.383,0.856-0.655,1.522L305.726,55.635L305.726,55.635z M315.189,42.076
		c-0.105,0-0.185-0.031-0.229-0.105c-0.042-0.059-0.042-0.173,0.024-0.324l5.942-16.566c0.341-0.923,0.675-0.923,1.016,0
		l6.418,16.566c0.043,0.12,0.043,0.222,0.024,0.306c-0.037,0.08-0.124,0.124-0.297,0.124H315.189L315.189,42.076z"/>
	<path stroke="#231F20" stroke-width="0.0416" stroke-miterlimit="22.9256" d="M361.356,58.829
		c4.773-6.939,9.501-13.881,14.206-20.819c4.698-6.938,9.315-13.877,13.87-20.815c0.124-0.173,0.198-0.312,0.216-0.411
		c0.037-0.094,0.044-0.201,0.037-0.312c0.008-0.183-0.085-0.304-0.271-0.384c-0.192-0.068-0.526-0.1-0.984-0.1h-17.485
		c-0.639,0-1.423,0-2.371,0.01c-0.94,0-2.099-0.01-3.491-0.04c-1.385-0.019-3.069-0.072-5.044-0.151
		c-0.55-0.02-0.991-0.069-1.306-0.14c-0.321-0.062-0.576-0.13-0.774-0.192c-0.185-0.05-0.376-0.09-0.55-0.09
		c-0.18-0.009-0.315,0.081-0.408,0.252c-0.087,0.182-0.155,0.473-0.223,0.894c-0.062,0.375-0.143,0.857-0.248,1.457
		c-0.105,0.604-0.21,1.248-0.322,1.944c-0.117,0.693-0.229,1.355-0.328,2.011c-0.105,0.645-0.186,1.207-0.249,1.678
		c-0.073,0.465-0.105,0.773-0.105,0.935c0,0.241,0.018,0.434,0.075,0.576c0.049,0.139,0.142,0.21,0.303,0.21
		c0.154,0.01,0.291-0.062,0.415-0.201c0.117-0.151,0.21-0.442,0.272-0.885c0.062-0.474,0.229-1.006,0.514-1.601
		c0.273-0.591,0.669-1.166,1.17-1.729c0.507-0.563,1.138-1.046,1.887-1.437c0.693-0.344,1.53-0.594,2.521-0.776
		c1.001-0.17,2.066-0.291,3.192-0.35c1.134-0.062,2.242-0.093,3.311-0.081h13.605c-2.903,4.547-5.88,9.08-8.931,13.618
		c-3.039,4.533-6.121,9.069-9.234,13.594c-3.113,4.525-6.227,9.053-9.352,13.577c-0.366,0.523-0.601,0.904-0.719,1.136
		c-0.118,0.233-0.166,0.424-0.154,0.555c0,0.201,0.093,0.34,0.279,0.402c0.192,0.058,0.471,0.09,0.847,0.081
		c5.472,0.009,10.862,0.058,16.167,0.15c5.311,0.09,10.573,0.141,15.796,0.149c0.469,0.013,0.817-0.02,1.045-0.09
		c0.229-0.06,0.396-0.201,0.501-0.435c0.105-0.219,0.216-0.571,0.335-1.045c0.092-0.381,0.217-0.873,0.352-1.459
		c0.136-0.58,0.273-1.207,0.421-1.868c0.137-0.675,0.248-1.318,0.333-1.953c0.093-0.622,0.144-1.185,0.144-1.658
		c0-0.563-0.032-0.935-0.099-1.127c-0.087-0.191-0.21-0.272-0.402-0.26c-0.156,0-0.267,0.09-0.354,0.26
		c-0.081,0.16-0.148,0.402-0.21,0.706c-0.037,0.29-0.124,0.643-0.247,1.045c-0.123,0.402-0.285,0.806-0.452,1.208
		c-0.172,0.402-0.364,0.732-0.55,1.005c-0.315,0.453-0.711,0.864-1.183,1.226c-0.458,0.362-1.065,0.675-1.795,0.936
		c-0.73,0.25-1.666,0.451-2.792,0.586c-1.114,0.139-2.495,0.21-4.134,0.21H361.356L361.356,58.829z"/>
	<path stroke="#231F20" stroke-width="0.0416" stroke-miterlimit="22.9256" d="M408.564,44.014c0,1.959,0,3.776-0.012,5.45
		c-0.014,1.686-0.044,3.187-0.087,4.496c-0.044,1.321-0.125,2.408-0.236,3.269c-0.075,0.59-0.186,1.13-0.315,1.598
		c-0.129,0.476-0.315,0.859-0.57,1.166c-0.241,0.303-0.581,0.507-1.015,0.588c-0.309,0.062-0.637,0.12-0.984,0.174
		c-0.352,0.039-0.68,0.07-0.989,0.07c-0.198,0-0.329,0.041-0.402,0.112c-0.087,0.07-0.125,0.16-0.125,0.253
		c0,0.183,0.093,0.304,0.254,0.375c0.174,0.081,0.439,0.111,0.799,0.111c0.507-0.01,1.108-0.03,1.789-0.06
		c0.674-0.043,1.355-0.061,2.024-0.061c0.7-0.032,1.3-0.054,1.783-0.054c0.482-0.009,0.767-0.009,0.841-0.009
		c0.099,0,0.34,0.009,0.736,0.021c0.39,0.01,0.873,0.032,1.443,0.06c0.582,0.03,1.181,0.062,1.832,0.103
		c0.643,0.021,1.282,0.039,1.913,0.071c0.625,0.03,1.195,0.052,1.69,0.079c0.501,0.023,0.872,0.032,1.126,0.032
		c2.24-0.009,4.271-0.264,6.053-0.75c1.795-0.498,3.362-1.179,4.698-2.051c1.338-0.864,2.452-1.857,3.336-2.984
		c0.885-1.129,1.554-2.336,1.993-3.605c0.453-1.277,0.669-2.577,0.669-3.887c-0.012-1.423-0.254-2.742-0.712-3.939
		c-0.471-1.197-1.096-2.284-1.882-3.259c-0.798-0.975-1.69-1.838-2.673-2.578c-0.984-0.743-2-1.37-3.046-1.887
		c-1.045-0.509-2.066-0.905-3.051-1.189c0.78-0.739,1.535-1.501,2.265-2.273c0.738-0.771,1.393-1.585,1.981-2.458
		c0.582-0.86,1.052-1.807,1.405-2.832c0.34-1.023,0.513-2.163,0.525-3.401c0.006-0.618-0.099-1.327-0.328-2.119
		c-0.234-0.793-0.625-1.594-1.194-2.417c-0.557-0.811-1.349-1.562-2.333-2.266c-0.997-0.687-2.254-1.247-3.776-1.674
		c-1.522-0.424-3.36-0.65-5.509-0.659c-1.522,0.009-2.889,0.04-4.116,0.093c-1.225,0.049-2.247,0.08-3.045,0.09
		c-0.099,0-0.384-0.01-0.885-0.031c-0.495-0.019-1.108-0.04-1.838-0.059c-0.736-0.021-1.51-0.053-2.333-0.062
		c-0.824-0.022-1.611-0.031-2.365-0.031c-0.358,0-0.625,0.031-0.799,0.102c-0.167,0.081-0.253,0.201-0.253,0.387
		c0.012,0.121,0.067,0.211,0.166,0.273c0.105,0.062,0.23,0.092,0.36,0.092c0.21,0,0.451,0,0.724,0.02
		c0.285,0.009,0.556,0.03,0.829,0.062c0.273,0.019,0.495,0.062,0.681,0.102c0.711,0.13,1.27,0.344,1.666,0.629
		c0.402,0.275,0.674,0.649,0.854,1.117c0.162,0.467,0.272,1.033,0.303,1.724c0.024,0.378,0.044,0.783,0.068,1.21
		c0.012,0.415,0.031,0.935,0.043,1.522c0,0.598,0.014,1.349,0.014,2.253c0.012,0.895,0.012,2.011,0.012,3.339
		c0,1.331,0,2.947,0,4.834V44.014L408.564,44.014z M413.818,18.309c0-0.183,0.049-0.325,0.174-0.427
		c0.118-0.1,0.315-0.183,0.613-0.242c0.358-0.083,0.73-0.142,1.126-0.194c0.396-0.04,0.768-0.071,1.114-0.09
		c0.366-0.013,0.663-0.021,0.91-0.021c1.609,0.009,2.978,0.325,4.11,0.926c1.126,0.597,2.036,1.411,2.749,2.413
		c0.698,1.006,1.213,2.132,1.528,3.37c0.328,1.229,0.495,2.488,0.483,3.767c-0.014,1.26-0.23,2.417-0.669,3.463
		c-0.427,1.056-0.997,1.95-1.696,2.689c-0.34,0.365-0.669,0.65-0.997,0.863c-0.328,0.214-0.712,0.374-1.126,0.477
		c-0.426,0.102-0.941,0.174-1.566,0.205c-0.613,0.03-1.379,0.039-2.289,0.039c-1.201-0.009-2.125-0.039-2.768-0.102
		c-0.637-0.062-1.053-0.103-1.239-0.143c-0.166-0.049-0.284-0.133-0.352-0.223c-0.075-0.09-0.105-0.245-0.105-0.445V18.309
		L413.818,18.309z M413.818,37.617c0-0.152,0.031-0.264,0.093-0.325c0.068-0.071,0.167-0.103,0.297-0.103c0.267,0,0.625,0,1.096,0
		c0.47,0,0.979,0.013,1.522,0.013c0.538,0.009,1.027,0.019,1.492,0.04c0.445,0.019,0.787,0.04,1.015,0.071
		c0.526,0.05,1.065,0.13,1.622,0.223c0.558,0.103,1.15,0.263,1.771,0.498c0.637,0.232,1.318,0.589,2.06,1.043
		c1.257,0.814,2.297,1.736,3.132,2.751c0.831,1.016,1.479,2.083,1.951,3.179c0.477,1.108,0.804,2.194,1.002,3.259
		c0.198,1.077,0.297,2.07,0.285,2.995c-0.008,1.368-0.216,2.548-0.619,3.542c-0.41,0.986-0.948,1.819-1.617,2.478
		c-0.673,0.66-1.417,1.177-2.228,1.564c-0.823,0.387-1.646,0.658-2.477,0.832c-0.823,0.164-1.595,0.231-2.321,0.231
		c-0.408,0-0.952-0.019-1.633-0.059c-0.675-0.041-1.373-0.134-2.123-0.264c-0.744-0.132-1.411-0.327-2.023-0.591
		c-0.669-0.294-1.152-0.619-1.443-0.976c-0.297-0.352-0.481-0.832-0.568-1.42c-0.099-0.587-0.167-1.37-0.223-2.354
		c-0.014-0.192-0.02-0.619-0.032-1.27c-0.012-0.649-0.012-1.451-0.024-2.405c0-0.955,0-1.979-0.006-3.088c0-1.104,0-2.213,0-3.317
		c0-1.096,0-2.123,0-3.076V37.617L413.818,37.617z"/>
	<path stroke="#231F20" stroke-width="0.0416" stroke-miterlimit="22.9256" d="M513.715,24.171c0.514,0.562,1.3,1.432,2.371,2.611
		c1.065,1.167,2.339,2.55,3.807,4.155c1.466,1.598,3.069,3.331,4.795,5.185c1.716,1.851,3.491,3.744,5.312,5.682
		c1.342,1.414,2.723,2.866,4.171,4.364c1.435,1.494,2.846,2.937,4.221,4.339c1.375,1.414,2.63,2.683,3.776,3.84
		c1.132,1.147,2.066,2.08,2.79,2.808c0.731,0.727,1.177,1.167,1.326,1.3c1.088,1.077,1.931,1.895,2.538,2.469
		c0.612,0.573,1.058,0.963,1.349,1.167s0.507,0.307,0.669,0.298c0.111,0.009,0.192-0.031,0.267-0.114
		c0.073-0.081,0.136-0.268,0.178-0.551c0.038-0.278,0.075-0.719,0.094-1.305c0.011-0.589,0.017-1.391,0.017-2.394l0.125-36.005
		c-0.006-1.22,0.042-2.213,0.147-2.959c0.105-0.758,0.322-1.331,0.657-1.72c0.322-0.391,0.829-0.657,1.504-0.79
		c0.378-0.093,0.681-0.143,0.916-0.164c0.241-0.019,0.427-0.03,0.583-0.019c0.222,0,0.384-0.043,0.513-0.123
		c0.111-0.084,0.172-0.187,0.172-0.307c0-0.186-0.104-0.297-0.302-0.359c-0.198-0.053-0.477-0.083-0.818-0.071
		c-0.853,0-1.646,0.019-2.363,0.05c-0.706,0.021-1.318,0.053-1.826,0.084c-0.514,0.03-0.873,0.049-1.114,0.049
		c-0.242,0-0.699-0.019-1.362-0.049c-0.669-0.031-1.447-0.062-2.353-0.084c-0.89-0.031-1.819-0.05-2.772-0.05
		c-0.378-0.012-0.675,0.019-0.904,0.071c-0.222,0.062-0.333,0.174-0.347,0.359c0,0.12,0.02,0.223,0.087,0.307
		c0.068,0.08,0.204,0.123,0.415,0.123c0.173,0,0.428,0.01,0.768,0.019c0.334,0.021,0.706,0.053,1.114,0.093
		c0.402,0.053,0.792,0.112,1.176,0.195c0.643,0.154,1.132,0.431,1.474,0.839c0.352,0.411,0.593,1.015,0.73,1.813
		c0.142,0.798,0.216,1.862,0.229,3.184l0.688,31.211c-0.514-0.52-1.282-1.34-2.309-2.444c-1.033-1.108-2.234-2.408-3.608-3.894
		c-1.373-1.485-2.84-3.061-4.389-4.731c-1.547-1.668-3.107-3.318-4.666-4.965c-1.937-2.039-3.819-4.035-5.67-5.981
		c-1.838-1.956-3.576-3.788-5.199-5.518c-1.622-1.722-3.075-3.269-4.357-4.631c-1.274-1.36-2.314-2.466-3.119-3.326
		c-0.798-0.86-1.3-1.402-1.498-1.618c-0.216-0.214-0.451-0.48-0.724-0.79c-0.279-0.297-0.538-0.572-0.811-0.808
		c-0.26-0.235-0.471-0.358-0.645-0.368c-0.166-0.012-0.302,0.08-0.395,0.267c-0.105,0.183-0.18,0.492-0.218,0.94
		c-0.055,0.452-0.073,1.077-0.073,1.863l-0.062,35.206c0.006,1.853-0.044,3.317-0.137,4.416c-0.105,1.096-0.277,1.895-0.562,2.414
		c-0.267,0.522-0.655,0.851-1.176,0.976c-0.489,0.15-0.964,0.243-1.441,0.296c-0.477,0.05-0.841,0.071-1.114,0.071
		c-0.155,0-0.279,0.032-0.366,0.093c-0.093,0.06-0.129,0.152-0.129,0.275c0,0.205,0.093,0.347,0.265,0.409
		c0.167,0.062,0.416,0.093,0.731,0.084c0.946,0,1.838-0.021,2.667-0.054c0.849-0.03,1.554-0.049,2.148-0.081
		c0.582-0.03,0.971-0.052,1.169-0.052c0.198,0,0.582,0.021,1.176,0.052c0.594,0.032,1.344,0.051,2.266,0.081
		c0.928,0.032,1.985,0.054,3.174,0.054c0.372,0,0.657-0.031,0.842-0.115c0.186-0.071,0.279-0.194,0.279-0.378
		c0-0.123-0.044-0.216-0.137-0.275c-0.081-0.061-0.204-0.093-0.358-0.093c-0.198,0-0.458-0.013-0.792-0.03
		c-0.347-0.01-0.717-0.054-1.127-0.103c-0.401-0.054-0.798-0.133-1.201-0.234c-0.562-0.155-1.009-0.462-1.355-0.945
		c-0.34-0.479-0.6-1.219-0.768-2.21c-0.166-0.984-0.271-2.305-0.315-3.974L513.715,24.171L513.715,24.171z"/>
	<path stroke="#231F20" stroke-width="0.0416" stroke-miterlimit="22.9256" d="M452,41.934c0.014,2.173,0.155,4.085,0.428,5.738
		c0.29,1.664,0.686,3.106,1.187,4.345c0.501,1.234,1.09,2.31,1.765,3.225c0.681,0.919,1.405,1.715,2.197,2.411
		c1.151,0.997,2.377,1.774,3.671,2.352c1.304,0.579,2.574,1.006,3.811,1.275c1.251,0.27,2.371,0.439,3.374,0.517
		c0.991,0.081,1.783,0.111,2.339,0.103c1.27,0.018,2.625-0.081,4.08-0.301c1.447-0.21,2.945-0.637,4.481-1.275
		c1.547-0.637,3.087-1.592,4.636-2.847c1.268-1.068,2.302-2.293,3.083-3.677c0.779-1.374,1.379-2.859,1.782-4.435
		c0.408-1.571,0.687-3.187,0.823-4.84c0.149-1.653,0.212-3.296,0.206-4.921v-6.396c0-1.851,0-3.436,0-4.741
		c0-1.307,0-2.402,0.006-3.277c0-0.886,0.012-1.625,0.024-2.213c0.012-0.576,0.019-1.083,0.031-1.504
		c0.024-0.408,0.044-0.805,0.062-1.174c0.042-1.036,0.247-1.822,0.588-2.351c0.346-0.539,0.94-0.889,1.781-1.057
		c0.378-0.062,0.687-0.111,0.922-0.139c0.242-0.031,0.471-0.04,0.681-0.04c0.143,0,0.254-0.031,0.354-0.09
		c0.105-0.059,0.16-0.148,0.16-0.269c0-0.181-0.085-0.301-0.247-0.378c-0.167-0.071-0.427-0.103-0.78-0.103
		c-0.489,0-1.015,0.012-1.591,0.031c-0.562,0.009-1.12,0.04-1.652,0.059c-0.532,0.021-0.99,0.04-1.381,0.062
		c-0.384,0.02-0.625,0.028-0.754,0.028c-0.105,0-0.372-0.009-0.811-0.028c-0.44-0.021-0.998-0.04-1.647-0.062
		c-0.649-0.019-1.355-0.05-2.111-0.059c-0.748-0.02-1.486-0.031-2.222-0.031c-0.354,0-0.606,0.031-0.78,0.103
		c-0.16,0.077-0.247,0.197-0.247,0.378c0.012,0.12,0.067,0.21,0.16,0.269c0.111,0.059,0.224,0.09,0.354,0.09
		c0.205,0,0.439,0,0.706,0.019c0.279,0.01,0.544,0.031,0.811,0.062c0.267,0.018,0.489,0.059,0.663,0.098
		c0.693,0.131,1.237,0.338,1.622,0.617c0.396,0.269,0.661,0.638,0.835,1.095c0.162,0.449,0.267,1.019,0.297,1.695
		c0.03,0.369,0.056,0.766,0.062,1.174c0.024,0.421,0.036,0.928,0.042,1.504c0,0.588,0.012,1.327,0.012,2.213
		c0.012,0.875,0.012,1.971,0.012,3.277c0,1.306,0,2.891,0,4.741v7.47c0.006,2.055-0.099,3.986-0.31,5.778
		c-0.216,1.795-0.588,3.438-1.132,4.924c-0.544,1.492-1.306,2.807-2.272,3.943c-0.78,0.865-1.702,1.615-2.766,2.262
		c-1.071,0.637-2.222,1.137-3.46,1.495c-1.238,0.359-2.519,0.549-3.831,0.549c-1.207,0.009-2.357-0.072-3.441-0.239
		c-1.065-0.171-2.123-0.499-3.138-0.979c-1.022-0.476-2.062-1.163-3.095-2.07c-0.693-0.609-1.338-1.314-1.912-2.132
		c-0.588-0.817-1.09-1.795-1.522-2.941c-0.428-1.144-0.774-2.51-1.01-4.103c-0.229-1.585-0.358-3.448-0.358-5.59v-8.367
		c0-1.851,0-3.436,0-4.741c0-1.307,0-2.402,0.012-3.277c0-0.886,0.006-1.625,0.019-2.213c0-0.576,0.018-1.083,0.032-1.504
		c0.024-0.408,0.043-0.805,0.067-1.174c0.038-1.046,0.241-1.844,0.582-2.4c0.346-0.557,0.94-0.897,1.783-1.007
		c0.378-0.062,0.688-0.111,0.922-0.139c0.241-0.031,0.471-0.04,0.681-0.04c0.142,0,0.259-0.031,0.352-0.09
		c0.105-0.059,0.162-0.148,0.162-0.269c0-0.181-0.087-0.301-0.249-0.378c-0.166-0.071-0.426-0.103-0.778-0.103
		c-0.489,0-1.065,0.012-1.714,0.031c-0.657,0.009-1.306,0.04-1.957,0.059c-0.649,0.021-1.219,0.04-1.708,0.062
		c-0.483,0.02-0.798,0.028-0.96,0.028c-0.16,0-0.481-0.009-0.995-0.028c-0.501-0.021-1.109-0.04-1.827-0.062
		c-0.711-0.019-1.472-0.05-2.258-0.059c-0.792-0.02-1.548-0.031-2.284-0.031c-0.352,0-0.613,0.031-0.78,0.103
		c-0.16,0.077-0.247,0.197-0.247,0.378c0.012,0.12,0.061,0.21,0.16,0.269c0.105,0.059,0.224,0.09,0.354,0.09
		c0.204,0,0.439,0,0.706,0.019c0.279,0.01,0.544,0.031,0.811,0.062c0.267,0.018,0.477,0.059,0.663,0.098
		c0.693,0.131,1.237,0.338,1.621,0.617c0.383,0.269,0.662,0.638,0.829,1.095c0.162,0.449,0.273,1.019,0.303,1.695
		c0.019,0.369,0.044,0.766,0.062,1.174c0.012,0.421,0.031,0.928,0.031,1.504c0.012,0.588,0.024,1.327,0.024,2.213
		C452,26.063,452,27.159,452,28.466c0,1.306,0,2.891,0,4.741V41.934L452,41.934z"/>
	<path fill-rule="evenodd" clip-rule="evenodd" stroke="#231F20" stroke-width="0.0416" stroke-miterlimit="22.9256" d="
		M467.629,9.411L478.931,2l2.871,4.75C481.802,6.75,476.022,5.939,467.629,9.411L467.629,9.411z"/>
</g>
<g>
	<g>
		<path fill="#6E5187" d="M82.309,49.393c2.428-1.238,3.725-4.444,4.028-7.162l0,0c3.179-5.153,10.453-3.15,10.967-2.371
			l-0.202,0.041c-2.26,0.272-5.859,2.249-3.285,6.373l-0.021,0.265c-2.144,0.1-3.862,1.987-3.574,3.95
			c-2.132-1.11-4.019-0.197-5.02,1.974l-0.058-0.045c-3.085-0.947-5.305,1.794-6.005,3.404"/>
	</g>
	<g>
		<g>
			<g>
				<path fill="#433254" d="M86.304,42.458c3.292-0.302,5.838,1.442,7.546,4.152c0.044,0.069,0.155,0.004,0.11-0.064
					c-1.812-2.731-4.259-4.534-7.657-4.22C86.22,42.334,86.219,42.466,86.304,42.458L86.304,42.458z"/>
			</g>
		</g>
		<g>
			<g>
				<path fill="#433254" d="M86.402,42.599c2.248,1.62,3.475,5.269,3.712,7.89c0.014,0.156,0.241,0.125,0.212-0.029
					c-0.527-2.739-1.401-6.315-3.783-8.103C86.399,42.25,86.256,42.494,86.402,42.599L86.402,42.599z"/>
			</g>
		</g>
		<g>
			<g>
				<path fill="#433254" d="M86.178,42.608c1.484,2.698,0.027,7.157-1.12,9.771c-0.098,0.224,0.234,0.356,0.304,0.128
					c0.879-2.875,2.699-7.098,1.001-10.007C86.294,42.38,86.111,42.487,86.178,42.608L86.178,42.608z"/>
			</g>
		</g>
	</g>
	<g>
		<g>
			<path fill="#111111" d="M82.333,49.436c2.107-1.024,3.14-3.069,3.803-5.228c0.727-2.369,1.48-3.779,3.868-4.726
				c1.271-0.503,2.694-0.542,4.039-0.449c0.936,0.065,1.914,0.286,2.77,0.677c0.178,0.082,0.422-0.004,0.245,0.032
				c-0.601,0.123-1.147,0.253-1.72,0.482c-1.53,0.611-2.482,1.862-2.57,3.49c-0.051,0.948,0.945,1.89,0.882,2.693
				c0.041-0.527-2.792,1.462-2.873,1.551c-0.279,0.308-0.753,2.277-1.109,2.124c-0.788-0.341-1.635-0.232-2.422,0.014
				c-0.819,0.255-1.385,1.012-1.854,1.676c-0.691,0.98,0.089,0.561-0.206,0.495c-0.725-0.162-1.28-0.211-2.031-0.131
				c-1.894,0.201-3.393,2.014-4.124,3.624c-0.065,0.144,0.141,0.271,0.216,0.126c0.388-0.754,0.874-1.411,1.45-2.036
				c0.859-0.931,3.198-2.217,4.394-1.274c0.076,0.06,0.195,0.066,0.247-0.032c1.02-1.917,2.644-2.854,4.806-1.919
				c0.101,0.043,0.239-0.004,0.234-0.134c-0.081-2.156,1.394-3.514,3.459-3.8c0.071-0.01,0.109-0.087,0.114-0.15
				c0.008-0.103,0.053-0.247,0-0.344c-0.88-1.59-1.289-3.095-0.033-4.617c0.841-1.02,2.211-1.312,3.429-1.559
				c0.128-0.026,0.152-0.191,0.073-0.277c-1.467-1.588-5.18-1.197-6.988-0.755c-1.487,0.363-3.011,1.339-3.877,2.611
				c-0.629,0.923-0.633,2.09-0.953,3.161c-0.563,1.887-1.723,3.46-3.319,4.59C82.232,49.387,82.276,49.463,82.333,49.436
				L82.333,49.436z"/>
		</g>
	</g>
	<g>
		<path fill="#6E5187" d="M74.761,49.308c-2.558-0.939-4.228-3.967-4.854-6.63l0,0c-3.771-4.737-10.754-1.879-11.172-1.044
			l0.206,0.017c2.277,0,6.085,1.533,4.022,5.935l0.052,0.261c2.141-0.156,4.073,1.511,4.021,3.495
			c1.984-1.357,3.967-0.675,5.22,1.36l0.052-0.052c2.95-1.309,5.481,1.148,6.369,2.662"/>
	</g>
	<g>
		<g>
			<g>
				<path fill="#433254" d="M69.958,42.769c-3.403,0.082-5.638,2.173-7.103,5.098c-0.037,0.074,0.075,0.138,0.11,0.064
					c1.362-2.889,3.692-4.948,6.992-5.03C70.043,42.899,70.043,42.767,69.958,42.769L69.958,42.769z"/>
			</g>
		</g>
		<g>
			<g>
				<path fill="#433254" d="M69.703,42.841c-2.149,2.067-2.582,5.706-2.774,8.5c-0.01,0.138,0.219,0.14,0.215,0
					c-0.069-2.64,0.714-6.413,2.757-8.303C70.032,42.916,69.833,42.716,69.703,42.841L69.703,42.841z"/>
			</g>
		</g>
		<g>
			<g>
				<path fill="#433254" d="M69.917,42.938c-1.353,3.126,0.953,7.045,2.194,9.848c0.085,0.192,0.399,0.021,0.287-0.168
					c-1.434-2.425-3.435-6.744-2.285-9.597C70.16,42.907,69.965,42.826,69.917,42.938L69.917,42.938z"/>
			</g>
		</g>
	</g>
	<g>
		<g>
			<path fill="#111111" d="M74.786,49.266c-1.505-0.819-2.52-1.881-3.417-3.332c-0.573-0.925-0.667-2.613-1.338-3.379
				c-1.303-1.488-2.792-2.307-4.744-2.629c-1.782-0.294-5.482-0.032-6.695,1.625c-0.081,0.11,0.031,0.24,0.143,0.249
				c1.416,0.113,2.603,0.333,3.73,1.282c1.126,0.948,1.004,2.482,0.638,3.754c-0.231,0.804-0.347,0.508-0.237,1.051
				c0.014,0.068,0.084,0.113,0.15,0.114c2.02,0.036,3.68,1.093,3.865,3.339c0.01,0.115,0.125,0.196,0.234,0.134
				c1.993-1.14,3.709-0.529,5.005,1.306c0.058,0.082,0.17,0.108,0.247,0.032c1.894-1.893,5.172,1.05,6.202,2.562
				c0.09,0.131,0.301,0.013,0.216-0.126c-0.892-1.457-2.519-3.071-4.362-3.106c-0.875-0.017-0.545-0.036-1.429,0.104
				c-1.222,0.192-0.438,0.608-1.046-0.251c-0.555-0.785-1.395-1.212-2.29-1.466c-0.603-0.17-1.524,0.004-2.041,0.3
				c-0.398,0.228-1.172-1.613-1.422-1.922c-0.527-0.651-1.661-1.185-2.476-1.202c-1.066-0.021-0.332-0.723-0.124-1.44
				c0.162-0.559,0.121-1.147,0.046-1.712c-0.169-1.278-1.411-2.294-2.564-2.676c-0.759-0.251-1.451-0.335-2.24-0.399
				c0.796,0.065,1.969-0.782,2.781-0.995c3.319-0.87,7.362,0.039,8.518,3.593c0.744,2.288,2.295,4.458,4.611,5.28
				C74.8,49.374,74.833,49.292,74.786,49.266L74.786,49.266z"/>
		</g>
	</g>
	<g>
		<path d="M82.746,51.18c-0.133-1.919-0.808-4.023-1.454-5.183c-0.313,0.626-1.057,1.454-1.086,2.151l0,0
			c-0.431-0.35-2.995-0.381-3.567-0.081l0,0c0.015-0.852-0.661-1.725-0.911-2.298c-0.572,0.367-1.424,2.973-1.248,6.996
			c0.058,1.332,1.292,4.287,2.574,5.139c0.712,0.473,1.606-0.548,2.467-0.705c0.353-0.078,1.515-0.639,1.867-0.756
			C81.662,56.365,82.922,53.72,82.746,51.18z"/>
	</g>
	<g>
		<path fill="#FFFFFF" d="M81.179,50.059c0.257,0.123,0.524,0.422,0.577,0.699c0.102,0.542,0.03,0.99-0.296,1.415
			c-0.27,0.364-0.729,0.649-1.186,0.574c-0.563-0.099-1.363-0.663-0.981-1.819C79.464,50.406,80.294,49.637,81.179,50.059z"/>
	</g>
	<ellipse cx="80.089" cy="51.253" rx="0.206" ry="0.22"/>
	<g>
		<g>
			<path fill="#111111" d="M74.5,49.759c0.009,0,0.009-0.015,0-0.015S74.491,49.759,74.5,49.759L74.5,49.759z"/>
		</g>
	</g>
	<g>
		<path fill="#FFFFFF" d="M76.68,50.059c-0.257,0.123-0.524,0.422-0.577,0.699c-0.102,0.542-0.03,0.99,0.296,1.415
			c0.27,0.364,0.729,0.649,1.186,0.574c0.563-0.099,1.363-0.663,0.981-1.819C78.395,50.406,77.565,49.637,76.68,50.059z"/>
	</g>
	<ellipse cx="77.74" cy="51.253" rx="0.206" ry="0.22"/>
	<polygon points="81.799,48.473 78.914,51.275 75.434,47.847 	"/>
</g>
<g>
	<path fill="#6E5187" d="M258.729,23.393c-2.428-1.238-3.725-4.444-4.028-7.162l0,0c-3.179-5.153-10.453-3.15-10.967-2.371
		l0.202,0.041c2.26,0.272,5.859,2.249,3.285,6.373l0.021,0.265c2.144,0.1,3.862,1.987,3.574,3.95c2.132-1.11,4.019-0.197,5.02,1.974
		l0.058-0.045c3.085-0.947,5.305,1.794,6.005,3.404"/>
</g>
<g>
	<g>
		<g>
			<path fill="#433254" d="M254.734,16.327c-3.397-0.314-5.844,1.489-7.656,4.22c-0.045,0.068,0.066,0.134,0.109,0.064
				c1.709-2.71,4.255-4.454,7.547-4.152C254.819,16.466,254.818,16.334,254.734,16.327L254.734,16.327z"/>
		</g>
	</g>
	<g>
		<g>
			<path fill="#433254" d="M254.496,16.357c-2.382,1.787-3.256,5.364-3.783,8.103c-0.029,0.154,0.198,0.185,0.212,0.029
				c0.237-2.621,1.464-6.271,3.712-7.89C254.782,16.494,254.639,16.25,254.496,16.357L254.496,16.357z"/>
		</g>
	</g>
	<g>
		<g>
			<path fill="#433254" d="M254.674,16.5c-1.697,2.909,0.122,7.132,1.001,10.007c0.07,0.228,0.403,0.095,0.304-0.128
				c-1.147-2.614-2.604-7.072-1.12-9.771C254.927,16.487,254.744,16.38,254.674,16.5L254.674,16.5z"/>
		</g>
	</g>
</g>
<g>
	<g>
		<path fill="#111111" d="M258.754,23.351c-1.275-0.902-2.135-1.985-2.84-3.371c-0.522-1.027-0.464-2.958-1.062-3.837
			c-0.965-1.417-2.132-2.361-3.727-2.991c-1.814-0.716-5.992-1.05-7.508,0.591c-0.079,0.085-0.055,0.251,0.073,0.277
			c1.31,0.265,2.424,0.614,3.429,1.559c1.406,1.321,0.746,3.211-0.033,4.617c-0.053,0.097-0.008,0.241,0,0.344
			c0.005,0.062,0.043,0.14,0.114,0.15c2.065,0.286,3.54,1.644,3.459,3.8c-0.004,0.13,0.133,0.178,0.234,0.134
			c2.162-0.935,3.786,0.003,4.806,1.919c0.052,0.098,0.171,0.091,0.247,0.032c1.272-1.002,3.453,0.417,4.394,1.274
			c0.618,0.562,1.071,1.299,1.45,2.036c0.075,0.145,0.281,0.018,0.216-0.126c-0.809-1.781-2.171-3.108-4.082-3.619
			c-0.462-0.123-1.71-0.174-2.143,0.167c0.567-0.447-1.674-2.048-1.953-2.196c-0.49-0.259-1.291-0.334-1.81-0.201
			c-1.375,0.351-0.79-0.416-1.391-1.373c-0.479-0.763-1.101-1.537-1.996-1.833c-0.918-0.304-1.517,0.083-0.884-1.056
			c0.187-0.335,0.416-0.965,0.458-1.359c0.192-1.757-0.563-2.936-2.038-3.835c-0.698-0.425-1.504-0.572-2.29-0.732
			c0.543,0.111,1.623-0.452,2.265-0.577c3.421-0.663,7.862,0.543,8.599,4.414c0.451,2.37,1.734,4.795,3.961,5.877
			C258.762,23.463,258.806,23.387,258.754,23.351L258.754,23.351z"/>
	</g>
</g>
<g>
	<path fill="#6E5187" d="M266.277,23.308c2.558-0.939,4.228-3.967,4.854-6.63l0,0c3.771-4.737,10.754-1.879,11.172-1.044
		l-0.206,0.017c-2.277,0-6.085,1.533-4.022,5.935l-0.052,0.261c-2.141-0.156-4.073,1.511-4.021,3.495
		c-1.984-1.357-3.967-0.675-5.22,1.36l-0.052-0.052c-2.95-1.309-5.481,1.148-6.369,2.662"/>
</g>
<g>
	<g>
		<g>
			<path fill="#433254" d="M271.08,16.901c3.3,0.082,5.63,2.142,6.993,5.03c0.035,0.074,0.146,0.009,0.109-0.064
				c-1.464-2.924-3.698-5.016-7.102-5.098C270.995,16.767,270.995,16.899,271.08,16.901L271.08,16.901z"/>
		</g>
	</g>
	<g>
		<g>
			<path fill="#433254" d="M271.138,17.038c2.042,1.89,2.826,5.663,2.757,8.303c-0.004,0.14,0.225,0.138,0.215,0
				c-0.193-2.794-0.625-6.433-2.774-8.5C271.206,16.716,271.006,16.916,271.138,17.038L271.138,17.038z"/>
		</g>
	</g>
	<g>
		<g>
			<path fill="#433254" d="M270.924,17.021c1.15,2.853-0.851,7.171-2.285,9.597c-0.112,0.188,0.202,0.36,0.287,0.168
				c1.242-2.802,3.547-6.721,2.194-9.848C271.073,16.826,270.878,16.907,270.924,17.021L270.924,17.021z"/>
		</g>
	</g>
</g>
<g>
	<g>
		<path fill="#111111" d="M266.291,23.355c2.09-0.742,3.553-2.564,4.348-4.604c0.871-2.236,1.676-3.486,4.093-4.271
			c1.496-0.485,3.184-0.327,4.689,0c0.841,0.183,1.671,0.499,2.408,0.94c0.246,0.147,0.651,0.049-0.123,0.078
			c-0.444,0.017-0.886,0.127-1.314,0.234c-1.31,0.328-2.802,1.377-2.994,2.818c-0.134,1.008,0.663,2.315,0.502,3.122
			c0.019-0.094-2.267,0.549-2.56,0.803c-0.643,0.557-1.362,1.302-1.438,2.216c-0.022,0.263-2.135-0.273-2.521-0.165
			c-0.95,0.269-1.591,0.72-2.265,1.434c-0.834,0.884-0.315,0.138-1.819,0.167c-2.202,0.042-3.912,1.271-5.042,3.119
			c-0.085,0.139,0.126,0.257,0.216,0.126c1.03-1.512,4.308-4.455,6.202-2.562c0.077,0.076,0.189,0.05,0.247-0.032
			c1.296-1.834,3.013-2.445,5.005-1.306c0.109,0.062,0.225-0.019,0.234-0.134c0.186-2.246,1.845-3.303,3.865-3.339
			c0.065-0.001,0.136-0.046,0.15-0.114c0.28-1.389-0.924-2.509-0.137-4.133c0.751-1.55,2.772-1.835,4.268-1.955
			c0.112-0.009,0.224-0.139,0.143-0.249c-1.212-1.657-4.913-1.919-6.695-1.625c-1.952,0.322-3.441,1.141-4.744,2.629
			c-0.37,0.423-0.799,2.299-0.994,2.73c-0.785,1.732-2.104,3.08-3.762,3.981C266.205,23.292,266.238,23.374,266.291,23.355
			L266.291,23.355z"/>
	</g>
</g>
<g>
	<path d="M258.292,25.18c0.133-1.919,0.808-4.023,1.454-5.183c0.313,0.626,1.057,1.454,1.086,2.151l0,0
		c0.431-0.35,2.995-0.381,3.567-0.081l0,0c-0.015-0.852,0.661-1.725,0.911-2.298c0.572,0.367,1.424,2.973,1.248,6.996
		c-0.058,1.332-1.292,4.287-2.574,5.139c-0.712,0.473-1.606-0.548-2.467-0.705c-0.353-0.078-1.515-0.639-1.867-0.756
		C259.376,30.365,258.116,27.72,258.292,25.18z"/>
</g>
<g>
	<path fill="#FFFFFF" d="M259.859,24.059c-0.257,0.123-0.524,0.422-0.577,0.699c-0.102,0.542-0.03,0.99,0.296,1.415
		c0.27,0.364,0.729,0.649,1.186,0.574c0.563-0.099,1.363-0.663,0.981-1.819C261.574,24.406,260.744,23.637,259.859,24.059z"/>
</g>
<ellipse cx="260.949" cy="25.253" rx="0.206" ry="0.22"/>
<g>
	<g>
		<path fill="#111111" d="M266.538,23.759c0.009,0,0.009-0.015,0-0.015S266.529,23.759,266.538,23.759L266.538,23.759z"/>
	</g>
</g>
<g>
	<path fill="#FFFFFF" d="M264.358,24.059c0.257,0.123,0.524,0.422,0.577,0.699c0.102,0.542,0.03,0.99-0.296,1.415
		c-0.27,0.364-0.729,0.649-1.186,0.574c-0.563-0.099-1.363-0.663-0.981-1.819C262.643,24.406,263.473,23.637,264.358,24.059z"/>
</g>
<ellipse cx="263.298" cy="25.253" rx="0.206" ry="0.22"/>
<polygon points="259.239,22.473 262.124,25.275 265.604,21.847 "/>
<g>
	<g>
		<path fill="#111111" d="M379.664,24.923c-0.129-1.865-0.785-3.911-1.413-5.039c-0.305,0.609-1.028,1.413-1.057,2.091l0,0
			c-0.418-0.34-2.912-0.371-3.468-0.079l0,0c0.014-0.828-0.642-1.677-0.885-2.234c-0.556,0.357-1.385,2.891-1.213,6.802
			c0.057,1.295,1.256,4.168,2.503,4.997c0.692,0.459,1.561-0.533,2.398-0.686c0.343-0.076,1.473-0.621,1.815-0.735
			C378.61,29.965,379.835,27.393,379.664,24.923z"/>
	</g>
	<g>
		<path fill="#FFFFFF" d="M377.423,23.401c0.104-0.057,0.324,0.057,0.438,0.114c0.247,0.124,0.438,0.352,0.59,0.581
			c0.295,0.447,0.399,0.875,0.267,1.38c-0.105,0.428-0.409,0.856-0.847,0.961c-0.542,0.124-1.113-0.229-1.456-0.628
			c-0.342-0.409-0.2-1.094-0.038-1.542c0.086-0.248,0.257-0.438,0.457-0.6c0.181-0.162,0.323-0.244,0.533-0.282"/>
	</g>
	<g>
		<path fill="#FFFFFF" d="M374.359,23.515c0.209-0.066,0.666,0.162,0.818,0.295c0.228,0.19,0.325,0.381,0.477,0.638
			c0.276,0.457,0.113,1.228-0.201,1.637c-0.305,0.4-0.847,0.466-1.275,0.267c-0.542-0.238-0.904-0.638-0.952-1.256
			c-0.019-0.342,0.114-0.856,0.324-1.132c0.143-0.181,0.497-0.48,0.961-0.476"/>
	</g>
	<ellipse cx="374.796" cy="24.995" rx="0.2" ry="0.214"/>
	<ellipse cx="377.08" cy="24.995" rx="0.2" ry="0.214"/>
</g>
<g>
	<g>
		<path fill="#111111" d="M313.344,35.901c-0.61-1.768-1.776-3.572-2.675-4.498c-0.136,0.667-0.625,1.632-0.477,2.294l0,0
			c-0.492-0.22-2.908,0.399-3.369,0.827l0,0c-0.202-0.803-1.056-1.453-1.436-1.927c-0.444,0.489-0.585,3.151,0.598,6.883
			c0.392,1.235,2.297,3.698,3.717,4.173c0.788,0.264,1.369-0.921,2.137-1.286c0.312-0.163,1.261-0.983,1.562-1.183
			C313.637,41.043,314.151,38.241,313.344,35.901z"/>
	</g>
	<g>
		<path fill="#FFFFFF" d="M310.784,35.014c0.086-0.083,0.327-0.029,0.452-0.003c0.271,0.055,0.514,0.226,0.721,0.407
			c0.401,0.355,0.613,0.742,0.617,1.263c0.01,0.441-0.172,0.934-0.568,1.148c-0.491,0.261-1.134,0.069-1.569-0.228
			c-0.437-0.306-0.478-1.005-0.438-1.479c0.019-0.262,0.134-0.49,0.285-0.698c0.132-0.203,0.249-0.32,0.441-0.411"/>
	</g>
	<g>
		<path fill="#FFFFFF" d="M307.854,35.922c0.185-0.119,0.686-0.018,0.867,0.072c0.27,0.125,0.413,0.283,0.626,0.492
			c0.386,0.369,0.429,1.156,0.232,1.632c-0.19,0.465-0.697,0.671-1.162,0.589c-0.585-0.088-1.039-0.38-1.246-0.965
			c-0.107-0.326-0.112-0.857,0.018-1.178c0.091-0.211,0.355-0.593,0.804-0.709"/>
	</g>
	<ellipse transform="matrix(-0.9658 0.2592 -0.2592 -0.9658 616.4278 -6.7992)" cx="308.662" cy="37.237" rx="0.2" ry="0.214"/>
	<ellipse transform="matrix(-0.9656 0.26 -0.26 -0.9656 620.5701 -8.8056)" cx="310.867" cy="36.643" rx="0.2" ry="0.214"/>
</g>
<g>
	<g>
		<path fill="#111111" d="M516.664,13.923c-0.129-1.865-0.785-3.911-1.413-5.039c-0.305,0.609-1.028,1.413-1.057,2.091l0,0
			c-0.418-0.34-2.912-0.371-3.468-0.079l0,0c0.014-0.828-0.642-1.677-0.885-2.234c-0.556,0.357-1.385,2.891-1.213,6.802
			c0.057,1.295,1.256,4.168,2.503,4.997c0.692,0.459,1.561-0.533,2.398-0.686c0.343-0.076,1.473-0.621,1.815-0.735
			C515.61,18.965,516.835,16.393,516.664,13.923z"/>
	</g>
	<g>
		<path fill="#FFFFFF" d="M514.423,12.401c0.104-0.057,0.324,0.057,0.438,0.114c0.247,0.124,0.438,0.352,0.59,0.581
			c0.295,0.447,0.399,0.875,0.267,1.38c-0.105,0.428-0.409,0.856-0.847,0.961c-0.542,0.124-1.113-0.229-1.456-0.628
			c-0.342-0.409-0.2-1.094-0.038-1.542c0.086-0.248,0.257-0.438,0.457-0.6c0.181-0.162,0.323-0.244,0.533-0.282"/>
	</g>
	<g>
		<path fill="#FFFFFF" d="M511.359,12.515c0.209-0.066,0.666,0.162,0.818,0.295c0.228,0.19,0.325,0.381,0.477,0.638
			c0.276,0.457,0.113,1.228-0.201,1.637c-0.305,0.4-0.847,0.466-1.275,0.267c-0.542-0.238-0.904-0.638-0.952-1.256
			c-0.019-0.342,0.114-0.856,0.324-1.132c0.143-0.181,0.497-0.48,0.961-0.476"/>
	</g>
	<ellipse cx="511.796" cy="13.995" rx="0.2" ry="0.214"/>
	<ellipse cx="514.08" cy="13.995" rx="0.2" ry="0.214"/>
</g>
<g>
	<g>
		<path fill="#111111" d="M422.724,55.651c0.206-1.858-0.075-3.988-0.492-5.209c-0.409,0.545-1.264,1.208-1.413,1.87l0,0
			c-0.351-0.41-2.799-0.884-3.398-0.695l0,0c0.161-0.812-0.333-1.765-0.474-2.356c-0.61,0.252-1.877,2.598-2.406,6.477
			c-0.175,1.285,0.494,4.325,1.573,5.363c0.6,0.576,1.631-0.247,2.482-0.248c0.351-0.014,1.56-0.349,1.917-0.4
			C420.789,60.424,422.453,58.112,422.724,55.651z"/>
	</g>
	<g>
		<path fill="#FFFFFF" d="M420.791,53.754c0.113-0.038,0.308,0.114,0.411,0.19c0.221,0.166,0.367,0.424,0.477,0.676
			c0.21,0.493,0.237,0.933,0.017,1.405c-0.18,0.402-0.555,0.77-1.005,0.795c-0.556,0.025-1.055-0.423-1.321-0.877
			c-0.264-0.464-0.001-1.112,0.237-1.524c0.129-0.228,0.331-0.385,0.557-0.509c0.207-0.126,0.362-0.183,0.574-0.183"/>
	</g>
	<g>
		<path fill="#FFFFFF" d="M417.755,53.32c0.217-0.028,0.626,0.277,0.752,0.436c0.19,0.228,0.251,0.433,0.355,0.712
			c0.191,0.499-0.107,1.228-0.489,1.575c-0.371,0.339-0.917,0.308-1.302,0.035c-0.492-0.331-0.776-0.789-0.713-1.406
			c0.042-0.34,0.265-0.823,0.52-1.057c0.173-0.152,0.575-0.384,1.03-0.297"/>
	</g>
	<ellipse transform="matrix(-0.9839 -0.1785 0.1785 -0.9839 819.3467 183.4088)" cx="417.922" cy="54.854" rx="0.2" ry="0.214"/>
	<ellipse transform="matrix(-0.984 -0.1782 0.1782 -0.984 823.7608 184.5289)" cx="420.169" cy="55.261" rx="0.2" ry="0.214"/>
</g>
<g>
	<path fill="#FF9127" stroke="#7B4F38" stroke-width="0.8915" stroke-miterlimit="10" d="M170.057,54.357
		c-0.714-4.12-3.267-7.02-3.876-7.81c-0.109-0.038-0.217-0.082-0.325-0.127c0.016,0.07,0.026,0.144,0.026,0.225
		c-1.723,0.059-2.793-0.832-4.398-1.129c-1.486-0.238-2.029,1.512-3.685,1.129c-0.097-0.442,0.951-0.975,0.416-1.248
		c-0.255-0.139-1.486,0.594-2.08,0.416c-0.851,0.117-1.174,0.163-1.846,0.494c-1.112,1.49-2.617,5.405-3.266,9.209
		c-0.9,5.287,1.662,10.125,2.942,11.866c2.386,0.761,4.599,1.053,7.266,1.15c1.815,0.04,4.432-0.68,6.595-1.574
		C168.574,64.792,170.99,59.745,170.057,54.357z"/>
	<path fill="#E77E18" stroke="#7B4F38" stroke-width="0.8915" stroke-miterlimit="10" d="M151.023,55.517
		c0.648-3.804,2.153-7.72,3.266-9.209c-0.253,0.125-3.803,1.61-5.16,3.37c-2.234,2.897-3.128,5.349-2.831,8.915
		c0.178,2.021,2.63,6.864,6.018,8.202c0.563,0.223,1.111,0.417,1.649,0.588C152.685,65.641,150.123,60.803,151.023,55.517z"/>
	<path fill="#402717" stroke="#7B4F38" stroke-width="0.3566" stroke-miterlimit="10" d="M158.215,45.397
		c0.535,0.273-0.513,0.806-0.416,1.248c1.656,0.383,2.199-1.367,3.685-1.129c1.605,0.297,2.675,1.188,4.398,1.129
		c0-0.081-0.011-0.155-0.026-0.225c-0.011-0.005-0.022-0.008-0.033-0.013c0.011,0.004,0.022,0.008,0.033,0.013
		c-0.353-1.581-4.488-0.612-4.431-3.4c0.059-0.832,0.832-2.258,1.842-2.258c1.01,0.059,0.716,1.552,0.656,2.325
		c0.654-0.179,1.203-0.166,1.958-0.235l-0.059-0.308c-0.119-1.545-1.902-3.625-3.566-2.853c-1.486,0.653-2.556,3.149-2.497,4.695
		c-1.188-0.119-3.245,0.801-3.625,1.427C156.729,45.992,157.959,45.258,158.215,45.397z"/>
	<path fill="#E77E18" stroke="#7B4F38" stroke-width="0.8915" stroke-miterlimit="10" d="M171.409,49.498
		c-0.772-0.832-1.664-1.604-2.674-2.14c-0.833-0.416-1.71-0.514-2.554-0.811c0.61,0.79,3.163,3.69,3.876,7.81
		c0.933,5.387-1.483,10.435-2.231,12.601c1.023-0.423,1.945-0.885,2.632-1.323c2.675-1.664,4.279-6.509,3.745-9.6
		C173.846,53.896,172.895,51.162,171.409,49.498z"/>
</g>
<path fill="#402717" d="M154.697,53.525c-0.272,0.141,1.265,3.281,1.561,3.32c0.297,0.039,2.34-2.93,2.206-3.202
	C158.329,53.371,154.969,53.385,154.697,53.525z"/>
<path fill="#402717" d="M163.599,53.576c-0.255,0.168,1.623,3.292,1.922,3.299c0.298,0.007,2.115-3.08,1.952-3.335
	C167.311,53.284,163.854,53.407,163.599,53.576z"/>
<path fill="#402717" d="M162.105,56.838c0.075,0.171-1.022,1.888-1.204,1.888c-0.183,0-0.994-1.811-0.891-1.964
	C160.113,56.608,162.074,56.768,162.105,56.838z"/>
<path fill="#402717" d="M155.878,59.34c-0.041,0.201,0.165,1.601,0.312,1.898c0.281,0.573,1.054,1.678,1.185,1.658
	c0.13-0.02,1.336-0.542,1.386-0.492s-0.019,1.3,0,1.346c0.045,0.112,1.437,0.271,2.029,0.271c0.954,0,2.246-0.11,3.144-0.844
	c1.427-1.166,1.774-3.636,1.585-3.747c-0.094-0.055-1.044,0.287-1.967,0.421c-0.935,0.136-1.843,0.065-1.878,0.101
	c-0.07,0.07-0.955,1.548-1.043,1.552c-0.106,0.004-0.772-1.562-0.856-1.612c-0.166-0.099-1.506-0.041-2.34-0.221
	C156.906,59.557,155.878,59.34,155.878,59.34z"/>
<g>
	<path fill="#FF9127" stroke="#7B4F38" stroke-width="0.8269" stroke-miterlimit="10" d="M509.906,53.548
		c-0.739-3.424-3.381-5.834-4.013-6.491c-0.113-0.031-0.225-0.067-0.336-0.105c0.016,0.059,0.027,0.12,0.027,0.187
		c-1.784,0.049-2.891-0.691-4.553-0.938c-1.538-0.197-2.1,1.257-3.814,0.938c-0.1-0.367,0.985-0.81,0.431-1.037
		c-0.264-0.115-1.538,0.494-2.153,0.346c-0.881,0.097-1.215,0.136-1.911,0.411c-1.151,1.238-2.709,4.492-3.38,7.654
		c-0.933,4.393,1.72,8.414,3.045,9.861c0.963,0.897,3.543,1.447,6.304,1.527c1.879,0.033,6.34-0.426,8.043-1.88
		C508.371,62.22,510.873,58.025,509.906,53.548z"/>
	<path fill="#E77E18" stroke="#7B4F38" stroke-width="0.8269" stroke-miterlimit="10" d="M490.204,54.511
		c0.671-3.162,2.229-6.416,3.38-7.654c-0.262,0.103-5.396,0.769-6.8,2.231c-2.313,2.407-2.817,8.472-1.52,11.095
		c1.129,2.285,2.772,2.589,6.279,3.7c0.583,0.186,1.149,0.348,1.707,0.489C491.923,62.925,489.271,58.904,490.204,54.511z"/>
	<path fill="#402717" stroke="#7B4F38" stroke-width="0.3865" stroke-miterlimit="10" d="M497.648,46.106
		c0.554,0.31-0.531,0.915-0.431,1.417c1.714,0.435,2.276-1.552,3.814-1.282c1.662,0.337,2.769,1.349,4.553,1.282
		c0-0.092-0.011-0.176-0.027-0.255c-0.012-0.006-0.023-0.01-0.034-0.015c0.011,0.005,0.022,0.009,0.034,0.015
		c-0.366-1.794-4.646-0.695-4.587-3.859c0.061-0.944,0.862-2.563,1.907-2.563c1.046,0.067-4.388-0.901-4.244-0.665
		c0.892,1.455,0.552,3.025,0.614,4.779c-1.23-0.135-3.359,0.909-3.753,1.619C496.11,46.781,497.384,45.949,497.648,46.106z"/>
	<path fill="#E77E18" stroke="#7B4F38" stroke-width="0.8269" stroke-miterlimit="10" d="M511.886,48.754
		c-2.629-1.178-5.12-1.45-5.993-1.698c0.631,0.657,3.274,3.067,4.013,6.491c0.966,4.477-1.535,8.672-2.31,10.472
		c1.059-0.352,1.758-0.468,2.525-0.647c3.563-0.834,4.936-5.05,4.839-8.753C514.913,52.793,513.652,49.545,511.886,48.754z"/>
</g>
<g>
	<path fill="#402717" d="M496.764,55.435c-1.196-0.427-4.784-1.538-4.955-1.453c-0.171,0.086-0.5,3.005,1.111,3.332
		C494.955,57.727,496.55,56.116,496.764,55.435"/>
	<path fill="#402717" d="M503.278,55.605c1.196-0.427,5.032-1.441,5.203-1.355c0.17,0.085,0.252,2.908-1.359,3.234
		C505.086,57.897,503.492,56.286,503.278,55.605"/>
	<path fill="#402717" d="M494.735,57.805c-0.268,0.178,0.491,1.431,0.683,1.623s0.812,1.089,1.025,1.132
		c0.214,0.043,0.876-0.448,1.004-0.448c0.128,0,0.598,1.281,0.598,1.281l0.684-0.49l0.491,0.661l0.363-0.597l0.598,0.704
		l0.555-0.684l0.918,0.684l0.513-1.089c0,0,0.897,0.534,1.004,0.512s1.024-0.79,1.195-1.174c0.171-0.385,0.918-1.986,0.769-2.114
		c-0.149-0.129-1.645,0.555-1.645,0.555l-1.046,1.377l-1.046-0.972l-0.37,0.6l-0.292-0.386l-0.363,0.438l-0.299-0.502l-0.491,0.449
		l-0.448-0.62l-0.406,0.62l-0.298-0.598l-0.94,0.769c0,0-0.918-1.281-1.067-1.324S494.927,57.676,494.735,57.805z"/>
</g>
<g>
	<g>
		<path fill="#FFFFFF" d="M384.955,56.258c-3.677-0.16-9.753-3.518-10.073-7.436l0,0c-0.16-0.72,0.4-1.358,0.56-2.078
			c0.24-1.04-0.386-3.107-0.626-4.067c-0.56-1.998-1.693-3.448-3.372-4.727c-5.596-4.157-12.312-2.559-14.47,4.956
			c-1.411,4.911,1.759,9.834,5.836,11.272c0.959,0.4,2.739,0.135,3.698,0.374c0.959,0.24,1.579,0.426,2.458,0.745
			c1.999,0.56,4.078,0.8,6.156,1.04c3.118,0.319,6.875,0.719,9.993-0.08"/>
		<g>
			<path d="M384.955,55.898c-2.918-0.334-5.339-1.559-7.579-3.405c-2.46-2.028-1.639-4.133-1.538-6.688
				c0.127-3.21-1.852-6.136-4.14-8.109c-4.197-3.619-10.027-2.839-13.322,1.352c-3.933,5.003-1.937,11.682,3.059,14.909
				c0.649,0.419,1.769,0.782,2.546,0.804c2.74,0.077,5.258,1.044,7.937,1.524c4.351,0.779,8.938,1.148,13.292,0.32
				c0.456-0.086,0.262-0.78-0.191-0.693c-6.921,1.316-12.988-1.179-19.683-1.833c-12.606-1.229-9.219-20.881,2.784-17.512
				c4.151,1.165,8.296,6.65,6.575,11.121c-0.459,1.193,0.077,2.319,0.573,3.382c1.56,3.344,6.304,5.161,9.688,5.548
				C385.415,56.671,385.41,55.951,384.955,55.898L384.955,55.898z"/>
		</g>
	</g>
	<circle stroke="#000000" stroke-width="0.2398" stroke-miterlimit="10" cx="359.052" cy="45.145" r="1.199"/>
	<circle stroke="#000000" stroke-width="0.2398" stroke-miterlimit="10" cx="366.967" cy="45.625" r="1.199"/>
</g>
<g>
	<g>
		<path fill="#FFFFFF" d="M9.792,70.258c3.677-0.16,9.753-3.518,10.073-7.436l0,0c0.16-0.72-0.4-1.358-0.56-2.078
			c-0.24-1.04,0.386-3.107,0.626-4.067c0.56-1.998,1.693-3.448,3.372-4.727c5.596-4.157,12.312-2.559,14.47,4.956
			c1.411,4.911-1.759,9.834-5.836,11.272c-0.959,0.4-2.739,0.135-3.698,0.374c-0.959,0.24-1.579,0.426-2.458,0.745
			c-1.999,0.56-4.078,0.8-6.156,1.04c-3.118,0.319-6.875,0.719-9.993-0.08"/>
		<g>
			<path d="M9.792,70.618c3.207-0.367,7.055-1.849,9.003-4.586c0.593-0.832,1.594-2.155,1.417-3.304
				c-0.726-4.714-0.001-8.269,4.333-11.178c10.024-6.727,18.142,9.496,8.402,15.787c-1.343,0.867-6.888,1.524-8.775,1.979
				c-4.499,1.085-9.889,1.462-14.445,0.596c-0.454-0.087-0.647,0.607-0.191,0.693c3.901,0.742,7.825,0.438,11.742-0.104
				c3.839-0.533,8.495-0.963,12.033-2.543c5.518-2.465,6.567-10.447,3.059-14.909c-3.294-4.191-9.125-4.971-13.322-1.352
				c-2.619,2.258-3.613,4.613-4.127,8.013c-0.321,2.121,1.2,2.29-0.063,4.998c-1.431,3.067-5.98,4.838-9.066,5.192
				C9.337,69.951,9.332,70.67,9.792,70.618L9.792,70.618z"/>
		</g>
	</g>
	<circle stroke="#000000" stroke-width="0.2398" stroke-miterlimit="10" cx="35.695" cy="59.145" r="1.199"/>
	<circle stroke="#000000" stroke-width="0.2398" stroke-miterlimit="10" cx="27.78" cy="59.625" r="1.199"/>
</g>
</svg>
