<?xml version="1.0" encoding="utf-8"?>
<!-- Generator: Adobe Illustrator 16.0.0, SVG Export Plug-In . SVG Version: 6.00 Build 0)  -->
<!DOCTYPE svg PUBLIC "-//W3C//DTD SVG 1.1//EN" "http://www.w3.org/Graphics/SVG/1.1/DTD/svg11.dtd">
<svg version="1.1" id="Layer_1" xmlns="http://www.w3.org/2000/svg" xmlns:xlink="http://www.w3.org/1999/xlink" x="0px" y="0px"
	 width="157.884px" height="23.572px" viewBox="0 0 157.884 23.572" enable-background="new 0 0 157.884 23.572"
	 xml:space="preserve">
<g>
	<path fill="#231F20" stroke="#231F20" stroke-width="0.0117" stroke-miterlimit="22.9256" d="M6.73,8.412c0-0.614,0-1.14,0-1.573
		s0-0.798,0.003-1.089c0-0.295,0.003-0.539,0.007-0.734c0-0.191,0.007-0.36,0.008-0.499C6.756,4.38,6.763,4.248,6.77,4.125
		c0.012-0.344,0.075-0.608,0.18-0.79c0.103-0.179,0.286-0.295,0.542-0.34c0.113-0.021,0.208-0.037,0.279-0.048
		c0.075-0.01,0.142-0.014,0.208-0.014c0.039,0,0.075-0.008,0.108-0.029c0.028-0.02,0.045-0.048,0.048-0.089
		c0-0.06-0.026-0.101-0.075-0.126C8.01,2.666,7.932,2.656,7.823,2.656c-0.148,0-0.327,0.003-0.532,0.01
		C7.088,2.67,6.887,2.679,6.685,2.687c-0.201,0.006-0.375,0.013-0.517,0.02S5.94,2.715,5.911,2.715S5.797,2.713,5.647,2.706
		C5.502,2.699,5.32,2.692,5.1,2.687C4.884,2.679,4.653,2.67,4.408,2.666c-0.242-0.007-0.477-0.01-0.704-0.01
		c-0.105,0-0.183,0.01-0.235,0.033C3.42,2.715,3.393,2.756,3.393,2.815c0.004,0.041,0.021,0.069,0.05,0.089
		C3.474,2.926,3.511,2.934,3.55,2.934c0.062,0,0.133,0,0.214,0.007c0.085,0.004,0.167,0.01,0.248,0.021
		c0.08,0.005,0.147,0.02,0.201,0.033c0.212,0.042,0.377,0.111,0.495,0.204C4.829,3.288,4.91,3.41,4.962,3.563
		c0.049,0.148,0.081,0.338,0.09,0.562C5.059,4.248,5.065,4.38,5.071,4.517c0.004,0.139,0.011,0.308,0.014,0.499
		c0,0.195,0.003,0.439,0.003,0.734c0.004,0.291,0.004,0.655,0.004,1.089s0,0.959,0,1.573v5.738c0,0.852-0.018,1.598-0.05,2.24
		c-0.035,0.646-0.088,1.208-0.156,1.684c-0.069,0.479-0.153,0.894-0.256,1.248c-0.101,0.351-0.227,0.661-0.362,0.928
		c-0.141,0.268-0.296,0.511-0.472,0.73c-0.176,0.222-0.367,0.439-0.58,0.654c-0.09,0.092-0.198,0.189-0.317,0.292
		c-0.125,0.103-0.245,0.191-0.364,0.265c-0.088,0.056-0.156,0.105-0.202,0.149c-0.049,0.042-0.073,0.092-0.073,0.147
		c0.003,0.04,0.017,0.069,0.047,0.09c0.027,0.02,0.057,0.03,0.089,0.03c0.03,0,0.057-0.008,0.076-0.014
		c0.022-0.006,0.042-0.017,0.062-0.026c0.1-0.052,0.221-0.127,0.357-0.219c0.139-0.094,0.272-0.186,0.403-0.277
		c0.527-0.371,0.976-0.725,1.35-1.062c0.375-0.336,0.685-0.668,0.93-0.998c0.243-0.322,0.436-0.649,0.57-0.978
		c0.116-0.28,0.212-0.56,0.286-0.844c0.075-0.28,0.13-0.581,0.172-0.9c0.042-0.32,0.071-0.674,0.088-1.068
		c0.02-0.39,0.03-0.836,0.035-1.336C6.73,14.384,6.73,13.816,6.73,13.18V8.412L6.73,8.412z"/>
	<path fill="#231F20" stroke="#231F20" stroke-width="0.0117" stroke-miterlimit="22.9256" d="M13.067,12.297
		c0.003,0.633,0.042,1.188,0.118,1.67c0.08,0.483,0.189,0.903,0.329,1.264c0.139,0.358,0.3,0.673,0.486,0.938
		c0.189,0.268,0.391,0.498,0.607,0.702c0.32,0.29,0.658,0.515,1.016,0.684c0.362,0.168,0.711,0.292,1.053,0.37
		c0.346,0.079,0.654,0.128,0.932,0.15c0.274,0.024,0.493,0.033,0.646,0.031c0.352,0.003,0.728-0.024,1.127-0.089
		c0.402-0.061,0.814-0.185,1.239-0.371c0.427-0.186,0.853-0.462,1.279-0.829c0.352-0.309,0.639-0.665,0.854-1.068
		c0.215-0.4,0.38-0.832,0.493-1.289c0.111-0.458,0.188-0.927,0.226-1.41c0.041-0.479,0.059-0.957,0.057-1.431V9.759
		c0-0.538,0-0.999,0-1.379s0-0.698,0.002-0.953c0-0.258,0.003-0.473,0.007-0.644c0.003-0.169,0.004-0.316,0.009-0.438
		c0.005-0.118,0.012-0.233,0.017-0.343c0.012-0.299,0.068-0.528,0.163-0.683c0.094-0.155,0.258-0.257,0.492-0.307
		c0.103-0.017,0.188-0.033,0.254-0.041c0.067-0.009,0.128-0.011,0.187-0.011c0.04,0,0.071-0.009,0.099-0.026
		c0.03-0.018,0.044-0.043,0.044-0.077c0-0.053-0.024-0.087-0.068-0.111c-0.047-0.021-0.118-0.029-0.215-0.029
		c-0.136,0-0.28,0.004-0.439,0.009c-0.157,0.003-0.311,0.012-0.458,0.019c-0.147,0.005-0.275,0.011-0.38,0.017
		c-0.106,0.005-0.174,0.01-0.211,0.01c-0.029,0-0.102-0.005-0.223-0.01c-0.122-0.006-0.275-0.012-0.455-0.017
		c-0.179-0.007-0.375-0.016-0.584-0.019c-0.206-0.005-0.411-0.009-0.614-0.009c-0.097,0-0.168,0.009-0.214,0.029
		c-0.043,0.024-0.068,0.059-0.068,0.111c0.003,0.034,0.018,0.06,0.043,0.077c0.029,0.018,0.062,0.026,0.097,0.026
		c0.057,0,0.122,0,0.196,0.006c0.076,0.002,0.149,0.009,0.224,0.017C21.507,4.988,21.569,5,21.616,5.013
		c0.192,0.038,0.341,0.099,0.449,0.18c0.109,0.078,0.182,0.186,0.229,0.318c0.045,0.131,0.075,0.296,0.083,0.491
		c0.009,0.109,0.014,0.225,0.017,0.343c0.006,0.122,0.01,0.27,0.014,0.438c0,0.171,0.002,0.386,0.002,0.644
		C22.412,7.682,22.412,8,22.412,8.38s0,0.841,0,1.379v2.174c0.003,0.596-0.026,1.158-0.085,1.681c-0.059,0.521-0.163,1-0.312,1.43
		c-0.151,0.436-0.361,0.818-0.629,1.15c-0.215,0.25-0.47,0.468-0.766,0.656c-0.294,0.187-0.612,0.329-0.955,0.434
		c-0.343,0.106-0.695,0.159-1.06,0.159c-0.333,0.004-0.65-0.019-0.949-0.066c-0.295-0.053-0.587-0.147-0.868-0.287
		c-0.282-0.139-0.568-0.338-0.855-0.602c-0.191-0.177-0.368-0.383-0.527-0.619c-0.162-0.239-0.3-0.521-0.422-0.854
		c-0.118-0.335-0.211-0.732-0.277-1.196c-0.064-0.46-0.101-1.003-0.101-1.624V9.759c0-0.538,0-0.999,0-1.379s0-0.698,0.004-0.953
		c0-0.258,0.003-0.473,0.007-0.644c0-0.169,0.005-0.316,0.008-0.438c0.006-0.118,0.011-0.233,0.018-0.343
		c0.012-0.303,0.067-0.535,0.161-0.697c0.095-0.161,0.26-0.26,0.492-0.292c0.105-0.017,0.19-0.033,0.254-0.041
		c0.068-0.009,0.13-0.011,0.189-0.011c0.038,0,0.071-0.009,0.097-0.026c0.029-0.018,0.045-0.043,0.045-0.077
		c0-0.053-0.025-0.087-0.068-0.111c-0.049-0.021-0.118-0.029-0.215-0.029c-0.137,0-0.295,0.004-0.476,0.009
		c-0.18,0.003-0.359,0.012-0.54,0.019c-0.181,0.005-0.337,0.011-0.472,0.017c-0.133,0.005-0.222,0.01-0.265,0.01
		c-0.045,0-0.134-0.005-0.274-0.01c-0.139-0.006-0.308-0.012-0.505-0.017c-0.198-0.007-0.406-0.016-0.625-0.019
		c-0.219-0.005-0.429-0.009-0.632-0.009c-0.096,0-0.168,0.009-0.214,0.029c-0.046,0.024-0.068,0.059-0.068,0.111
		c0.001,0.034,0.017,0.06,0.043,0.077c0.031,0.018,0.062,0.026,0.098,0.026c0.057,0,0.122,0,0.195,0.006
		c0.078,0.002,0.15,0.009,0.225,0.017C12.161,4.988,12.22,5,12.27,5.013c0.193,0.038,0.343,0.099,0.45,0.18
		c0.105,0.078,0.182,0.186,0.229,0.318c0.045,0.131,0.075,0.296,0.083,0.491c0.005,0.109,0.011,0.225,0.018,0.343
		c0.003,0.122,0.008,0.27,0.008,0.438c0.003,0.171,0.005,0.386,0.005,0.644C13.067,7.682,13.067,8,13.067,8.38s0,0.841,0,1.379
		V12.297L13.067,12.297z"/>
	<path fill="#231F20" stroke="#231F20" stroke-width="0.0117" stroke-miterlimit="22.9256" d="M29.666,12.84
		c0,0.557,0,1.071-0.003,1.548c-0.003,0.476-0.011,0.901-0.023,1.273c-0.012,0.376-0.032,0.683-0.062,0.93
		c-0.022,0.164-0.051,0.316-0.088,0.453c-0.035,0.132-0.085,0.245-0.153,0.329c-0.065,0.084-0.157,0.143-0.275,0.165
		c-0.084,0.018-0.172,0.036-0.265,0.05c-0.095,0.011-0.185,0.021-0.268,0.021c-0.052,0-0.088,0.011-0.109,0.029
		c-0.024,0.021-0.033,0.047-0.033,0.073c0,0.052,0.024,0.087,0.069,0.107c0.047,0.022,0.118,0.03,0.215,0.03
		c0.137-0.003,0.299-0.008,0.483-0.018c0.184-0.011,0.366-0.017,0.547-0.017c0.191-0.008,0.352-0.016,0.482-0.016
		c0.132-0.001,0.209-0.001,0.229-0.001c0.034,0,0.115,0.005,0.249,0.014c0.134,0.012,0.305,0.023,0.515,0.039
		c0.21,0.017,0.446,0.033,0.71,0.049c0.257,0.018,0.527,0.035,0.811,0.049c0.281,0.018,0.565,0.031,0.847,0.042
		c0.284,0.008,0.553,0.016,0.81,0.016c0.755-0.008,1.423-0.073,2.007-0.203c0.586-0.13,1.095-0.297,1.53-0.501
		c0.436-0.205,0.802-0.416,1.107-0.646c0.303-0.228,0.547-0.439,0.737-0.64c0.251-0.255,0.491-0.55,0.72-0.885
		c0.227-0.336,0.432-0.707,0.612-1.116c0.181-0.411,0.323-0.854,0.426-1.336c0.104-0.478,0.158-0.99,0.159-1.535
		c-0.005-0.686-0.087-1.303-0.247-1.85C41.24,8.743,41.03,8.259,40.77,7.838c-0.257-0.421-0.538-0.781-0.84-1.081
		c-0.428-0.424-0.889-0.763-1.382-1.021c-0.497-0.26-1.006-0.455-1.531-0.591c-0.523-0.133-1.041-0.229-1.551-0.276
		c-0.508-0.049-0.991-0.075-1.444-0.081c-0.453-0.003-0.858-0.003-1.213,0c-0.27,0-0.533,0.003-0.793,0.008
		c-0.26,0.004-0.503,0.012-0.726,0.018c-0.222,0.007-0.411,0.012-0.563,0.017c-0.154,0.008-0.26,0.009-0.315,0.009
		c-0.028,0-0.104-0.001-0.239-0.009c-0.133-0.005-0.299-0.01-0.498-0.017c-0.198-0.006-0.408-0.014-0.629-0.018
		c-0.223-0.005-0.437-0.008-0.639-0.008c-0.099,0-0.17,0.008-0.217,0.028c-0.043,0.022-0.068,0.058-0.068,0.11
		c0.004,0.034,0.018,0.06,0.044,0.078c0.031,0.017,0.062,0.025,0.099,0.025c0.055,0,0.121,0,0.194,0.006
		c0.078,0.003,0.15,0.009,0.225,0.018c0.076,0.004,0.135,0.017,0.184,0.028c0.191,0.037,0.342,0.098,0.45,0.179
		c0.109,0.078,0.184,0.184,0.23,0.317c0.043,0.128,0.073,0.293,0.084,0.489c0.004,0.106,0.01,0.22,0.016,0.339
		c0.004,0.122,0.009,0.268,0.012,0.434c0,0.17,0.003,0.385,0.003,0.641c0.003,0.253,0.003,0.569,0.003,0.948
		c0,0.376,0,0.834,0,1.369V12.84L29.666,12.84z M31.158,9.522c0-0.337,0-0.688,0-1.055c0-0.365,0-0.719,0.001-1.064
		c0-0.343,0.003-0.655,0.007-0.926c0-0.272,0.005-0.485,0.009-0.636c0-0.094,0.014-0.166,0.047-0.219s0.085-0.095,0.166-0.126
		c0.039-0.019,0.1-0.035,0.19-0.051c0.088-0.014,0.19-0.024,0.307-0.037c0.116-0.01,0.23-0.018,0.347-0.025
		c0.114-0.006,0.219-0.009,0.311-0.009c0.529-0.002,1.05,0.018,1.566,0.064c0.512,0.047,1.015,0.139,1.502,0.271
		c0.491,0.136,0.965,0.331,1.423,0.592c0.458,0.261,0.896,0.599,1.313,1.025c0.187,0.186,0.376,0.415,0.575,0.687
		c0.197,0.271,0.381,0.587,0.549,0.946c0.171,0.361,0.311,0.768,0.419,1.219c0.105,0.456,0.159,0.957,0.163,1.503
		c0,0.401-0.031,0.797-0.092,1.192c-0.062,0.395-0.151,0.775-0.273,1.138c-0.117,0.366-0.267,0.698-0.444,1.004
		c-0.177,0.309-0.381,0.573-0.613,0.796c-0.352,0.34-0.747,0.632-1.191,0.868c-0.448,0.239-0.924,0.421-1.436,0.549
		c-0.512,0.126-1.045,0.189-1.599,0.189c-0.52,0-0.961-0.02-1.322-0.061c-0.361-0.041-0.657-0.095-0.885-0.162
		c-0.231-0.064-0.409-0.142-0.536-0.221c-0.128-0.085-0.22-0.164-0.275-0.247c-0.048-0.07-0.083-0.179-0.11-0.328
		c-0.026-0.154-0.047-0.317-0.06-0.496c-0.012-0.179-0.021-0.34-0.025-0.489c-0.005-0.083-0.009-0.239-0.012-0.466
		c-0.005-0.229-0.009-0.509-0.013-0.845c-0.001-0.337-0.005-0.711-0.008-1.125c-0.001-0.417-0.001-0.854-0.001-1.314V9.522
		L31.158,9.522z"/>
	<path fill="#231F20" stroke="#231F20" stroke-width="0.0117" stroke-miterlimit="22.9256" d="M48.951,14.906
		c0,0.093,0,0.226-0.003,0.398c0,0.176-0.005,0.374-0.014,0.599c-0.009,0.223-0.021,0.452-0.041,0.691
		c-0.017,0.248-0.075,0.456-0.17,0.62c-0.098,0.167-0.242,0.271-0.436,0.309c-0.09,0.017-0.189,0.032-0.293,0.05
		c-0.104,0.01-0.202,0.02-0.292,0.02c-0.059,0-0.097,0.009-0.122,0.028c-0.026,0.021-0.035,0.047-0.035,0.071
		c0,0.051,0.026,0.085,0.076,0.104c0.052,0.022,0.129,0.03,0.236,0.03c0.153,0,0.329-0.003,0.533-0.008
		c0.201-0.007,0.406-0.011,0.606-0.016c0.201-0.007,0.373-0.013,0.516-0.019c0.142-0.004,0.227-0.008,0.258-0.008
		c0.028,0,0.116,0.004,0.265,0.008c0.149,0.006,0.338,0.012,0.57,0.019c0.227,0.005,0.479,0.009,0.751,0.016
		c0.27,0.005,0.543,0.008,0.814,0.008c0.105,0,0.184-0.012,0.236-0.036c0.048-0.022,0.074-0.057,0.074-0.099
		c0-0.024-0.008-0.05-0.031-0.071c-0.026-0.02-0.066-0.028-0.123-0.028c-0.062,0-0.144-0.005-0.245-0.01
		c-0.104-0.009-0.211-0.018-0.324-0.027c-0.111-0.009-0.216-0.021-0.309-0.032c-0.193-0.022-0.349-0.078-0.46-0.164
		c-0.113-0.081-0.194-0.19-0.246-0.319c-0.052-0.133-0.085-0.282-0.094-0.445c-0.021-0.239-0.033-0.469-0.042-0.691
		c-0.007-0.225-0.013-0.423-0.013-0.599c-0.003-0.173-0.003-0.306-0.003-0.398v-1.451c-0.003-0.187,0.003-0.37,0.009-0.554
		c0.011-0.18,0.037-0.365,0.078-0.551c0.041-0.189,0.11-0.383,0.205-0.585c0.052-0.106,0.147-0.271,0.283-0.49
		c0.137-0.222,0.303-0.479,0.498-0.773c0.197-0.296,0.405-0.61,0.632-0.943c0.227-0.332,0.455-0.663,0.689-0.997
		c0.23-0.328,0.455-0.641,0.667-0.935c0.211-0.29,0.404-0.545,0.569-0.76c0.167-0.217,0.297-0.373,0.391-0.472
		c0.14-0.151,0.263-0.278,0.371-0.383c0.106-0.103,0.214-0.192,0.318-0.267c0.101-0.076,0.218-0.147,0.345-0.213
		c0.16-0.083,0.321-0.142,0.484-0.181c0.164-0.038,0.302-0.055,0.413-0.055c0.078,0,0.141-0.014,0.186-0.036
		c0.045-0.022,0.068-0.057,0.068-0.1c-0.002-0.032-0.026-0.059-0.075-0.074c-0.048-0.019-0.107-0.025-0.179-0.025
		c-0.078,0-0.185,0-0.327,0.005c-0.141,0.002-0.296,0.006-0.466,0.011c-0.167,0.006-0.331,0.012-0.487,0.018
		c-0.16,0.003-0.293,0.008-0.405,0.011c-0.113,0.004-0.182,0.007-0.206,0.007c-0.056,0-0.154-0.007-0.291-0.015
		c-0.141-0.009-0.296-0.019-0.475-0.022c-0.175-0.009-0.35-0.014-0.524-0.014c-0.097,0-0.175,0.007-0.228,0.025
		C53.078,5.104,53.05,5.13,53.05,5.162c0,0.04,0.027,0.074,0.079,0.097c0.052,0.025,0.125,0.048,0.211,0.072
		c0.118,0.026,0.199,0.083,0.246,0.167c0.048,0.086,0.071,0.186,0.068,0.307c0.003,0.11-0.022,0.236-0.071,0.38
		c-0.048,0.145-0.137,0.304-0.26,0.481c-0.06,0.081-0.153,0.22-0.284,0.413c-0.129,0.191-0.286,0.422-0.464,0.69
		c-0.18,0.267-0.372,0.553-0.573,0.862c-0.205,0.305-0.407,0.611-0.611,0.922c-0.201,0.309-0.394,0.603-0.572,0.881
		c-0.176,0.275-0.333,0.519-0.458,0.727c-0.13,0.208-0.222,0.364-0.278,0.47c-0.052-0.074-0.149-0.216-0.291-0.427
		c-0.144-0.207-0.315-0.461-0.518-0.763c-0.449-0.664-0.9-1.328-1.347-1.997c-0.231-0.344-0.446-0.664-0.647-0.966
		c-0.197-0.297-0.37-0.551-0.507-0.759c-0.141-0.212-0.23-0.354-0.279-0.426c-0.078-0.126-0.141-0.241-0.186-0.349
		c-0.046-0.106-0.069-0.211-0.069-0.311c0-0.067,0.023-0.126,0.069-0.176c0.045-0.051,0.107-0.094,0.186-0.128
		c0.09-0.033,0.158-0.056,0.21-0.075c0.052-0.02,0.081-0.045,0.081-0.076c0.004-0.033-0.012-0.063-0.045-0.084
		c-0.036-0.022-0.104-0.033-0.208-0.033c-0.256,0-0.5,0.005-0.732,0.014c-0.231,0.004-0.428,0.014-0.591,0.022
		c-0.159,0.008-0.266,0.015-0.314,0.015c-0.022,0-0.092-0.003-0.203-0.007c-0.113-0.003-0.25-0.008-0.412-0.011
		c-0.163-0.006-0.333-0.012-0.504-0.018c-0.175-0.005-0.335-0.009-0.478-0.011c-0.147-0.005-0.256-0.005-0.334-0.005
		c-0.089,0-0.154,0.011-0.192,0.033c-0.042,0.021-0.062,0.051-0.062,0.084c0.003,0.042,0.024,0.07,0.062,0.091
		c0.038,0.02,0.081,0.027,0.133,0.027c0.061,0,0.138,0.011,0.231,0.032c0.093,0.022,0.192,0.052,0.299,0.092
		c0.107,0.042,0.211,0.089,0.309,0.146c0.178,0.103,0.383,0.257,0.613,0.468c0.23,0.209,0.467,0.471,0.714,0.782
		c0.102,0.127,0.234,0.306,0.4,0.532c0.163,0.227,0.352,0.481,0.557,0.769c0.205,0.286,0.42,0.586,0.64,0.897
		c0.219,0.31,0.436,0.615,0.644,0.915c0.208,0.298,0.399,0.571,0.573,0.821c0.171,0.25,0.316,0.456,0.421,0.618
		c0.111,0.167,0.177,0.27,0.199,0.312c0.083,0.157,0.162,0.317,0.231,0.476c0.064,0.156,0.12,0.337,0.16,0.538
		c0.038,0.206,0.057,0.458,0.057,0.76V14.906L48.951,14.906z"/>
	<path fill="#231F20" stroke="#231F20" stroke-width="0.0117" stroke-miterlimit="22.9256" d="M78.678,8.431c0-0.625,0-1.16,0-1.601
		c0-0.438,0-0.809,0.003-1.104c0-0.3,0.003-0.549,0.007-0.748c0.004-0.193,0.008-0.365,0.008-0.506
		c0.007-0.138,0.014-0.272,0.022-0.396c0.012-0.351,0.074-0.62,0.179-0.805c0.104-0.181,0.286-0.299,0.542-0.345
		c0.113-0.021,0.209-0.036,0.279-0.047c0.075-0.011,0.142-0.015,0.208-0.015c0.042,0,0.079-0.011,0.108-0.029
		c0.031-0.021,0.049-0.051,0.049-0.092c0-0.059-0.025-0.101-0.074-0.127c-0.052-0.024-0.131-0.035-0.239-0.035
		c-0.148,0-0.327,0.005-0.53,0.011c-0.205,0.004-0.406,0.015-0.608,0.021c-0.201,0.007-0.373,0.014-0.517,0.02
		c-0.142,0.008-0.227,0.011-0.257,0.011c-0.026,0-0.114-0.003-0.26-0.011c-0.146-0.006-0.331-0.013-0.551-0.02
		c-0.216-0.006-0.447-0.017-0.691-0.021c-0.244-0.006-0.477-0.011-0.703-0.011c-0.106,0-0.184,0.011-0.235,0.035
		c-0.049,0.026-0.075,0.068-0.075,0.127c0.002,0.041,0.02,0.071,0.048,0.092c0.031,0.019,0.069,0.029,0.108,0.029
		c0.061,0,0.132,0,0.213,0.007c0.085,0.004,0.168,0.01,0.249,0.021c0.08,0.005,0.149,0.02,0.202,0.033
		c0.211,0.043,0.376,0.114,0.494,0.207c0.12,0.091,0.201,0.216,0.253,0.371C76.959,3.655,76.991,3.846,77,4.075
		c0.011,0.124,0.017,0.259,0.021,0.396c0.004,0.141,0.009,0.312,0.013,0.506c0,0.199,0.003,0.448,0.003,0.748
		c0.004,0.296,0.004,0.666,0.004,1.104c0,0.44,0,0.976,0,1.601v0.424c0,0.05-0.015,0.078-0.038,0.097
		c-0.021,0.017-0.048,0.023-0.081,0.023h-8.273c-0.028,0-0.059-0.007-0.081-0.023c-0.022-0.019-0.037-0.047-0.037-0.097V8.431
		c0-0.625,0-1.16,0-1.601c0-0.438,0-0.809,0.003-1.104c0-0.3,0.003-0.549,0.007-0.748c0-0.193,0.007-0.365,0.01-0.506
		c0.007-0.138,0.012-0.272,0.019-0.396c0.012-0.351,0.075-0.62,0.179-0.805c0.104-0.181,0.287-0.299,0.543-0.345
		c0.114-0.021,0.208-0.036,0.279-0.047c0.074-0.011,0.145-0.015,0.209-0.015c0.042,0,0.078-0.011,0.107-0.029
		c0.033-0.021,0.047-0.051,0.047-0.092c0-0.059-0.025-0.101-0.074-0.127c-0.053-0.024-0.131-0.035-0.237-0.035
		c-0.15,0-0.329,0.005-0.533,0.011c-0.203,0.004-0.405,0.015-0.606,0.021c-0.201,0.007-0.373,0.014-0.517,0.02
		c-0.142,0.008-0.227,0.011-0.257,0.011c-0.029,0-0.113-0.003-0.264-0.011c-0.146-0.006-0.328-0.013-0.544-0.02
		c-0.219-0.006-0.45-0.017-0.693-0.021c-0.244-0.006-0.479-0.011-0.703-0.011c-0.108,0-0.185,0.011-0.237,0.035
		c-0.048,0.026-0.076,0.068-0.076,0.127c0.004,0.041,0.021,0.071,0.05,0.092c0.033,0.019,0.067,0.029,0.107,0.029
		c0.061,0,0.134,0,0.213,0.007c0.084,0.004,0.167,0.01,0.248,0.021c0.082,0.005,0.146,0.02,0.202,0.033
		c0.212,0.043,0.377,0.114,0.495,0.207c0.12,0.091,0.201,0.216,0.253,0.371c0.048,0.151,0.081,0.342,0.091,0.571
		c0.005,0.124,0.013,0.259,0.019,0.396c0.003,0.141,0.009,0.312,0.012,0.506c0,0.199,0.003,0.448,0.003,0.748
		c0.003,0.296,0.003,0.666,0.003,1.104c0,0.44,0,0.976,0,1.601v3.549c0,0.648,0,1.25-0.003,1.809
		c-0.003,0.553-0.012,1.053-0.026,1.486c-0.011,0.435-0.035,0.796-0.068,1.081c-0.022,0.194-0.056,0.373-0.095,0.531
		c-0.039,0.153-0.094,0.284-0.168,0.383c-0.071,0.101-0.172,0.168-0.302,0.194c-0.092,0.021-0.189,0.041-0.293,0.057
		c-0.105,0.015-0.203,0.025-0.294,0.025c-0.057,0-0.097,0.014-0.12,0.037c-0.025,0.023-0.036,0.055-0.036,0.083
		c0,0.06,0.026,0.102,0.076,0.124c0.052,0.027,0.13,0.037,0.236,0.037c0.153,0,0.331-0.003,0.535-0.01
		c0.201-0.007,0.405-0.013,0.603-0.019c0.202-0.009,0.375-0.017,0.518-0.021c0.144-0.007,0.228-0.01,0.257-0.01
		c0.03,0,0.119,0.003,0.268,0.01c0.146,0.005,0.338,0.013,0.569,0.021c0.227,0.006,0.478,0.012,0.751,0.019
		c0.269,0.007,0.544,0.01,0.812,0.01c0.107,0,0.186-0.014,0.238-0.045c0.048-0.025,0.074-0.065,0.074-0.116
		c0-0.028-0.007-0.06-0.032-0.083c-0.027-0.023-0.065-0.037-0.124-0.037c-0.061,0-0.142-0.004-0.243-0.011
		c-0.104-0.011-0.211-0.021-0.327-0.03c-0.11-0.014-0.213-0.028-0.309-0.041c-0.19-0.026-0.342-0.094-0.445-0.194
		c-0.103-0.099-0.176-0.229-0.221-0.383c-0.045-0.158-0.078-0.337-0.093-0.531c-0.033-0.285-0.056-0.646-0.07-1.081
		c-0.012-0.434-0.022-0.934-0.026-1.486c-0.003-0.559-0.003-1.16-0.003-1.809V9.862c0-0.052,0.014-0.085,0.037-0.099
		c0.022-0.016,0.053-0.026,0.081-0.022h8.273c0.033,0,0.06,0.01,0.081,0.031c0.022,0.02,0.038,0.05,0.038,0.09v2.117
		c0,0.648,0,1.25-0.004,1.809c-0.003,0.553-0.011,1.053-0.025,1.486c-0.015,0.435-0.037,0.796-0.069,1.081
		c-0.024,0.194-0.055,0.373-0.095,0.531c-0.038,0.153-0.093,0.284-0.168,0.383c-0.071,0.101-0.173,0.168-0.303,0.194
		c-0.09,0.021-0.188,0.041-0.291,0.057c-0.105,0.015-0.202,0.025-0.294,0.025c-0.059,0-0.097,0.014-0.12,0.037
		c-0.026,0.023-0.037,0.055-0.037,0.083c0,0.06,0.026,0.102,0.075,0.124c0.052,0.027,0.13,0.037,0.238,0.037
		c0.152,0,0.328-0.003,0.533-0.01c0.203-0.007,0.408-0.013,0.61-0.019c0.197-0.009,0.369-0.017,0.513-0.021
		c0.142-0.007,0.227-0.01,0.256-0.01c0.03,0,0.116,0.003,0.268,0.01c0.149,0.005,0.338,0.013,0.57,0.021
		c0.231,0.006,0.48,0.012,0.749,0.019c0.271,0.007,0.544,0.01,0.814,0.01c0.107,0,0.186-0.014,0.238-0.045
		c0.049-0.025,0.074-0.065,0.074-0.116c0-0.028-0.01-0.06-0.033-0.083c-0.026-0.023-0.063-0.037-0.123-0.037
		c-0.062,0-0.144-0.004-0.244-0.011c-0.105-0.011-0.21-0.021-0.324-0.03c-0.111-0.014-0.215-0.028-0.31-0.041
		c-0.192-0.026-0.341-0.094-0.445-0.194c-0.102-0.099-0.175-0.229-0.221-0.383c-0.045-0.158-0.078-0.337-0.095-0.531
		c-0.031-0.285-0.054-0.646-0.068-1.081c-0.011-0.434-0.022-0.934-0.026-1.486c-0.003-0.559-0.003-1.16-0.003-1.809V8.431
		L78.678,8.431z"/>
	<path fill="#231F20" stroke="#231F20" stroke-width="0.0117" stroke-miterlimit="22.9256" d="M84.982,16.004
		c-0.109,0.289-0.232,0.548-0.368,0.78c-0.138,0.229-0.304,0.417-0.499,0.562c-0.193,0.146-0.436,0.237-0.722,0.275
		c-0.084,0.009-0.174,0.018-0.282,0.022c-0.108,0.009-0.196,0.011-0.269,0.011c-0.047,0-0.088,0.009-0.12,0.025
		c-0.031,0.02-0.05,0.044-0.05,0.078c0,0.053,0.027,0.088,0.088,0.108c0.058,0.021,0.147,0.03,0.271,0.03
		c0.224,0,0.451-0.003,0.682-0.009c0.227-0.005,0.442-0.011,0.643-0.019c0.204-0.003,0.377-0.01,0.52-0.018
		c0.14-0.005,0.243-0.006,0.296-0.006c0.055,0,0.14,0.001,0.255,0.006c0.113,0.008,0.247,0.015,0.393,0.018
		c0.143,0.008,0.289,0.014,0.435,0.019c0.148,0.006,0.278,0.009,0.393,0.009c0.085,0,0.156-0.009,0.206-0.03
		c0.049-0.021,0.079-0.056,0.079-0.108c0-0.034-0.015-0.059-0.044-0.078c-0.032-0.017-0.078-0.025-0.144-0.025h-0.191
		c-0.109,0-0.22-0.016-0.328-0.05c-0.11-0.039-0.202-0.092-0.275-0.167c-0.076-0.07-0.114-0.167-0.115-0.281
		c0-0.157,0.02-0.332,0.069-0.529c0.042-0.198,0.109-0.405,0.194-0.623l1.137-3.047c0.02-0.042,0.046-0.074,0.073-0.099
		c0.031-0.026,0.069-0.038,0.118-0.038h4.072c0.047,0,0.083,0.009,0.107,0.025c0.027,0.019,0.046,0.044,0.063,0.078l1.763,4.232
		c0.052,0.137,0.062,0.247,0.027,0.325c-0.032,0.078-0.08,0.123-0.142,0.14c-0.038,0.009-0.069,0.022-0.096,0.041
		c-0.024,0.018-0.035,0.045-0.035,0.081c0,0.047,0.049,0.078,0.146,0.09c0.099,0.014,0.24,0.022,0.421,0.027
		c0.331,0.009,0.655,0.017,0.974,0.022c0.323,0.005,0.62,0.008,0.897,0.008c0.274,0.003,0.508,0.006,0.701,0.006
		c0.191,0,0.328,0,0.401,0c0.108,0,0.196-0.009,0.267-0.03c0.07-0.021,0.108-0.056,0.112-0.108c0-0.041-0.02-0.069-0.051-0.082
		c-0.033-0.014-0.082-0.021-0.139-0.021c-0.098,0-0.211-0.003-0.343-0.02c-0.135-0.014-0.27-0.039-0.415-0.083
		c-0.097-0.022-0.209-0.065-0.324-0.126c-0.121-0.063-0.248-0.16-0.382-0.293c-0.136-0.134-0.281-0.321-0.436-0.562
		c-0.154-0.238-0.316-0.547-0.486-0.929c-0.146-0.331-0.316-0.721-0.509-1.17c-0.196-0.449-0.404-0.938-0.629-1.463
		c-0.223-0.523-0.453-1.069-0.691-1.625c-0.239-0.561-0.474-1.117-0.703-1.666c-0.234-0.548-0.454-1.073-0.667-1.572
		c-0.208-0.496-0.397-0.945-0.569-1.35c-0.17-0.402-0.31-0.737-0.421-1.004c-0.117-0.264-0.189-0.439-0.227-0.523
		c-0.075-0.177-0.135-0.311-0.182-0.4c-0.048-0.089-0.092-0.148-0.126-0.177c-0.035-0.032-0.07-0.047-0.107-0.044
		c-0.039-0.003-0.074,0.015-0.107,0.05c-0.035,0.03-0.079,0.096-0.126,0.195c-0.048,0.097-0.107,0.239-0.183,0.426L84.982,16.004
		L84.982,16.004z M87.636,12.202c-0.031,0-0.053-0.009-0.065-0.03c-0.011-0.018-0.011-0.048,0.007-0.09l1.667-4.645
		c0.094-0.26,0.189-0.26,0.285,0l1.799,4.645c0.012,0.034,0.012,0.061,0.006,0.084c-0.009,0.022-0.034,0.036-0.082,0.036H87.636
		L87.636,12.202z"/>
	<path fill="#231F20" stroke="#231F20" stroke-width="0.0117" stroke-miterlimit="22.9256" d="M100.58,16.9
		c1.34-1.948,2.665-3.894,3.983-5.839c1.319-1.945,2.613-3.891,3.89-5.836c0.034-0.049,0.055-0.088,0.061-0.115
		c0.011-0.026,0.012-0.057,0.011-0.088c0.001-0.051-0.025-0.085-0.076-0.107c-0.054-0.021-0.146-0.029-0.276-0.029h-4.904
		c-0.178,0-0.399,0-0.664,0.005c-0.265,0-0.589-0.005-0.98-0.014c-0.388-0.005-0.861-0.019-1.414-0.041
		c-0.155-0.006-0.278-0.02-0.366-0.04c-0.09-0.017-0.162-0.036-0.217-0.053c-0.053-0.015-0.106-0.026-0.155-0.026
		c-0.051-0.002-0.089,0.023-0.115,0.071c-0.024,0.051-0.043,0.133-0.062,0.251c-0.017,0.104-0.041,0.24-0.069,0.407
		c-0.029,0.17-0.059,0.351-0.09,0.546c-0.034,0.195-0.064,0.38-0.092,0.563c-0.029,0.181-0.052,0.339-0.07,0.473
		c-0.02,0.129-0.029,0.217-0.029,0.262c0,0.065,0.005,0.12,0.021,0.161c0.014,0.037,0.04,0.059,0.086,0.059
		c0.043,0.002,0.081-0.018,0.116-0.058c0.033-0.042,0.059-0.123,0.078-0.248c0.017-0.133,0.064-0.282,0.143-0.448
		c0.077-0.165,0.188-0.326,0.329-0.485c0.142-0.157,0.319-0.293,0.529-0.403c0.194-0.096,0.429-0.166,0.706-0.218
		c0.281-0.047,0.58-0.08,0.896-0.097c0.318-0.019,0.629-0.027,0.928-0.023h3.815c-0.814,1.275-1.649,2.547-2.504,3.818
		c-0.852,1.271-1.716,2.543-2.589,3.812c-0.874,1.268-1.745,2.538-2.622,3.807c-0.103,0.147-0.168,0.254-0.202,0.318
		c-0.033,0.065-0.047,0.119-0.042,0.155c0,0.056,0.025,0.097,0.078,0.113c0.054,0.017,0.131,0.024,0.237,0.022
		c1.535,0.002,3.046,0.017,4.534,0.044c1.489,0.023,2.965,0.037,4.429,0.04c0.132,0.003,0.229-0.006,0.293-0.025
		c0.063-0.015,0.11-0.057,0.141-0.12c0.029-0.062,0.06-0.161,0.093-0.294c0.026-0.106,0.061-0.245,0.1-0.409
		c0.037-0.162,0.076-0.338,0.117-0.523c0.039-0.189,0.07-0.371,0.094-0.549c0.026-0.175,0.041-0.331,0.041-0.464
		c0-0.157-0.009-0.262-0.028-0.317c-0.023-0.054-0.06-0.075-0.112-0.072c-0.044,0-0.075,0.025-0.099,0.072
		c-0.023,0.045-0.042,0.113-0.06,0.197c-0.01,0.083-0.034,0.181-0.069,0.295c-0.034,0.113-0.08,0.226-0.126,0.339
		c-0.049,0.112-0.103,0.204-0.154,0.281c-0.089,0.128-0.2,0.242-0.333,0.343c-0.128,0.103-0.298,0.189-0.502,0.264
		c-0.206,0.069-0.467,0.125-0.783,0.165c-0.313,0.038-0.699,0.059-1.16,0.059H100.58L100.58,16.9z"/>
	<path fill="#231F20" stroke="#231F20" stroke-width="0.0117" stroke-miterlimit="22.9256" d="M113.818,12.745
		c0,0.549,0,1.058-0.004,1.528c-0.003,0.473-0.012,0.893-0.024,1.261c-0.012,0.37-0.035,0.676-0.066,0.917
		c-0.021,0.165-0.052,0.315-0.089,0.447c-0.036,0.133-0.088,0.241-0.159,0.327c-0.067,0.084-0.164,0.143-0.284,0.165
		c-0.087,0.018-0.18,0.033-0.277,0.049c-0.099,0.011-0.191,0.02-0.277,0.02c-0.055,0-0.092,0.012-0.113,0.031
		c-0.024,0.02-0.036,0.045-0.036,0.07c0,0.052,0.026,0.085,0.072,0.105c0.048,0.022,0.123,0.032,0.224,0.032
		c0.142-0.002,0.311-0.01,0.501-0.019c0.189-0.01,0.379-0.017,0.568-0.017c0.196-0.009,0.363-0.015,0.5-0.015
		c0.135-0.003,0.214-0.003,0.235-0.003c0.029,0,0.096,0.003,0.208,0.007c0.109,0.002,0.245,0.01,0.404,0.018
		c0.164,0.007,0.332,0.016,0.515,0.028c0.179,0.004,0.359,0.01,0.535,0.021c0.176,0.007,0.335,0.014,0.474,0.021
		c0.14,0.006,0.244,0.009,0.316,0.009c0.627-0.003,1.197-0.073,1.696-0.211c0.504-0.139,0.943-0.329,1.318-0.574
		c0.375-0.242,0.688-0.521,0.935-0.837c0.249-0.317,0.436-0.655,0.559-1.011c0.127-0.357,0.187-0.724,0.187-1.091
		c-0.003-0.398-0.07-0.769-0.199-1.104c-0.131-0.335-0.307-0.64-0.527-0.914c-0.225-0.272-0.475-0.515-0.75-0.723
		c-0.276-0.208-0.56-0.384-0.854-0.529c-0.293-0.142-0.579-0.253-0.855-0.332c0.219-0.208,0.431-0.422,0.635-0.639
		c0.207-0.217,0.391-0.443,0.555-0.688c0.164-0.241,0.295-0.508,0.394-0.794c0.096-0.288,0.143-0.606,0.147-0.954
		c0.002-0.173-0.028-0.372-0.092-0.595c-0.066-0.221-0.175-0.446-0.334-0.677c-0.156-0.228-0.379-0.439-0.655-0.636
		c-0.279-0.192-0.632-0.35-1.06-0.469c-0.426-0.119-0.941-0.183-1.543-0.187c-0.428,0.004-0.811,0.013-1.154,0.026
		s-0.63,0.023-0.855,0.026c-0.026,0-0.107-0.003-0.248-0.009c-0.139-0.005-0.311-0.013-0.515-0.018
		c-0.206-0.005-0.424-0.014-0.654-0.018c-0.23-0.005-0.451-0.009-0.663-0.009c-0.1,0-0.174,0.009-0.223,0.03
		c-0.047,0.022-0.072,0.056-0.072,0.106c0.003,0.035,0.019,0.061,0.047,0.078c0.03,0.018,0.064,0.024,0.102,0.024
		c0.058,0,0.126,0,0.202,0.007c0.08,0.002,0.157,0.008,0.232,0.016c0.077,0.007,0.139,0.018,0.191,0.03
		c0.2,0.036,0.355,0.095,0.467,0.176c0.113,0.077,0.189,0.182,0.239,0.312c0.045,0.133,0.077,0.29,0.085,0.483
		c0.006,0.106,0.013,0.221,0.019,0.34c0.003,0.117,0.009,0.262,0.013,0.428c0,0.167,0.003,0.377,0.003,0.63
		c0.004,0.253,0.004,0.565,0.004,0.938c0,0.373,0,0.826,0,1.355V12.745L113.818,12.745z M115.292,5.539
		c0-0.053,0.014-0.093,0.049-0.121c0.032-0.026,0.088-0.052,0.171-0.068c0.1-0.022,0.205-0.04,0.315-0.055
		c0.111-0.011,0.216-0.02,0.312-0.024c0.103-0.003,0.187-0.007,0.256-0.007c0.451,0.004,0.835,0.091,1.153,0.261
		c0.315,0.166,0.57,0.396,0.771,0.677c0.195,0.282,0.34,0.597,0.429,0.944c0.092,0.345,0.139,0.697,0.135,1.056
		c-0.004,0.354-0.065,0.678-0.188,0.971c-0.119,0.297-0.28,0.547-0.476,0.754c-0.095,0.103-0.188,0.183-0.279,0.244
		c-0.091,0.059-0.199,0.104-0.315,0.134c-0.12,0.026-0.264,0.048-0.439,0.057c-0.172,0.008-0.387,0.011-0.642,0.011
		c-0.336-0.003-0.595-0.011-0.776-0.028c-0.179-0.017-0.295-0.03-0.348-0.039c-0.046-0.015-0.078-0.039-0.098-0.063
		c-0.021-0.025-0.029-0.069-0.029-0.125V5.539L115.292,5.539z M115.292,10.952c0-0.042,0.009-0.075,0.026-0.091
		c0.019-0.021,0.047-0.029,0.083-0.029c0.075,0,0.175,0,0.307,0c0.131,0,0.275,0.003,0.427,0.003
		c0.151,0.004,0.288,0.006,0.418,0.012c0.125,0.004,0.22,0.011,0.285,0.02c0.147,0.014,0.298,0.036,0.455,0.062
		c0.156,0.027,0.322,0.073,0.496,0.141c0.179,0.064,0.37,0.164,0.579,0.292c0.353,0.229,0.644,0.486,0.878,0.771
		c0.232,0.284,0.414,0.585,0.547,0.892c0.132,0.312,0.224,0.615,0.281,0.913c0.056,0.304,0.083,0.581,0.08,0.841
		c-0.001,0.384-0.061,0.715-0.172,0.992c-0.117,0.278-0.266,0.512-0.455,0.696s-0.397,0.328-0.624,0.438
		c-0.231,0.11-0.462,0.186-0.694,0.234c-0.231,0.046-0.448,0.063-0.652,0.063c-0.113,0-0.266-0.004-0.457-0.017
		c-0.19-0.011-0.385-0.036-0.596-0.073c-0.209-0.036-0.396-0.092-0.567-0.164c-0.188-0.083-0.324-0.173-0.405-0.274
		c-0.083-0.099-0.135-0.234-0.16-0.398c-0.028-0.165-0.047-0.385-0.062-0.66c-0.003-0.055-0.005-0.175-0.008-0.356
		c-0.004-0.182-0.004-0.405-0.008-0.674c0-0.267,0-0.556,0-0.865c0-0.311,0-0.623,0-0.932c0-0.307,0-0.594,0-0.861V10.952
		L115.292,10.952z"/>
	<path fill="#231F20" stroke="#231F20" stroke-width="0.0117" stroke-miterlimit="22.9256" d="M143.303,7.182
		c0.144,0.158,0.364,0.4,0.665,0.731c0.298,0.328,0.655,0.715,1.067,1.166c0.411,0.446,0.86,0.934,1.345,1.453
		c0.481,0.518,0.979,1.05,1.489,1.593c0.377,0.397,0.764,0.805,1.17,1.224c0.403,0.42,0.798,0.824,1.184,1.217
		c0.385,0.397,0.737,0.754,1.058,1.077c0.318,0.321,0.58,0.583,0.783,0.787c0.205,0.205,0.33,0.328,0.371,0.364
		c0.306,0.302,0.541,0.532,0.713,0.692c0.17,0.162,0.295,0.271,0.377,0.327c0.081,0.058,0.142,0.086,0.188,0.083
		c0.03,0.003,0.053-0.008,0.074-0.03s0.039-0.076,0.05-0.154c0.011-0.08,0.021-0.203,0.026-0.366
		c0.003-0.167,0.005-0.393,0.005-0.673l0.035-10.095c-0.001-0.342,0.013-0.621,0.041-0.83c0.03-0.212,0.091-0.373,0.185-0.481
		c0.09-0.11,0.233-0.185,0.422-0.222c0.106-0.026,0.191-0.04,0.257-0.046c0.067-0.005,0.12-0.009,0.163-0.005
		c0.062,0,0.107-0.012,0.145-0.035c0.03-0.024,0.047-0.052,0.047-0.087c0-0.052-0.029-0.082-0.085-0.101
		c-0.055-0.015-0.132-0.022-0.229-0.02c-0.238,0-0.462,0.005-0.663,0.014c-0.198,0.006-0.369,0.015-0.512,0.024
		c-0.144,0.008-0.245,0.013-0.312,0.013c-0.068,0-0.196-0.005-0.382-0.013c-0.187-0.01-0.406-0.019-0.66-0.024
		c-0.249-0.009-0.51-0.014-0.778-0.014c-0.105-0.003-0.188,0.005-0.253,0.02c-0.062,0.019-0.094,0.049-0.098,0.101
		c0,0.035,0.006,0.062,0.025,0.087c0.019,0.023,0.057,0.035,0.116,0.035c0.048,0,0.12,0.002,0.216,0.005
		c0.094,0.006,0.197,0.015,0.312,0.025c0.112,0.015,0.221,0.031,0.33,0.054c0.18,0.044,0.317,0.122,0.413,0.236
		c0.1,0.116,0.167,0.284,0.207,0.509c0.038,0.224,0.059,0.521,0.063,0.893l0.192,8.752c-0.144-0.146-0.359-0.376-0.647-0.687
		c-0.29-0.311-0.626-0.675-1.012-1.09c-0.385-0.418-0.796-0.859-1.231-1.328c-0.434-0.47-0.87-0.93-1.309-1.394
		c-0.542-0.57-1.07-1.13-1.589-1.676c-0.515-0.548-1.003-1.061-1.458-1.547c-0.454-0.483-0.862-0.917-1.221-1.298
		c-0.357-0.382-0.648-0.692-0.875-0.935c-0.225-0.24-0.365-0.393-0.42-0.452c-0.061-0.061-0.127-0.135-0.204-0.222
		c-0.078-0.084-0.15-0.161-0.227-0.228c-0.073-0.065-0.132-0.101-0.181-0.103c-0.046-0.003-0.084,0.022-0.11,0.076
		c-0.029,0.05-0.051,0.137-0.061,0.263c-0.015,0.127-0.022,0.303-0.022,0.522l-0.017,9.87c0.002,0.521-0.012,0.932-0.037,1.24
		c-0.03,0.307-0.078,0.531-0.158,0.676c-0.076,0.147-0.184,0.24-0.331,0.274c-0.138,0.041-0.269,0.068-0.404,0.083
		c-0.135,0.014-0.237,0.02-0.313,0.02c-0.043,0-0.078,0.011-0.102,0.025c-0.026,0.018-0.037,0.044-0.037,0.078
		c0,0.058,0.026,0.097,0.075,0.115c0.046,0.017,0.117,0.025,0.206,0.023c0.265,0,0.515-0.007,0.747-0.015
		c0.238-0.009,0.436-0.015,0.602-0.022c0.164-0.01,0.273-0.017,0.329-0.017s0.163,0.007,0.33,0.017
		c0.167,0.008,0.377,0.014,0.636,0.022c0.259,0.008,0.557,0.015,0.889,0.015c0.104,0,0.184-0.01,0.237-0.033
		c0.052-0.021,0.078-0.056,0.078-0.105c0-0.034-0.013-0.061-0.039-0.078c-0.022-0.015-0.056-0.025-0.1-0.025
		c-0.057,0-0.129-0.004-0.223-0.007c-0.097-0.005-0.201-0.016-0.316-0.03c-0.111-0.016-0.224-0.038-0.337-0.065
		c-0.157-0.043-0.282-0.13-0.38-0.266c-0.095-0.136-0.168-0.342-0.216-0.618c-0.046-0.278-0.076-0.647-0.088-1.115L143.303,7.182
		L143.303,7.182z"/>
	<path fill="#231F20" stroke="#231F20" stroke-width="0.0117" stroke-miterlimit="22.9256" d="M125.997,12.161
		c0.004,0.611,0.044,1.146,0.121,1.61c0.081,0.466,0.192,0.871,0.333,1.218s0.305,0.647,0.495,0.903
		c0.189,0.259,0.394,0.482,0.615,0.677c0.323,0.278,0.667,0.499,1.029,0.659c0.367,0.162,0.722,0.281,1.069,0.356
		c0.35,0.077,0.666,0.125,0.947,0.147c0.277,0.021,0.5,0.031,0.655,0.027c0.356,0.006,0.737-0.022,1.144-0.084
		c0.405-0.06,0.826-0.18,1.258-0.358c0.434-0.178,0.865-0.447,1.299-0.797c0.355-0.3,0.646-0.644,0.864-1.031
		c0.219-0.385,0.388-0.802,0.5-1.244c0.114-0.439,0.193-0.893,0.23-1.357c0.043-0.463,0.06-0.924,0.059-1.379V9.715
		c0-0.519,0-0.964,0-1.33c0-0.365,0-0.672,0.001-0.919c0-0.248,0.003-0.456,0.006-0.621c0.004-0.161,0.005-0.303,0.008-0.421
		c0.007-0.114,0.013-0.225,0.017-0.328c0.013-0.291,0.07-0.511,0.166-0.659c0.097-0.151,0.264-0.249,0.499-0.298
		c0.106-0.017,0.192-0.03,0.259-0.037c0.067-0.01,0.132-0.012,0.19-0.012c0.041,0,0.072-0.01,0.1-0.025
		c0.03-0.018,0.045-0.042,0.045-0.076c0-0.05-0.024-0.083-0.07-0.105c-0.047-0.02-0.12-0.028-0.219-0.028
		c-0.137,0-0.283,0.004-0.446,0.009c-0.157,0.002-0.313,0.011-0.463,0.017c-0.149,0.006-0.277,0.012-0.387,0.017
		c-0.107,0.006-0.175,0.009-0.211,0.009c-0.029,0-0.104-0.003-0.228-0.009c-0.123-0.005-0.279-0.011-0.461-0.017
		c-0.183-0.006-0.381-0.015-0.592-0.017c-0.21-0.005-0.417-0.009-0.624-0.009c-0.099,0-0.17,0.009-0.218,0.028
		c-0.045,0.022-0.07,0.056-0.07,0.105c0.005,0.034,0.02,0.059,0.045,0.076c0.031,0.016,0.062,0.025,0.099,0.025
		c0.058,0,0.123,0,0.199,0.006c0.078,0.002,0.152,0.008,0.227,0.018c0.074,0.003,0.136,0.017,0.186,0.025
		c0.193,0.038,0.347,0.097,0.454,0.175c0.11,0.074,0.185,0.178,0.233,0.307c0.046,0.126,0.075,0.286,0.084,0.476
		c0.008,0.104,0.016,0.214,0.018,0.328c0.007,0.118,0.01,0.26,0.012,0.421c0,0.165,0.004,0.373,0.004,0.621
		c0.003,0.247,0.003,0.554,0.003,0.919c0,0.366,0,0.812,0,1.33v2.095c0.002,0.576-0.028,1.116-0.087,1.62
		c-0.06,0.504-0.164,0.965-0.316,1.381c-0.153,0.418-0.366,0.787-0.638,1.104c-0.218,0.242-0.477,0.453-0.775,0.635
		c-0.301,0.179-0.624,0.319-0.971,0.42s-0.706,0.153-1.074,0.153c-0.339,0.003-0.662-0.02-0.966-0.067
		c-0.298-0.047-0.594-0.14-0.879-0.273c-0.287-0.133-0.579-0.325-0.868-0.581c-0.194-0.172-0.375-0.369-0.536-0.596
		c-0.166-0.23-0.306-0.506-0.427-0.826s-0.217-0.704-0.283-1.151c-0.065-0.443-0.102-0.967-0.102-1.567V9.715
		c0-0.519,0-0.964,0-1.33c0-0.365,0-0.672,0.004-0.919c0-0.248,0.001-0.456,0.006-0.621c0-0.161,0.004-0.303,0.007-0.421
		c0.008-0.114,0.013-0.225,0.02-0.328c0.011-0.294,0.067-0.518,0.164-0.674c0.096-0.155,0.263-0.252,0.5-0.283
		c0.105-0.017,0.192-0.03,0.258-0.037c0.069-0.01,0.133-0.012,0.191-0.012c0.039,0,0.072-0.01,0.099-0.025
		c0.03-0.018,0.046-0.042,0.046-0.076c0-0.05-0.025-0.083-0.07-0.105c-0.047-0.02-0.12-0.028-0.219-0.028
		c-0.137,0-0.298,0.004-0.48,0.009c-0.184,0.002-0.367,0.011-0.548,0.017s-0.342,0.012-0.479,0.017
		c-0.135,0.006-0.223,0.009-0.269,0.009c-0.044,0-0.135-0.003-0.278-0.009c-0.14-0.005-0.312-0.011-0.513-0.017
		c-0.199-0.006-0.412-0.015-0.633-0.017c-0.222-0.005-0.435-0.009-0.64-0.009c-0.1,0-0.172,0.009-0.219,0.028
		c-0.045,0.022-0.07,0.056-0.07,0.105c0.004,0.034,0.017,0.059,0.045,0.076c0.03,0.016,0.062,0.025,0.099,0.025
		c0.057,0,0.123,0,0.198,0.006c0.078,0.002,0.152,0.008,0.228,0.018c0.075,0.003,0.133,0.017,0.186,0.025
		c0.195,0.038,0.347,0.097,0.454,0.175c0.107,0.074,0.187,0.178,0.233,0.307c0.044,0.126,0.077,0.286,0.084,0.476
		c0.005,0.104,0.013,0.214,0.018,0.328c0.003,0.118,0.01,0.26,0.01,0.421c0.003,0.165,0.006,0.373,0.006,0.621
		c0.001,0.247,0.001,0.554,0.001,0.919c0,0.366,0,0.812,0,1.33V12.161L125.997,12.161z"/>
	
		<path fill-rule="evenodd" clip-rule="evenodd" fill="#231F20" stroke="#231F20" stroke-width="0.0117" stroke-miterlimit="22.9256" d="
		M130.379,3.042l3.169-2.078l0.806,1.332C134.354,2.296,132.732,2.069,130.379,3.042L130.379,3.042z"/>
</g>
</svg>
