<?xml version="1.0" encoding="utf-8"?>
<!-- Generator: Adobe Illustrator 16.0.0, SVG Export Plug-In . SVG Version: 6.00 Build 0)  -->
<!DOCTYPE svg PUBLIC "-//W3C//DTD SVG 1.1//EN" "http://www.w3.org/Graphics/SVG/1.1/DTD/svg11.dtd">
<svg version="1.1" id="Layer_1" xmlns="http://www.w3.org/2000/svg" xmlns:xlink="http://www.w3.org/1999/xlink" x="0px" y="0px"
	 width="28px" height="28px" viewBox="0 0 28 28" enable-background="new 0 0 28 28" xml:space="preserve">
<g>
	<path fill-rule="evenodd" clip-rule="evenodd" fill="#212121" d="M14,1.069c-12.928,0-12.928,5.789-12.928,12.928
		c0,7.146,0,12.934,12.928,12.934s12.928-5.788,12.928-12.934C26.928,6.858,26.928,1.069,14,1.069z M14,25.812
		c-6.611,0-11.971-5.359-11.971-11.972C2.029,7.227,7.389,1.867,14,1.867S25.973,7.227,25.973,13.84
		C25.973,20.452,20.611,25.812,14,25.812z"/>
	<g>
		<path fill="#212121" d="M17.514,6.945h-7.027c-1.936,0-3.512,1.576-3.512,3.512v7.086c0,1.935,1.576,3.511,3.512,3.511h7.027
			c1.936,0,3.512-1.576,3.512-3.511v-7.086C21.025,8.521,19.449,6.945,17.514,6.945z M10.486,8.246h7.027
			c1.219,0,2.213,0.992,2.213,2.211v1.208h-3.725c-0.545-0.389-1.211-0.617-1.93-0.617c-0.721,0-1.385,0.229-1.932,0.617H8.277
			v-1.208C8.277,9.238,9.268,8.246,10.486,8.246z M15.457,14.384c0,0.764-0.621,1.384-1.385,1.384s-1.385-0.62-1.385-1.384
			c0-0.765,0.621-1.385,1.385-1.385S15.457,13.619,15.457,14.384z M17.514,19.752h-7.027c-1.219,0-2.209-0.991-2.209-2.209v-4.577
			h2.775c-0.201,0.43-0.318,0.91-0.318,1.418c0,1.838,1.498,3.335,3.338,3.335s3.334-1.497,3.334-3.335
			c0-0.508-0.111-0.988-0.314-1.418h2.635v4.577C19.727,18.761,18.732,19.752,17.514,19.752z"/>
		<path fill="#212121" d="M18.705,10.631c0,0.214-0.172,0.39-0.391,0.39h-1.205c-0.215,0-0.389-0.176-0.389-0.39V9.426
			c0-0.216,0.174-0.391,0.389-0.391h1.205c0.219,0,0.391,0.175,0.391,0.391V10.631z"/>
	</g>
</g>
</svg>
