<?xml version="1.0" encoding="utf-8"?>
<!-- Generator: Adobe Illustrator 16.0.0, SVG Export Plug-In . SVG Version: 6.00 Build 0)  -->
<!DOCTYPE svg PUBLIC "-//W3C//DTD SVG 1.1//EN" "http://www.w3.org/Graphics/SVG/1.1/DTD/svg11.dtd">
<svg version="1.1" id="Layer_1" xmlns="http://www.w3.org/2000/svg" xmlns:xlink="http://www.w3.org/1999/xlink" x="0px" y="0px"
	 width="28px" height="28px" viewBox="0 0 28 28" enable-background="new 0 0 28 28" xml:space="preserve">
<g>
	<g>
		<path fill-rule="evenodd" clip-rule="evenodd" fill="#212121" d="M19.793,10.11H8.427l5.805,4.975l5.883-4.887
			C20.019,10.144,19.912,10.11,19.793,10.11z"/>
		<path fill-rule="evenodd" clip-rule="evenodd" fill="#212121" d="M20.456,11.204l-6.188,5.143l-0.041,0.045l-0.008-0.006
			l-0.013,0.01l-0.067-0.082l-6.585-5.643c-0.005,0.033-0.011,0.067-0.011,0.103v6.456c0,0.363,0.297,0.66,0.662,0.66h11.587
			c0.367,0,0.663-0.297,0.663-0.66V11.204z"/>
	</g>
	<path fill-rule="evenodd" clip-rule="evenodd" fill="#212121" d="M13.999,1.069c-12.928,0-12.928,5.79-12.928,12.93
		c0,7.145,0,12.932,12.928,12.932c12.93,0,12.93-5.787,12.93-12.932C26.929,6.859,26.929,1.069,13.999,1.069z M13.999,25.812
		c-6.61,0-11.971-5.359-11.971-11.971c0-6.613,5.36-11.973,11.971-11.973c6.611,0,11.972,5.359,11.972,11.973
		C25.971,20.452,20.61,25.812,13.999,25.812z"/>
</g>
</svg>
