<?xml version="1.0" encoding="utf-8"?>
<!-- Generator: Adobe Illustrator 16.0.0, SVG Export Plug-In . SVG Version: 6.00 Build 0)  -->
<!DOCTYPE svg PUBLIC "-//W3C//DTD SVG 1.1//EN" "http://www.w3.org/Graphics/SVG/1.1/DTD/svg11.dtd">
<svg version="1.1" id="Layer_1" xmlns="http://www.w3.org/2000/svg" xmlns:xlink="http://www.w3.org/1999/xlink" x="0px" y="0px"
	 width="28px" height="28px" viewBox="0 0 28 28" enable-background="new 0 0 28 28" xml:space="preserve">
<g>
	<path fill-rule="evenodd" clip-rule="evenodd" fill="#212121" d="M13.999,1.07C1.071,1.07,1.071,6.858,1.071,13.997
		c0,7.144,0,12.933,12.928,12.933c12.93,0,12.93-5.789,12.93-12.933C26.929,6.858,26.929,1.07,13.999,1.07z M13.999,25.81
		c-6.611,0-11.97-5.357-11.97-11.97c0-6.613,5.359-11.972,11.97-11.972c6.612,0,11.972,5.358,11.972,11.972
		C25.971,20.452,20.611,25.81,13.999,25.81z M15.217,9.255c0.503-0.131,1.252-0.133,1.932-0.126c0-0.811,0-1.622,0-2.436
		c-1.754-0.009-3.704-0.155-4.452,0.842c-0.203,0.27-0.39,0.617-0.503,0.965c-0.063,0.195-0.025,0.43-0.126,0.589
		c0.003,0.647,0.146,1.624-0.041,2.182c-0.477,0-0.953,0-1.428,0c0,0.812,0,1.625,0,2.437c0.446-0.005,1.101-0.083,1.469,0.039
		c0,2.327,0,4.648,0,6.973c0.966,0,1.932,0,2.898,0c0-2.336,0-4.676,0-7.012c0.644,0,1.287,0,1.932,0
		c0.098-0.062,0.012-0.332,0.041-0.464c0.134-0.591,0.223-1.314,0.211-1.973c-0.729,0-1.457,0-2.184,0
		C14.96,10.484,14.927,9.714,15.217,9.255z"/>
</g>
</svg>
