<?xml version="1.0" encoding="utf-8"?>
<!-- Generator: Adobe Illustrator 16.0.0, SVG Export Plug-In . SVG Version: 6.00 Build 0)  -->
<!DOCTYPE svg PUBLIC "-//W3C//DTD SVG 1.1//EN" "http://www.w3.org/Graphics/SVG/1.1/DTD/svg11.dtd">
<svg version="1.1" id="Layer_1" xmlns="http://www.w3.org/2000/svg" xmlns:xlink="http://www.w3.org/1999/xlink" x="0px" y="0px"
	 width="28px" height="28px" viewBox="0 0 28 28" enable-background="new 0 0 28 28" xml:space="preserve">
<g>
	<path fill-rule="evenodd" clip-rule="evenodd" fill="#212121" d="M14.001,1.069c-12.93,0-12.93,5.79-12.93,12.929
		c0,7.145,0,12.933,12.93,12.933c12.928,0,12.928-5.788,12.928-12.933C26.929,6.859,26.929,1.069,14.001,1.069z M14.001,25.812
		c-6.612,0-11.973-5.359-11.973-11.971c0-6.613,5.36-11.973,11.973-11.973c6.609,0,11.971,5.36,11.971,11.973
		C25.972,20.452,20.61,25.812,14.001,25.812z"/>
	<path fill-rule="evenodd" clip-rule="evenodd" fill="#212121" d="M21.784,13.533c-0.522,0.015-0.974-0.038-1.542-0.074
		c0-0.024,0-0.051,0-0.074c0.578-0.116,1.218-0.363,1.396-0.88c0.023,0,0.049,0,0.074,0c0-0.05,0-0.101,0-0.148
		c-0.334,0.088-1.066,0.42-1.396,0.222c-0.718-0.07-0.519-0.775-0.806-1.251c-0.557-0.907-1.412-1.746-2.865-1.761
		c0.235-0.189,0.888-0.363,1.175-0.439c-0.015-0.192-0.03-0.25-0.073-0.368c-0.279,0.006-0.501,0.028-0.66,0.146
		c-0.05,0-0.101,0-0.147,0c0.082-0.153,0.11-0.132,0.147-0.367c-0.406,0.027-0.735,0.153-0.955,0.367
		c-0.071-0.118-0.005-0.007,0-0.221c-0.048,0-0.098,0-0.146,0c-0.976,1.009-1.976,2.155-2.354,3.745c-0.022,0-0.047,0-0.072,0
		c-0.602-0.934-3.834-2.414-5.141-2.716C8.396,9.737,8.371,9.762,8.347,9.785c0.156,0.852,0.504,1.593,1.248,1.838
		c-0.173,0.121-0.534,0.146-0.808,0.146c0.045,0.842,0.688,1.444,1.469,1.542c0,0.024,0,0.048,0,0.073
		c-0.311,0.121-0.543,0.239-0.808,0.366c0,0.049,0,0.099,0,0.148c0.502,0.49,0.705,0.903,1.761,0.882c0,0.022,0,0.047,0,0.071
		c-0.214,0.109-0.279,0.221-0.44,0.368c-0.021,0.729,0.363,0.94,1.029,0.955c0,0.023,0,0.05,0,0.073
		c-0.494,0.183-0.888,0.668-1.396,0.883c-1.255,0.519-3.423,0.148-4.039-0.661c-0.05,0-0.099,0-0.147,0
		c0.272,0.528,0.781,0.906,1.249,1.247c0.794,0.581,1.646,1.145,2.717,1.469c2.397,0.723,5.329-0.097,6.828-1.029
		c0.882-0.545,1.807-1.467,2.351-2.349c0.134-0.212,0.484-1.466,0.589-1.542c0.318-0.025,0.637-0.049,0.954-0.074
		c0.321-0.116,0.609-0.411,0.881-0.587C21.784,13.583,21.784,13.557,21.784,13.533z"/>
</g>
</svg>
