<?xml version="1.0" encoding="utf-8"?>
<!-- Generator: Adobe Illustrator 16.0.0, SVG Export Plug-In . SVG Version: 6.00 Build 0)  -->
<!DOCTYPE svg PUBLIC "-//W3C//DTD SVG 1.1//EN" "http://www.w3.org/Graphics/SVG/1.1/DTD/svg11.dtd">
<svg version="1.1" id="Layer_1" xmlns="http://www.w3.org/2000/svg" xmlns:xlink="http://www.w3.org/1999/xlink" x="0px" y="0px"
	 width="28px" height="28px" viewBox="0 0 28 28" enable-background="new 0 0 28 28" xml:space="preserve">
<g>
	<path fill-rule="evenodd" clip-rule="evenodd" fill="#212121" d="M14,1.069c-12.928,0-12.928,5.79-12.928,12.929
		c0,7.145,0,12.933,12.928,12.933s12.928-5.788,12.928-12.933C26.928,6.859,26.928,1.069,14,1.069z M14,25.812
		c-6.611,0-11.973-5.359-11.973-11.971C2.027,7.228,7.389,1.868,14,1.868s11.971,5.36,11.971,11.973
		C25.971,20.452,20.611,25.812,14,25.812z"/>
	<path fill-rule="evenodd" clip-rule="evenodd" fill="#212121" d="M9.99,19.478c0.805,0,1.459-0.651,1.459-1.457
		c0-0.805-0.654-1.459-1.459-1.459s-1.459,0.654-1.459,1.459C8.531,18.826,9.186,19.478,9.99,19.478z M8.531,14.346
		c1.369,0,2.654,0.532,3.615,1.504c0.969,0.97,1.502,2.263,1.502,3.637h2.104c0-3.994-3.238-7.245-7.221-7.245V14.346z M8.535,8.509
		v2.105c4.871,0,8.828,3.982,8.828,8.876h2.105C19.469,13.437,14.566,8.509,8.535,8.509z"/>
</g>
</svg>
